<svg xmlns="http://www.w3.org/2000/svg" width="88" height="31"><defs><linearGradient id="bg-gradient" x1="0" x2="0" y1="0" y2="1"><stop offset="0%" stop-color="#1f008e"/><stop offset="100%" stop-color="#4220bd"/></linearGradient><pattern id="bg-checkerboard" width="20" height="20" patternUnits="userSpaceOnUse"><g opacity=".5"><rect width="10" height="10" x="0" y="0" fill="#000"/><rect width="10" height="10" x="10" y="10" fill="#000"/><rect width="10" height="10" x="20" y="20" fill="#000"/><rect width="10" height="10" x="20" y="0" fill="#000"/><rect width="10" height="10" x="0" y="20" fill="#000"/><animateTransform attributeName="transform" begin="0s" dur="2s" from="0 0" repeatCount="indefinite" to="-10 -10" type="translate"/></g></pattern></defs><style>text{font-family:&quot;Arial&quot;,&quot;FreeSans&quot;,sans-serif;font-size:12px;font-style:italic;font-weight:700;fill:#fff;stroke:#000;stroke-width:2;paint-order:stroke}text.left,text.right{alignment-baseline:baseline}text.left{font-size:12px;text-anchor:start}text.right{text-anchor:end}</style><rect width="88" height="31" fill="url(#bg-gradient)"/><g transform="rotate(10 0 100) skewX(-20) scale(1 0.5)"><rect width="120" height="100" x="-10" y="-30" fill="url(#bg-checkerboard)"/></g><text x="6" y="16" class="left">duducat&apos;s <animate id="main" attributeName="y" begin="0.01s; main.end" calcMode="spline" dur="6s" keySplines="0 1 0 1;1 0 1 0" values="116;16;-75"/></text><text x="82" y="25" class="right">website! <set attributeName="y" to="-25"/> <animate attributeName="y" begin="main.begin" calcMode="spline" dur="2.25s" keySplines="0 1 0 1;1 0 1 0" values="125;25;-75"/></text><text x="82" y="-22" class="right">web-games! <animate attributeName="y" begin="main.begin+2s" calcMode="spline" dur="1s" keySplines="0 1 0 1;1 0 1 0" values="125;25;-75"/></text><text x="82" y="-22" class="right">web-toys! <animate attributeName="y" begin="main.begin+2.75s" calcMode="spline" dur="1s" keySplines="0 1 0 1;1 0 1 0" values="125;25;-75"/></text><text x="82" y="-22" class="right">web-utilities! <animate attributeName="y" begin="main.begin+3.5s" calcMode="spline" dur="1s" keySplines="0 1 0 1;1 0 1 0" values="125;25;-75"/></text><text x="82" y="-22" class="right">js resources! <animate attributeName="y" begin="main.begin+4.25s" calcMode="spline" dur="1s" keySplines="0 1 0 1;1 0 1 0" values="125;25;-75"/></text><text x="82" y="-22" class="right">&amp; other stuff! <animate attributeName="y" begin="main.begin+5s" calcMode="spline" dur="1s" keySplines="0 1 0 1;1 0 1 0" values="125;25;-75"/></text><path fill="#fff" d="M 0 0 L 88 0 L 86 2 L 2 2 L 2 29 L 0 31 Z"/><path fill="#000" d="M 88 31 L 0 31 L 2 29 L 86 29 L 86 2 L 88 0 Z"/></svg>