<svg xmlns="http://www.w3.org/2000/svg" xmlns:xlink="http://www.w3.org/1999/xlink" width="100%" height="100%" version="1.1" viewBox="0 0 512 709" xml:space="preserve" style="fill-rule:evenodd;clip-rule:evenodd;stroke-linejoin:round;stroke-miterlimit:2"><g id="svgg"><path id="path0" d="M424.996,416.607c-10.865,5.196 -18.506,5.895 -27.032,2.471c-3.712,-1.49 -5.503,-1.563 -4.352,-0.176c1.543,1.859 9.694,6.535 11.41,6.546c0.531,0.003 0.917,0.708 1.314,2.395c3.218,13.688 7.437,12.714 6.227,-1.438c-0.082,-0.963 0.184,-1.162 2.184,-1.636c5.617,-1.331 16.487,-8.177 15.506,-9.765c-0.429,-0.694 -0.491,-0.675 -5.257,1.603m8.505,15.325c-1.699,2.175 -3.408,3.788 -4.977,4.695c-2.56,1.481 -3.273,2.763 -3.917,7.046l-0.308,2.049l-0.839,-2.277c-0.769,-2.088 -2.156,-3.872 -3.011,-3.872c-0.191,0 -0.479,0.83 -0.642,1.843c-0.178,1.116 -0.483,1.727 -0.772,1.549c-0.263,-0.163 -0.357,-0.611 -0.209,-0.997c0.208,-0.541 0.131,-0.587 -0.334,-0.201c-0.332,0.276 -1.046,0.385 -1.587,0.244c-0.92,-0.241 -0.955,-0.16 -0.545,1.269c0.62,2.163 0.51,2.693 -0.213,1.03c-1.012,-2.325 -2.077,-2.352 -2.114,-0.054c-0.032,2.031 -0.509,1.523 -1.084,-1.153c-0.41,-1.91 -1.81,-1.693 -1.471,0.228l0.261,1.48l-0.742,-1.48c-0.408,-0.814 -1.038,-1.48 -1.4,-1.48c-0.499,0 -0.586,0.357 -0.362,1.48l0.295,1.48l-0.771,-1.138c-0.423,-0.627 -0.855,-1.241 -0.958,-1.366c-0.104,-0.125 -0.453,0.134 -0.776,0.576c-0.54,0.739 -0.635,0.691 -1.161,-0.579c-1.247,-3.011 -2.721,-2.262 -2.507,1.275l0.155,2.568l-0.863,-1.123c-0.475,-0.618 -0.868,-1.441 -0.874,-1.83c-0.005,-0.388 -0.198,-0.9 -0.427,-1.138c-0.229,-0.238 -0.485,-0.945 -0.569,-1.57c-0.108,-0.802 -0.67,-1.381 -1.908,-1.962c-4.02,-1.889 -5.229,0.231 -1.937,3.399c1.13,1.088 2.649,3.105 3.375,4.483c0.726,1.378 1.709,2.687 2.185,2.91c0.476,0.223 1.282,1.043 1.791,1.822c0.801,1.227 1.163,1.404 2.701,1.316c0.977,-0.056 2.044,0.121 2.372,0.392c0.327,0.272 0.931,0.365 1.342,0.208c0.41,-0.158 1.04,-0.043 1.399,0.255c0.819,0.679 2.907,0.923 3.538,0.413c0.262,-0.212 1.38,-0.395 2.483,-0.407c1.14,-0.012 2.166,-0.279 2.377,-0.618c0.204,-0.329 0.737,-0.618 1.183,-0.644c0.446,-0.025 1.384,-0.077 2.084,-0.114c0.701,-0.037 1.782,-0.575 2.402,-1.195c0.62,-0.621 1.487,-1.32 1.925,-1.555c1.049,-0.561 4.586,-6.775 5.591,-9.822c0.436,-1.322 1.162,-3.097 1.615,-3.945c0.452,-0.849 0.837,-1.645 0.857,-1.771c0.019,-0.125 0.296,-0.699 0.616,-1.275c0.66,-1.188 0.544,-3.357 -0.191,-3.598c-0.269,-0.088 -1.654,1.331 -3.078,3.154" style="fill:#3c0300"/></g></svg>