<?xml version="1.0" encoding="UTF-8" standalone="no"?><!DOCTYPE svg PUBLIC "-//W3C//DTD SVG 1.1//EN" "http://www.w3.org/Graphics/SVG/1.1/DTD/svg11.dtd"><svg width="100%" height="100%" viewBox="0 0 512 709" version="1.1" xmlns="http://www.w3.org/2000/svg" xmlns:xlink="http://www.w3.org/1999/xlink" xml:space="preserve" xmlns:serif="http://www.serif.com/" style="fill-rule:evenodd;clip-rule:evenodd;stroke-linejoin:round;stroke-miterlimit:2;"><g id="svgg"><path id="path0" d="M243.528,289.708c-0.81,0 -7.921,-2.476 -8.482,-2.953c-1.357,-1.154 -3.656,-2.071 -4.948,-1.973c-1.013,0.078 -1.951,-0.447 -4.047,-2.263c-8.104,-7.02 -13.276,-8.831 -16.773,-5.873c-2.557,2.162 -3.251,2.321 -4.459,1.018c-0.696,-0.752 -1.225,-0.978 -1.658,-0.711c-0.362,0.224 -0.976,0.21 -1.427,-0.031c-0.435,-0.233 -1.193,-0.424 -1.684,-0.424c-0.491,-0 -0.998,-0.277 -1.128,-0.616c-0.459,-1.196 -3.646,-2.415 -4.804,-1.838c-0.686,0.342 -1.621,0.388 -2.72,0.132c-0.922,-0.214 -2.42,-0.394 -3.331,-0.4c-1.276,-0.008 -1.71,-0.223 -1.897,-0.939c-0.186,-0.71 -0.599,-0.919 -1.762,-0.889c-2.558,0.064 -5.846,-0.55 -5.846,-1.092c-0,-0.328 -0.73,-0.456 -2.019,-0.353c-1.576,0.125 -2.689,-0.169 -5.065,-1.339l-3.046,-1.499l-3.795,1.288c-3.949,1.341 -5.662,2.617 -5.662,4.216c-0,2.303 1.991,2.421 7.471,0.444c3.584,-1.293 4.301,-1.165 5.938,1.063c2.627,3.578 6.877,14.03 6.043,14.863c-0.114,0.115 -2.231,-0.224 -4.705,-0.752c-13.586,-2.899 -30.333,-0.758 -27.69,3.54c0.5,0.814 1.894,1.894 7.932,6.147c4.758,3.35 4.77,3.979 0.134,7.02c-6.976,4.577 -8.576,5.168 -14,5.168l-4.781,-0l-3.204,-2.073c-5.673,-3.669 -9.97,-4.891 -11.351,-3.226c-0.667,0.803 -0.027,1.344 3.643,3.08c8.785,4.155 19.538,13.985 19.538,17.862c0,0.103 -4.253,0.291 -9.452,0.419c-13.46,0.331 -23.468,2.488 -25.344,5.463c-0.875,1.386 1.283,3.073 3.93,3.073c6.128,-0 16.068,11.46 18.304,21.106l0.3,1.29l-2.885,-0.308c-5.725,-0.614 -9.451,1.454 -9.451,5.245c-0,2.743 -0.307,2.849 -4.271,1.471c-4.566,-1.588 -9.272,-1.871 -10.761,-0.647c-1.726,1.42 -0.501,2.335 4.177,3.121c6.278,1.055 10.703,3.703 18.064,10.809c2.489,2.403 4.179,4.624 4.179,5.492c-0,0.137 -3.228,0.257 -7.174,0.266c-14.949,0.033 -26.217,4.12 -21.966,7.968c0.9,0.814 1.022,0.804 4.543,-0.385c5.338,-1.802 6.734,-1.564 10.704,1.824c1.002,0.855 2.078,1.758 2.391,2.006c0.843,0.667 0.699,1.12 -0.534,1.682c-2.672,1.218 -8.918,7.406 -8.918,8.836c-0,1.142 -0.138,1.323 -0.797,1.042c-3.486,-1.488 -4.708,-1.778 -5.467,-1.299c-1.637,1.032 -0.902,2.119 3.076,4.55c8.146,4.979 13.504,13.767 14.375,23.575l0.318,3.58l-1.994,-0.319c-2.063,-0.33 -11.44,-3.114 -17.027,-5.055c-6.432,-2.234 -7.458,-1.392 -4.876,4.002c2.743,5.73 2.797,6.283 0.613,6.283c-2.083,-0 -3.228,0.982 -2.361,2.027c1.027,1.236 3.645,1.724 8.266,1.538c4.362,-0.175 4.498,-0.151 4.22,0.746c-0.75,2.426 -3.003,6.163 -4.357,7.227c-0.828,0.651 -1.863,1.498 -2.302,1.883c-0.997,0.876 -2.164,0.907 -2.164,0.058c-0,-2.21 -12.733,-15.301 -14.883,-15.301c-3.296,-0 -4.36,5.633 -2.391,12.652c1.14,4.063 1.348,3.833 -2.54,2.813c-2.313,-0.606 -4.879,-0.841 -9.339,-0.853c-13.063,-0.035 -16.48,2.395 -11.669,8.301c3.316,4.072 3.262,4.218 -1.481,4.033c-7.726,-0.3 -17.369,3.578 -17.369,6.986c-0,1.307 10.794,10.435 13.346,11.285c0.286,0.096 -1.165,2.053 -3.224,4.35c-2.826,3.152 -3.745,4.493 -3.745,5.467c-0,1.316 1.602,3.272 2.679,3.272c0.868,-0 0.251,1.587 -2.215,5.694c-2.663,4.437 -5.475,10.005 -5.475,10.842c-0,1.883 5.655,3.962 10.776,3.962c1.298,-0 1.541,0.145 1.343,0.797c-2.629,8.679 0.447,12.685 7.292,9.498c3.114,-1.45 5.418,-1.961 5.057,-1.122c-6.979,16.197 -7.556,24.535 -1.697,24.535c1.875,-0 2.379,-0.295 8.367,-4.893c12.612,-9.687 16.013,-12.781 19.772,-17.996l1.56,-2.164l3.575,-0c1.966,-0 3.676,0.165 3.801,0.367c0.367,0.594 -3.653,8.217 -6.109,11.582c-2.499,3.425 -2.65,3.959 -1.43,5.062c1.027,0.93 1.904,0.951 3.571,0.083c0.709,-0.369 2.05,-1.004 2.979,-1.409c0.928,-0.406 3.104,-1.927 4.833,-3.379c3.016,-2.532 5.034,-3.895 5.293,-3.574c3.936,4.883 -0.26,22.805 -6.235,26.628c-1.925,1.231 -2.111,1.942 -0.816,3.115c1.787,1.617 2.181,1.342 15.679,-10.916c2.759,-2.506 5.642,-5.459 6.407,-6.564c0.766,-1.104 1.892,-2.615 2.504,-3.358l1.112,-1.35l0.818,1.01c3.65,4.508 5.752,22.138 3.571,29.957c-1.343,4.816 -1.104,6.497 0.923,6.497c1.875,-0 4.369,-6.133 4.862,-11.957c0.143,-1.691 0.472,-3.075 0.731,-3.075c0.259,-0 2.051,-1.537 3.981,-3.416c4.315,-4.2 4.222,-4.202 5.349,0.113c1.746,6.689 1.721,7.503 -0.256,8.431c-3.132,1.47 -5.985,3.931 -7.383,6.37c-2.535,4.42 -1.621,5.209 2.033,1.753c5.929,-5.607 19.168,-10.056 33.388,-11.219l3.779,-0.309l-0.316,1.302c-0.174,0.716 -0.795,2.397 -1.381,3.735c-4.186,9.568 -7.969,27.751 -6.122,29.423c2.232,2.02 3.798,-0.171 5.359,-7.493l1.214,-5.696l2.993,-1.453c1.647,-0.798 4.737,-1.774 6.866,-2.167c2.13,-0.394 4.2,-0.818 4.601,-0.944c0.62,-0.193 0.77,0.399 0.999,3.938c0.311,4.801 1.207,6.331 3.704,6.327c1.319,-0.002 2.072,-0.371 5.002,-2.451c1.585,-1.125 1.676,-0.976 1.963,3.216l0.244,3.566l-2.128,2.367c-1.17,1.302 -3.963,3.831 -6.207,5.62c-4.066,3.243 -4.748,4.327 -3.417,5.431c3.088,2.563 22.57,-17.257 22.57,-22.959c-0,-1.529 1.885,-0.321 3.319,2.127c4.477,7.642 6.521,15.459 6.943,26.544c0.321,8.462 0.532,9.339 2.25,9.339c3.249,-0 4.42,-10.944 2.245,-20.979c-0.461,-2.124 7.513,-5.201 16.441,-6.346c2.538,-0.325 5.228,-1.022 7.074,-1.832l2.979,-1.308l11.602,-0.15c13.098,-0.169 13.479,-0.254 13.935,-3.108c0.335,-2.095 0.363,-2.105 2.396,-0.866l1.539,0.939l3.795,-2.526c8.986,-5.98 17.041,-16.341 17.041,-21.92c-0,-0.693 0.261,-1.122 0.683,-1.122c0.513,-0 0.683,0.549 0.683,2.207c0,3.199 1.448,6.926 4.55,11.715c2.338,3.608 3.65,6.065 3.65,6.834c0,0.109 -1.281,0.198 -2.846,0.198c-6.099,-0 -25.264,10.336 -23.127,12.473c0.735,0.735 0.541,2.2 -0.519,3.926c-3.025,4.928 -3.839,7.944 -2.454,9.094c0.976,0.809 1.354,0.42 5.108,-5.266c1.884,-2.852 4.004,-5.673 4.711,-6.268c4.354,-3.664 17.516,-10.934 21.44,-11.843l1.174,-0.272l0.516,6.253c0.77,9.337 2.696,15.818 4.701,15.818c0.509,-0 0.65,-1.315 0.717,-6.676l0.083,-6.676l2.054,-2.79c3.255,-4.422 5.751,-10.505 5.751,-14.018c0,-0.574 0.113,-1.043 0.251,-1.043c0.648,-0 3.159,1.567 4.673,2.915c0.925,0.824 2.344,1.723 3.154,1.998c5.237,1.779 13.935,9.372 16.778,14.647c3.972,7.367 6.401,8.15 9.735,3.141c6.184,-9.289 8.985,-11.611 17.242,-14.292c3.026,-0.982 2.942,-1.112 2.39,3.712c-0.911,7.949 -0.619,23.1 0.472,24.487c1.6,2.033 4.067,1.011 4.067,-1.684c0,-0.847 0.571,-1.738 1.877,-2.925c2.789,-2.536 2.906,-2.563 4.639,-1.041c9.526,8.364 14.781,1.889 7.797,-9.608c-2.053,-3.379 -2.066,-3.367 3.198,-2.769c8.092,0.919 9.479,2.341 13.822,14.167c1.342,3.656 2.315,4.695 3.628,3.873c3.933,-2.464 -3.508,-17.566 -13.581,-27.562l-4.435,-4.401l1.296,-2.27c3.348,-5.861 11.582,-7.954 21.18,-5.382c7.448,1.995 17.518,6.39 17.518,7.644c0,0.282 0.115,0.398 0.255,0.258c1.181,-1.181 -2.966,-5.654 -7.695,-8.299c-4.608,-2.577 -7.443,-6.836 -8.764,-13.169c-0.695,-3.33 -0.798,-3.17 1.682,-2.599c5.943,1.371 8.601,-0.089 8.601,-4.723c0,-3.718 -3.796,-7.966 -7.842,-8.775c-1.674,-0.335 -1.601,-0.858 0.38,-2.727c4.521,-4.263 13.28,-6.39 17.483,-4.246c4.305,2.196 6.261,-0.291 2.655,-3.377c-2.916,-2.496 -18.416,-6.644 -24.829,-6.644c-1.413,-0 -1.421,0.032 1.451,-5.807c4.28,-8.699 8.802,-12.538 18.088,-15.355c6.288,-1.907 14.818,-1.444 16.773,0.911c0.62,0.748 1.35,0.471 1.35,-0.512c-0,-3.229 -6.482,-6.409 -12.183,-5.977c-2.981,0.225 -3.322,0.169 -3.131,-0.511c0.118,-0.42 0.348,-1.686 0.51,-2.813c0.163,-1.128 0.706,-3.615 1.208,-5.527c1.7,-6.482 0.793,-7.621 -6.381,-8.017c-2.542,-0.14 -4.621,-0.334 -4.621,-0.431c-0,-2.403 6.354,-9.951 10.819,-12.851c5.471,-3.553 5.894,-3.944 5.305,-4.915c-0.719,-1.187 -2.119,-1.249 -4.202,-0.186l-1.812,0.925l-1.252,-0.985c-1.609,-1.266 -14.886,-6.945 -19.209,-8.217c-4.626,-1.361 -4.032,-2.641 4.396,-9.477c7.445,-6.039 12.257,-7.493 24.745,-7.475c8.58,0.012 8.652,-0.004 7.054,-1.505c-4.48,-4.208 -18.947,-3.391 -28.229,1.596c-1.456,0.782 -2.043,0.852 -4.067,0.484c-1.301,-0.236 -4.889,-0.363 -7.974,-0.28c-5.433,0.144 -5.599,0.12 -5.319,-0.762c2.474,-7.817 6.441,-15.183 9.804,-18.207c2.051,-1.844 8.118,-5.252 9.348,-5.252c0.249,-0 0.819,-0.406 1.268,-0.903c2.253,-2.489 -2.365,-3 -7.182,-0.795l-2.593,1.187l-2.037,-2.648c-1.121,-1.456 -3.069,-3.852 -4.329,-5.324c-4.395,-5.135 -1.122,-7.439 11.594,-8.158l5.01,-0.284l2.475,4.021c3.769,6.127 5.286,7.466 6.772,5.98c1.404,-1.403 -1.744,-7.064 -7.927,-14.258c-7.255,-8.44 -8.927,-11.029 -8.125,-12.579c2.631,-5.088 17.574,-8.969 25.409,-6.6l2.206,0.667l-0.839,-0.932c-4.35,-4.833 -10.181,-5.47 -19.79,-2.161c-2.348,0.809 -11.796,1.339 -11.796,0.662c-0,-0.861 2.645,-6.804 4.957,-11.137c1.527,-2.863 2.674,-5.309 2.548,-5.435c-0.476,-0.475 -4.158,2.573 -5.861,4.852c-2.188,2.928 -1.873,2.937 -9.858,-0.302c-3.625,-1.47 -8.078,-3.151 -9.895,-3.734c-3.813,-1.225 -3.821,-1.265 -1.077,-5.433c6.5,-9.871 19.893,-15.682 30.915,-13.414c2.156,0.444 1.931,-0.634 -0.625,-2.99l-2.105,-1.941l-3.703,0.243c-2.696,0.178 -5.187,0.758 -9.168,2.135c-8.273,2.863 -7.456,2.966 -12.755,-1.599c-13.719,-11.822 -13.669,-11.762 -11.501,-13.726c6.321,-5.729 20.694,-6.461 29.836,-1.521l2.391,1.292l-0,-1.049c-0,-2.542 -7.089,-7.063 -11.076,-7.063c-0.586,-0 -0.767,-0.413 -0.767,-1.751c-0,-1.833 -1.449,-6.588 -2.331,-7.651c-0.687,-0.828 -1.769,-0.788 -1.769,0.064c-0,0.477 -0.48,0.683 -1.594,0.683c-1.14,-0 -1.594,-0.202 -1.594,-0.71c-0,-0.39 -0.187,-0.595 -0.415,-0.454c-0.441,0.273 -4.281,0.805 -5.628,0.779c-0.442,-0.008 -1.34,-0.437 -1.997,-0.953c-0.656,-0.517 -1.576,-0.939 -2.043,-0.939c-0.467,-0 -0.85,-0.18 -0.85,-0.4c-0,-1.128 -2.55,-1.452 -4.574,-0.582c-3.112,1.337 -4.398,1.542 -4.702,0.751c-0.143,-0.374 -0.763,-0.68 -1.376,-0.68c-0.613,-0 -1.196,-0.244 -1.295,-0.541c-0.13,-0.39 -0.466,-0.342 -1.201,0.173c-0.823,0.577 -1.376,0.624 -2.864,0.246c-1.243,-0.315 -1.94,-0.317 -2.14,-0.007c-0.163,0.254 -0.752,0.604 -1.309,0.778c-0.557,0.173 -1.275,0.859 -1.594,1.523c-0.516,1.07 -4.21,2.778 -4.779,2.209c-1.625,-1.625 1.009,-8.933 4.731,-13.124c6.167,-6.944 10.539,-23.949 7.354,-28.61c-1.37,-2.005 -2.495,-2.541 -7.741,-3.686c-8.058,-1.758 -8.977,-2.625 -10.562,-9.967c-1.332,-6.171 -0.587,-5.52 -8.033,-7.027c-3.382,-0.685 -8.832,-1.876 -12.11,-2.648l-5.96,-1.404l-3.378,3.4c-7.158,7.204 -8.598,7.669 -8.666,2.801c-0.027,-1.959 -0.18,-4.783 -0.341,-6.276l-0.292,-2.714l-1.802,-0.373c-0.991,-0.205 -3.911,-0.751 -6.489,-1.213l-4.688,-0.841l-0.505,1.878c-0.277,1.033 -1.279,3.211 -2.227,4.839c-6.877,11.824 -7.543,14.268 -7.453,27.358l0.068,9.82l-1.947,1.232c-3.178,2.011 -5.942,5.31 -7.093,8.469c-1.002,2.747 -4.589,5.505 -7.159,5.505c-0.268,-0 -0.555,0.187 -0.639,0.415c-0.198,0.542 -3.002,0.721 -4.567,0.292c-1.67,-0.458 -2.33,0.001 -1.699,1.182c0.64,1.194 0.605,1.217 -2.436,1.574c-2.537,0.299 -2.596,0.279 -3.393,-1.112c-0.446,-0.779 -1.324,-1.532 -1.95,-1.675c-0.685,-0.156 -1.411,-0.832 -1.822,-1.697c-0.96,-2.019 -1.713,-2.072 -2.074,-0.147c-0.277,1.475 -0.444,1.624 -1.819,1.624c-0.833,-0 -2.012,0.189 -2.62,0.42c-0.824,0.314 -1.449,0.211 -2.459,-0.402c-0.744,-0.453 -2.258,-0.965 -3.365,-1.137c-1.106,-0.173 -2.729,-0.649 -3.606,-1.059c-1.36,-0.636 -5.172,-1.064 -10.07,-1.132l-1.187,-0.016m-160.984,159.931c1.124,1.641 3.368,6.953 3.066,7.256c-0.095,0.095 -1.452,-0.654 -3.015,-1.665c-1.563,-1.01 -3.534,-2.087 -4.379,-2.392c-0.846,-0.306 -1.539,-0.771 -1.541,-1.034c-0.001,-0.263 -0.31,-1.067 -0.685,-1.787c-0.962,-1.844 -2.045,-6.245 -2.045,-8.308l-0,-1.742l3.758,4.046c2.067,2.225 4.245,4.756 4.841,5.626m-13.154,5.768c5.729,1.835 10.993,4.49 13.279,6.695c0.608,0.587 2.085,1.738 3.281,2.559c3.936,2.7 2.093,5.637 -1.941,3.091c-1.015,-0.642 -2.062,-1.166 -2.325,-1.166c-0.264,-0 -0.6,-0.315 -0.748,-0.701c-0.318,-0.83 -2.498,-2.033 -3.683,-2.033c-1.542,-0 -3.73,2.472 -5.732,6.474c-1.407,2.814 -2.126,3.826 -2.471,3.481c-0.661,-0.661 -1.649,1.204 -1.314,2.481c0.55,2.107 -1.872,2.854 -3.951,1.219c-1.185,-0.932 -3.671,-5.661 -4.226,-8.038c-0.351,-1.501 -5.041,-12.202 -5.997,-13.682c-1.203,-1.861 -0.439,-2.098 5.986,-1.851c4.813,0.186 6.72,0.47 9.842,1.471m-18.186,10.893c1.427,0.602 1.826,1.162 3.235,4.539l1.606,3.853l-3.235,0.166c-2.192,0.112 -3.854,0.489 -5.154,1.169c-1.105,0.578 -2.033,0.819 -2.188,0.568c-0.148,-0.239 -2.726,-2.256 -5.729,-4.482l-5.46,-4.048l1.954,-0.787c5.103,-2.055 11.435,-2.469 14.971,-0.978m12.037,17.327c3.71,1.784 6.277,3.3 6.597,3.898c0.477,0.891 0.353,0.866 -1.393,-0.29c-2.627,-1.739 -7.162,-2.048 -9.858,-0.673c-1.584,0.808 -2.044,0.863 -3.287,0.394c-1.201,-0.453 -1.662,-0.421 -2.733,0.194c-0.808,0.464 -1.52,0.592 -1.912,0.343c-0.344,-0.217 -1.393,-0.398 -2.333,-0.402c-3.618,-0.015 0.762,-2.648 5.112,-3.073c2.968,-0.29 3.803,-0.825 3.529,-2.259c-0.26,-1.36 -0.716,-1.495 6.278,1.868m-16.171,12.55c3.079,0.938 3.174,1.903 0.474,4.833c-0.984,1.067 -2.419,3.188 -3.188,4.712c-1.56,3.089 -1.808,3.183 -5.906,2.237c-1.451,-0.335 -2.313,-0.776 -2.313,-1.184c-0,-1.105 2.997,-7.633 4.522,-9.85c1.603,-2.328 1.325,-2.296 6.411,-0.748m19.695,1.569c7.202,2.962 10.346,7.694 8.072,12.15c-1.166,2.286 -1.714,2.508 -8.389,3.396c-6.755,0.899 -13.836,2.301 -16.987,3.364c-2.784,0.938 -2.739,1.06 -1.197,-3.239c1.73,-4.821 2.445,-6.066 6.046,-10.529c1.78,-2.206 3.236,-4.214 3.236,-4.463c-0,-1.774 5.56,-2.184 9.219,-0.679m11.67,18.369c-1.027,5.497 -7.601,12.098 -24.503,24.604c-2.111,1.561 0.459,-9.563 3.761,-16.283l1.903,-3.872l2.733,-0.57c1.504,-0.313 4.476,-0.698 6.605,-0.856c2.727,-0.201 4.142,-0.522 4.783,-1.085c0.501,-0.439 1.571,-1.132 2.378,-1.54c0.807,-0.408 1.685,-1.149 1.952,-1.647c0.741,-1.385 0.828,-1.105 0.388,1.249m186.371,90.095c-4.336,2.51 -11.374,3.124 -20.422,1.78c-5.466,-0.811 -5.744,-0.7 -6.293,2.527c-0.223,1.316 -0.736,1.918 -2.836,3.334c-6.058,4.086 -10.123,8.253 -12.404,12.716c-2.35,4.601 -0.879,4.018 5.17,-2.048c5.639,-5.655 10.431,-8.984 14.963,-10.395c4.124,-1.283 17.062,-1.245 19.936,0.059c1.092,0.495 2.285,0.901 2.65,0.901c1.055,-0 0.264,1.774 -1.853,4.154c-6.269,7.049 -12.139,25.513 -9.01,28.345c2.441,2.209 3.816,0.107 5.092,-7.787c0.489,-3.019 0.627,-3.303 1.612,-3.303c0.593,-0 2.828,-0.922 4.965,-2.05c5.813,-3.066 5.993,-2.987 7.295,3.189c0.946,4.489 1.527,6.056 2.429,6.561c0.766,0.429 -2.789,6.877 -3.79,6.877c-0.81,-0 -3.987,3.525 -3.657,4.058c2.638,4.268 12.323,-7.022 16.858,-19.652c0.426,-1.186 1.119,-2.583 1.542,-3.104l0.767,-0.948l1.907,1.381c3.092,2.24 8.192,8.567 10.288,12.763l1.916,3.836l-0.088,5.274c-0.048,2.901 -0.15,6.299 -0.227,7.552c-0.125,2.025 -0.034,2.293 0.824,2.415c2.354,0.336 4.991,-5.554 4.642,-10.371l-0.188,-2.594l2.76,-2.102c2.683,-2.043 7.838,-4.736 8.259,-4.315c0.115,0.115 -0.698,2.545 -1.807,5.399c-4.831,12.433 -4.159,14.216 5.07,13.448c3.746,-0.311 4.1,0.049 1.897,1.93c-5.908,5.046 -6.239,5.562 -4.55,7.091c1.292,1.169 1.687,0.942 7.748,-4.45c6.02,-5.356 6.356,-6.007 4.001,-7.758c-1.527,-1.136 -6.11,-1.519 -9.893,-0.827c-1.378,0.253 -2.587,0.378 -2.687,0.28c-0.556,-0.55 1.682,-7.078 4.051,-11.813c2.946,-5.887 3.316,-7.759 1.806,-9.126c-1.619,-1.466 -11.074,2.261 -15.013,5.918c-1.987,1.844 -2.922,1.847 -3.586,0.009c-1.97,-5.445 -13.973,-18.437 -17.035,-18.437c-3.063,-0 -5.088,2.523 -7.218,8.992c-1.112,3.374 -2.225,4.37 -2.225,1.989c0,-2.547 -1.822,-7.333 -3.497,-9.187c-2.189,-2.423 -3.559,-2.384 -7.785,0.221c-4.338,2.675 -5.314,2.986 -4.885,1.56c1.08,-3.589 4.244,-8.392 7.398,-11.232c4.444,-4.001 4.242,-5.073 -1.426,-7.566c-2.892,-1.272 -2.937,-1.398 -1.841,-5.161c0.344,-1.181 -0.032,-1.258 -1.63,-0.333" style="fill:url(#_Radial1);"/></g><g id="svgg1" serif:id="svgg"><path id="path01" serif:id="path0" d="M243.528,289.708c-0.81,0 -7.921,-2.476 -8.482,-2.953c-1.357,-1.154 -3.656,-2.071 -4.948,-1.973c-1.013,0.078 -1.951,-0.447 -4.047,-2.263c-8.104,-7.02 -13.276,-8.831 -16.773,-5.873c-2.557,2.162 -3.251,2.321 -4.459,1.018c-0.696,-0.752 -1.225,-0.978 -1.658,-0.711c-0.362,0.224 -0.976,0.21 -1.427,-0.031c-0.435,-0.233 -1.193,-0.424 -1.684,-0.424c-0.491,-0 -0.998,-0.277 -1.128,-0.616c-0.459,-1.196 -3.646,-2.415 -4.804,-1.838c-0.686,0.342 -1.621,0.388 -2.72,0.132c-0.922,-0.214 -2.42,-0.394 -3.331,-0.4c-1.276,-0.008 -1.71,-0.223 -1.897,-0.939c-0.186,-0.71 -0.599,-0.919 -1.762,-0.889c-2.558,0.064 -5.846,-0.55 -5.846,-1.092c-0,-0.328 -0.73,-0.456 -2.019,-0.353c-1.576,0.125 -2.689,-0.169 -5.065,-1.339l-3.046,-1.499l-3.795,1.288c-3.949,1.341 -5.662,2.617 -5.662,4.216c-0,2.303 1.991,2.421 7.471,0.444c3.584,-1.293 4.301,-1.165 5.938,1.063c2.627,3.578 6.877,14.03 6.043,14.863c-0.114,0.115 -2.231,-0.224 -4.705,-0.752c-13.586,-2.899 -30.333,-0.758 -27.69,3.54c0.5,0.814 1.894,1.894 7.932,6.147c4.758,3.35 4.77,3.979 0.134,7.02c-6.976,4.577 -8.576,5.168 -14,5.168l-4.781,-0l-3.204,-2.073c-5.673,-3.669 -9.97,-4.891 -11.351,-3.226c-0.667,0.803 -0.027,1.344 3.643,3.08c8.785,4.155 19.538,13.985 19.538,17.862c0,0.103 -4.253,0.291 -9.452,0.419c-13.46,0.331 -23.468,2.488 -25.344,5.463c-0.875,1.386 1.283,3.073 3.93,3.073c6.128,-0 16.068,11.46 18.304,21.106l0.3,1.29l-2.885,-0.308c-5.725,-0.614 -9.451,1.454 -9.451,5.245c-0,2.743 -0.307,2.849 -4.271,1.471c-4.566,-1.588 -9.272,-1.871 -10.761,-0.647c-1.726,1.42 -0.501,2.335 4.177,3.121c6.278,1.055 10.703,3.703 18.064,10.809c2.489,2.403 4.179,4.624 4.179,5.492c-0,0.137 -3.228,0.257 -7.174,0.266c-14.949,0.033 -26.217,4.12 -21.966,7.968c0.9,0.814 1.022,0.804 4.543,-0.385c5.338,-1.802 6.734,-1.564 10.704,1.824c1.002,0.855 2.078,1.758 2.391,2.006c0.843,0.667 0.699,1.12 -0.534,1.682c-2.672,1.218 -8.918,7.406 -8.918,8.836c-0,1.142 -0.138,1.323 -0.797,1.042c-3.486,-1.488 -4.708,-1.778 -5.467,-1.299c-1.637,1.032 -0.902,2.119 3.076,4.55c8.146,4.979 13.504,13.767 14.375,23.575l0.318,3.58l-1.994,-0.319c-2.063,-0.33 -11.44,-3.114 -17.027,-5.055c-6.432,-2.234 -7.458,-1.392 -4.876,4.002c2.743,5.73 2.797,6.283 0.613,6.283c-2.083,-0 -3.228,0.982 -2.361,2.027c1.027,1.236 3.645,1.724 8.266,1.538c4.362,-0.175 4.498,-0.151 4.22,0.746c-0.75,2.426 -3.003,6.163 -4.357,7.227c-0.828,0.651 -1.863,1.498 -2.302,1.883c-0.997,0.876 -2.164,0.907 -2.164,0.058c-0,-2.21 -12.733,-15.301 -14.883,-15.301c-3.296,-0 -4.36,5.633 -2.391,12.652c1.14,4.063 1.348,3.833 -2.54,2.813c-2.313,-0.606 -4.879,-0.841 -9.339,-0.853c-13.063,-0.035 -16.48,2.395 -11.669,8.301c3.316,4.072 3.262,4.218 -1.481,4.033c-7.726,-0.3 -17.369,3.578 -17.369,6.986c-0,1.307 10.794,10.435 13.346,11.285c0.286,0.096 -1.165,2.053 -3.224,4.35c-2.826,3.152 -3.745,4.493 -3.745,5.467c-0,1.316 1.602,3.272 2.679,3.272c0.868,-0 0.251,1.587 -2.215,5.694c-2.663,4.437 -5.475,10.005 -5.475,10.842c-0,1.883 5.655,3.962 10.776,3.962c1.298,-0 1.541,0.145 1.343,0.797c-2.629,8.679 0.447,12.685 7.292,9.498c3.114,-1.45 5.418,-1.961 5.057,-1.122c-6.979,16.197 -7.556,24.535 -1.697,24.535c1.875,-0 2.379,-0.295 8.367,-4.893c12.612,-9.687 16.013,-12.781 19.772,-17.996l1.56,-2.164l3.575,-0c1.966,-0 3.676,0.165 3.801,0.367c0.367,0.594 -3.653,8.217 -6.109,11.582c-2.499,3.425 -2.65,3.959 -1.43,5.062c1.027,0.93 1.904,0.951 3.571,0.083c0.709,-0.369 2.05,-1.004 2.979,-1.409c0.928,-0.406 3.104,-1.927 4.833,-3.379c3.016,-2.532 5.034,-3.895 5.293,-3.574c3.936,4.883 -0.26,22.805 -6.235,26.628c-1.925,1.231 -2.111,1.942 -0.816,3.115c1.787,1.617 2.181,1.342 15.679,-10.916c2.759,-2.506 5.642,-5.459 6.407,-6.564c0.766,-1.104 1.892,-2.615 2.504,-3.358l1.112,-1.35l0.818,1.01c3.65,4.508 5.752,22.138 3.571,29.957c-1.343,4.816 -1.104,6.497 0.923,6.497c1.875,-0 4.369,-6.133 4.862,-11.957c0.143,-1.691 0.472,-3.075 0.731,-3.075c0.259,-0 2.051,-1.537 3.981,-3.416c4.315,-4.2 4.222,-4.202 5.349,0.113c1.746,6.689 1.721,7.503 -0.256,8.431c-3.132,1.47 -5.985,3.931 -7.383,6.37c-2.535,4.42 -1.621,5.209 2.033,1.753c5.929,-5.607 19.168,-10.056 33.388,-11.219l3.779,-0.309l-0.316,1.302c-0.174,0.716 -0.795,2.397 -1.381,3.735c-4.186,9.568 -7.969,27.751 -6.122,29.423c2.232,2.02 3.798,-0.171 5.359,-7.493l1.214,-5.696l2.993,-1.453c1.647,-0.798 4.737,-1.774 6.866,-2.167c2.13,-0.394 4.2,-0.818 4.601,-0.944c0.62,-0.193 0.77,0.399 0.999,3.938c0.311,4.801 1.207,6.331 3.704,6.327c1.319,-0.002 2.072,-0.371 5.002,-2.451c1.585,-1.125 1.676,-0.976 1.963,3.216l0.244,3.566l-2.128,2.367c-1.17,1.302 -3.963,3.831 -6.207,5.62c-4.066,3.243 -4.748,4.327 -3.417,5.431c3.088,2.563 22.57,-17.257 22.57,-22.959c-0,-1.529 1.885,-0.321 3.319,2.127c4.477,7.642 6.521,15.459 6.943,26.544c0.321,8.462 0.532,9.339 2.25,9.339c3.249,-0 4.42,-10.944 2.245,-20.979c-0.461,-2.124 7.513,-5.201 16.441,-6.346c2.538,-0.325 5.228,-1.022 7.074,-1.832l2.979,-1.308l11.602,-0.15c13.098,-0.169 13.479,-0.254 13.935,-3.108c0.335,-2.095 0.363,-2.105 2.396,-0.866l1.539,0.939l3.795,-2.526c8.986,-5.98 17.041,-16.341 17.041,-21.92c-0,-0.693 0.261,-1.122 0.683,-1.122c0.513,-0 0.683,0.549 0.683,2.207c0,3.199 1.448,6.926 4.55,11.715c2.338,3.608 3.65,6.065 3.65,6.834c0,0.109 -1.281,0.198 -2.846,0.198c-6.099,-0 -25.264,10.336 -23.127,12.473c0.735,0.735 0.541,2.2 -0.519,3.926c-3.025,4.928 -3.839,7.944 -2.454,9.094c0.976,0.809 1.354,0.42 5.108,-5.266c1.884,-2.852 4.004,-5.673 4.711,-6.268c4.354,-3.664 17.516,-10.934 21.44,-11.843l1.174,-0.272l0.516,6.253c0.77,9.337 2.696,15.818 4.701,15.818c0.509,-0 0.65,-1.315 0.717,-6.676l0.083,-6.676l2.054,-2.79c3.255,-4.422 5.751,-10.505 5.751,-14.018c0,-0.574 0.113,-1.043 0.251,-1.043c0.648,-0 3.159,1.567 4.673,2.915c0.925,0.824 2.344,1.723 3.154,1.998c5.237,1.779 13.935,9.372 16.778,14.647c3.972,7.367 6.401,8.15 9.735,3.141c6.184,-9.289 8.985,-11.611 17.242,-14.292c3.026,-0.982 2.942,-1.112 2.39,3.712c-0.911,7.949 -0.619,23.1 0.472,24.487c1.6,2.033 4.067,1.011 4.067,-1.684c0,-0.847 0.571,-1.738 1.877,-2.925c2.789,-2.536 2.906,-2.563 4.639,-1.041c9.526,8.364 14.781,1.889 7.797,-9.608c-2.053,-3.379 -2.066,-3.367 3.198,-2.769c8.092,0.919 9.479,2.341 13.822,14.167c1.342,3.656 2.315,4.695 3.628,3.873c3.933,-2.464 -3.508,-17.566 -13.581,-27.562l-4.435,-4.401l1.296,-2.27c3.348,-5.861 11.582,-7.954 21.18,-5.382c7.448,1.995 17.518,6.39 17.518,7.644c0,0.282 0.115,0.398 0.255,0.258c1.181,-1.181 -2.966,-5.654 -7.695,-8.299c-4.608,-2.577 -7.443,-6.836 -8.764,-13.169c-0.695,-3.33 -0.798,-3.17 1.682,-2.599c5.943,1.371 8.601,-0.089 8.601,-4.723c0,-3.718 -3.796,-7.966 -7.842,-8.775c-1.674,-0.335 -1.601,-0.858 0.38,-2.727c4.521,-4.263 13.28,-6.39 17.483,-4.246c4.305,2.196 6.261,-0.291 2.655,-3.377c-2.916,-2.496 -18.416,-6.644 -24.829,-6.644c-1.413,-0 -1.421,0.032 1.451,-5.807c4.28,-8.699 8.802,-12.538 18.088,-15.355c6.288,-1.907 14.818,-1.444 16.773,0.911c0.62,0.748 1.35,0.471 1.35,-0.512c-0,-3.229 -6.482,-6.409 -12.183,-5.977c-2.981,0.225 -3.322,0.169 -3.131,-0.511c0.118,-0.42 0.348,-1.686 0.51,-2.813c0.163,-1.128 0.706,-3.615 1.208,-5.527c1.7,-6.482 0.793,-7.621 -6.381,-8.017c-2.542,-0.14 -4.621,-0.334 -4.621,-0.431c-0,-2.403 6.354,-9.951 10.819,-12.851c5.471,-3.553 5.894,-3.944 5.305,-4.915c-0.719,-1.187 -2.119,-1.249 -4.202,-0.186l-1.812,0.925l-1.252,-0.985c-1.609,-1.266 -14.886,-6.945 -19.209,-8.217c-4.626,-1.361 -4.032,-2.641 4.396,-9.477c7.445,-6.039 12.257,-7.493 24.745,-7.475c8.58,0.012 8.652,-0.004 7.054,-1.505c-4.48,-4.208 -18.947,-3.391 -28.229,1.596c-1.456,0.782 -2.043,0.852 -4.067,0.484c-1.301,-0.236 -4.889,-0.363 -7.974,-0.28c-5.433,0.144 -5.599,0.12 -5.319,-0.762c2.474,-7.817 6.441,-15.183 9.804,-18.207c2.051,-1.844 8.118,-5.252 9.348,-5.252c0.249,-0 0.819,-0.406 1.268,-0.903c2.253,-2.489 -2.365,-3 -7.182,-0.795l-2.593,1.187l-2.037,-2.648c-1.121,-1.456 -3.069,-3.852 -4.329,-5.324c-4.395,-5.135 -1.122,-7.439 11.594,-8.158l5.01,-0.284l2.475,4.021c3.769,6.127 5.286,7.466 6.772,5.98c1.404,-1.403 -1.744,-7.064 -7.927,-14.258c-7.255,-8.44 -8.927,-11.029 -8.125,-12.579c2.631,-5.088 17.574,-8.969 25.409,-6.6l2.206,0.667l-0.839,-0.932c-4.35,-4.833 -10.181,-5.47 -19.79,-2.161c-2.348,0.809 -11.796,1.339 -11.796,0.662c-0,-0.861 2.645,-6.804 4.957,-11.137c1.527,-2.863 2.674,-5.309 2.548,-5.435c-0.476,-0.475 -4.158,2.573 -5.861,4.852c-2.188,2.928 -1.873,2.937 -9.858,-0.302c-3.625,-1.47 -8.078,-3.151 -9.895,-3.734c-3.813,-1.225 -3.821,-1.265 -1.077,-5.433c6.5,-9.871 19.893,-15.682 30.915,-13.414c2.156,0.444 1.931,-0.634 -0.625,-2.99l-2.105,-1.941l-3.703,0.243c-2.696,0.178 -5.187,0.758 -9.168,2.135c-8.273,2.863 -7.456,2.966 -12.755,-1.599c-13.719,-11.822 -13.669,-11.762 -11.501,-13.726c6.321,-5.729 20.694,-6.461 29.836,-1.521l2.391,1.292l-0,-1.049c-0,-2.542 -7.089,-7.063 -11.076,-7.063c-0.586,-0 -0.767,-0.413 -0.767,-1.751c-0,-1.833 -1.449,-6.588 -2.331,-7.651c-0.687,-0.828 -1.769,-0.788 -1.769,0.064c-0,0.477 -0.48,0.683 -1.594,0.683c-1.14,-0 -1.594,-0.202 -1.594,-0.71c-0,-0.39 -0.187,-0.595 -0.415,-0.454c-0.441,0.273 -4.281,0.805 -5.628,0.779c-0.442,-0.008 -1.34,-0.437 -1.997,-0.953c-0.656,-0.517 -1.576,-0.939 -2.043,-0.939c-0.467,-0 -0.85,-0.18 -0.85,-0.4c-0,-1.128 -2.55,-1.452 -4.574,-0.582c-3.112,1.337 -4.398,1.542 -4.702,0.751c-0.143,-0.374 -0.763,-0.68 -1.376,-0.68c-0.613,-0 -1.196,-0.244 -1.295,-0.541c-0.13,-0.39 -0.466,-0.342 -1.201,0.173c-0.823,0.577 -1.376,0.624 -2.864,0.246c-1.243,-0.315 -1.94,-0.317 -2.14,-0.007c-0.163,0.254 -0.752,0.604 -1.309,0.778c-0.557,0.173 -1.275,0.859 -1.594,1.523c-0.516,1.07 -4.21,2.778 -4.779,2.209c-1.625,-1.625 1.009,-8.933 4.731,-13.124c6.167,-6.944 10.539,-23.949 7.354,-28.61c-1.37,-2.005 -2.495,-2.541 -7.741,-3.686c-8.058,-1.758 -8.977,-2.625 -10.562,-9.967c-1.332,-6.171 -0.587,-5.52 -8.033,-7.027c-3.382,-0.685 -8.832,-1.876 -12.11,-2.648l-5.96,-1.404l-3.378,3.4c-7.158,7.204 -8.598,7.669 -8.666,2.801c-0.027,-1.959 -0.18,-4.783 -0.341,-6.276l-0.292,-2.714l-1.802,-0.373c-0.991,-0.205 -3.911,-0.751 -6.489,-1.213l-4.688,-0.841l-0.505,1.878c-0.277,1.033 -1.279,3.211 -2.227,4.839c-6.877,11.824 -7.543,14.268 -7.453,27.358l0.068,9.82l-1.947,1.232c-3.178,2.011 -5.942,5.31 -7.093,8.469c-1.002,2.747 -4.589,5.505 -7.159,5.505c-0.268,-0 -0.555,0.187 -0.639,0.415c-0.198,0.542 -3.002,0.721 -4.567,0.292c-1.67,-0.458 -2.33,0.001 -1.699,1.182c0.64,1.194 0.605,1.217 -2.436,1.574c-2.537,0.299 -2.596,0.279 -3.393,-1.112c-0.446,-0.779 -1.324,-1.532 -1.95,-1.675c-0.685,-0.156 -1.411,-0.832 -1.822,-1.697c-0.96,-2.019 -1.713,-2.072 -2.074,-0.147c-0.277,1.475 -0.444,1.624 -1.819,1.624c-0.833,-0 -2.012,0.189 -2.62,0.42c-0.824,0.314 -1.449,0.211 -2.459,-0.402c-0.744,-0.453 -2.258,-0.965 -3.365,-1.137c-1.106,-0.173 -2.729,-0.649 -3.606,-1.059c-1.36,-0.636 -5.172,-1.064 -10.07,-1.132l-1.187,-0.016m-160.984,159.931c1.124,1.641 3.368,6.953 3.066,7.256c-0.095,0.095 -1.452,-0.654 -3.015,-1.665c-1.563,-1.01 -3.534,-2.087 -4.379,-2.392c-0.846,-0.306 -1.539,-0.771 -1.541,-1.034c-0.001,-0.263 -0.31,-1.067 -0.685,-1.787c-0.962,-1.844 -2.045,-6.245 -2.045,-8.308l-0,-1.742l3.758,4.046c2.067,2.225 4.245,4.756 4.841,5.626m-13.154,5.768c5.729,1.835 10.993,4.49 13.279,6.695c0.608,0.587 2.085,1.738 3.281,2.559c3.936,2.7 2.093,5.637 -1.941,3.091c-1.015,-0.642 -2.062,-1.166 -2.325,-1.166c-0.264,-0 -0.6,-0.315 -0.748,-0.701c-0.318,-0.83 -2.498,-2.033 -3.683,-2.033c-1.542,-0 -3.73,2.472 -5.732,6.474c-1.407,2.814 -2.126,3.826 -2.471,3.481c-0.661,-0.661 -1.649,1.204 -1.314,2.481c0.55,2.107 -1.872,2.854 -3.951,1.219c-1.185,-0.932 -3.671,-5.661 -4.226,-8.038c-0.351,-1.501 -5.041,-12.202 -5.997,-13.682c-1.203,-1.861 -0.439,-2.098 5.986,-1.851c4.813,0.186 6.72,0.47 9.842,1.471m-18.186,10.893c1.427,0.602 1.826,1.162 3.235,4.539l1.606,3.853l-3.235,0.166c-2.192,0.112 -3.854,0.489 -5.154,1.169c-1.105,0.578 -2.033,0.819 -2.188,0.568c-0.148,-0.239 -2.726,-2.256 -5.729,-4.482l-5.46,-4.048l1.954,-0.787c5.103,-2.055 11.435,-2.469 14.971,-0.978m12.037,17.327c3.71,1.784 6.277,3.3 6.597,3.898c0.477,0.891 0.353,0.866 -1.393,-0.29c-2.627,-1.739 -7.162,-2.048 -9.858,-0.673c-1.584,0.808 -2.044,0.863 -3.287,0.394c-1.201,-0.453 -1.662,-0.421 -2.733,0.194c-0.808,0.464 -1.52,0.592 -1.912,0.343c-0.344,-0.217 -1.393,-0.398 -2.333,-0.402c-3.618,-0.015 0.762,-2.648 5.112,-3.073c2.968,-0.29 3.803,-0.825 3.529,-2.259c-0.26,-1.36 -0.716,-1.495 6.278,1.868m-16.171,12.55c3.079,0.938 3.174,1.903 0.474,4.833c-0.984,1.067 -2.419,3.188 -3.188,4.712c-1.56,3.089 -1.808,3.183 -5.906,2.237c-1.451,-0.335 -2.313,-0.776 -2.313,-1.184c-0,-1.105 2.997,-7.633 4.522,-9.85c1.603,-2.328 1.325,-2.296 6.411,-0.748m19.695,1.569c7.202,2.962 10.346,7.694 8.072,12.15c-1.166,2.286 -1.714,2.508 -8.389,3.396c-6.755,0.899 -13.836,2.301 -16.987,3.364c-2.784,0.938 -2.739,1.06 -1.197,-3.239c1.73,-4.821 2.445,-6.066 6.046,-10.529c1.78,-2.206 3.236,-4.214 3.236,-4.463c-0,-1.774 5.56,-2.184 9.219,-0.679m11.67,18.369c-1.027,5.497 -7.601,12.098 -24.503,24.604c-2.111,1.561 0.459,-9.563 3.761,-16.283l1.903,-3.872l2.733,-0.57c1.504,-0.313 4.476,-0.698 6.605,-0.856c2.727,-0.201 4.142,-0.522 4.783,-1.085c0.501,-0.439 1.571,-1.132 2.378,-1.54c0.807,-0.408 1.685,-1.149 1.952,-1.647c0.741,-1.385 0.828,-1.105 0.388,1.249m186.371,90.095c-4.336,2.51 -11.374,3.124 -20.422,1.78c-5.466,-0.811 -5.744,-0.7 -6.293,2.527c-0.223,1.316 -0.736,1.918 -2.836,3.334c-6.058,4.086 -10.123,8.253 -12.404,12.716c-2.35,4.601 -0.879,4.018 5.17,-2.048c5.639,-5.655 10.431,-8.984 14.963,-10.395c4.124,-1.283 17.062,-1.245 19.936,0.059c1.092,0.495 2.285,0.901 2.65,0.901c1.055,-0 0.264,1.774 -1.853,4.154c-6.269,7.049 -12.139,25.513 -9.01,28.345c2.441,2.209 3.816,0.107 5.092,-7.787c0.489,-3.019 0.627,-3.303 1.612,-3.303c0.593,-0 2.828,-0.922 4.965,-2.05c5.813,-3.066 5.993,-2.987 7.295,3.189c0.946,4.489 1.527,6.056 2.429,6.561c0.766,0.429 -2.789,6.877 -3.79,6.877c-0.81,-0 -3.987,3.525 -3.657,4.058c2.638,4.268 12.323,-7.022 16.858,-19.652c0.426,-1.186 1.119,-2.583 1.542,-3.104l0.767,-0.948l1.907,1.381c3.092,2.24 8.192,8.567 10.288,12.763l1.916,3.836l-0.088,5.274c-0.048,2.901 -0.15,6.299 -0.227,7.552c-0.125,2.025 -0.034,2.293 0.824,2.415c2.354,0.336 4.991,-5.554 4.642,-10.371l-0.188,-2.594l2.76,-2.102c2.683,-2.043 7.838,-4.736 8.259,-4.315c0.115,0.115 -0.698,2.545 -1.807,5.399c-4.831,12.433 -4.159,14.216 5.07,13.448c3.746,-0.311 4.1,0.049 1.897,1.93c-5.908,5.046 -6.239,5.562 -4.55,7.091c1.292,1.169 1.687,0.942 7.748,-4.45c6.02,-5.356 6.356,-6.007 4.001,-7.758c-1.527,-1.136 -6.11,-1.519 -9.893,-0.827c-1.378,0.253 -2.587,0.378 -2.687,0.28c-0.556,-0.55 1.682,-7.078 4.051,-11.813c2.946,-5.887 3.316,-7.759 1.806,-9.126c-1.619,-1.466 -11.074,2.261 -15.013,5.918c-1.987,1.844 -2.922,1.847 -3.586,0.009c-1.97,-5.445 -13.973,-18.437 -17.035,-18.437c-3.063,-0 -5.088,2.523 -7.218,8.992c-1.112,3.374 -2.225,4.37 -2.225,1.989c0,-2.547 -1.822,-7.333 -3.497,-9.187c-2.189,-2.423 -3.559,-2.384 -7.785,0.221c-4.338,2.675 -5.314,2.986 -4.885,1.56c1.08,-3.589 4.244,-8.392 7.398,-11.232c4.444,-4.001 4.242,-5.073 -1.426,-7.566c-2.892,-1.272 -2.937,-1.398 -1.841,-5.161c0.344,-1.181 -0.032,-1.258 -1.63,-0.333" style="fill:url(#_Radial2);"/></g><defs><radialGradient id="_Radial1" cx="0" cy="0" r="1" gradientUnits="userSpaceOnUse" gradientTransform="matrix(612.622,-54.5129,21,236,393,521)"><stop offset="0" style="stop-color:#020f2d;stop-opacity:1"/><stop offset="0.62" style="stop-color:#020f2d;stop-opacity:0.83"/><stop offset="0.82" style="stop-color:#020f2d;stop-opacity:0.43"/><stop offset="1" style="stop-color:#020f2d;stop-opacity:0"/></radialGradient><radialGradient id="_Radial2" cx="0" cy="0" r="1" gradientUnits="userSpaceOnUse" gradientTransform="matrix(333,-8,8.14271,338.94,328,315)"><stop offset="0" style="stop-color:#007056;stop-opacity:0"/><stop offset="0.62" style="stop-color:#007056;stop-opacity:0.17"/><stop offset="0.82" style="stop-color:#007056;stop-opacity:0.57"/><stop offset="1" style="stop-color:#007056;stop-opacity:1"/></radialGradient></defs></svg>