<?xml version="1.0" encoding="UTF-8" standalone="no"?><!DOCTYPE svg PUBLIC "-//W3C//DTD SVG 1.1//EN" "http://www.w3.org/Graphics/SVG/1.1/DTD/svg11.dtd"><svg width="100%" height="100%" viewBox="0 0 512 709" version="1.1" xmlns="http://www.w3.org/2000/svg" xmlns:xlink="http://www.w3.org/1999/xlink" xml:space="preserve" xmlns:serif="http://www.serif.com/" style="fill-rule:evenodd;clip-rule:evenodd;stroke-linejoin:round;stroke-miterlimit:2;"><path d="M326,341l30,19l-8,13l-51,55l2,22l-19,-8l-34,2l10,-35l37,-53l12,3" style="fill:#fff;"/><path d="M369,413l11,1l1,18l-10,1l-2,-20Z" style="fill:#acacac;"/><path d="M353,362l17,-4l-3,18l20,8l-18,14l7,13l-10,7l10,9l-13,7l-46,-1l-15,10l-7,-15l40,-37l18,-29Z" style="fill:#d4875e;"/><path d="M315,434l62,0l-3,29l-11,8l23.631,21.082l20.382,55.435l-13.067,9.78l-2.946,-24.297l-103,7l-7,6l-7,-9l2,-15l28,-80l11,-8Z" style="fill:#a21300;"/><path d="M308,514l39,-4l12,33l-5,8l2,9l-8,12l-33,15l-3,-5l0,-10l-13,-28l9,-30Z" style="fill:#ca3420;"/><path d="M345.514,509.231c1.469,22.039 4.395,22.92 -4.179,40.068c-3.501,7.001 -27.576,22.502 -29.375,27.9c-0.57,1.709 -3.002,5.479 0.491,8.973c1.294,1.293 8.97,1.477 9.71,0.737c0.011,-0.011 2.461,-0.617 4.056,-2.212c5.988,-5.988 7.417,-3.463 14.995,-7.252c2.357,-1.178 11.188,-7.013 13.274,-11.184c1.535,-3.071 3.235,-4.553 1.844,-8.727c-1.933,-5.796 -0.718,-11.204 0.614,-12.537c0.464,-0.463 -0.064,-0.733 3.319,-7.497c-1.062,-3.981 -3.194,-8.109 -7.178,-15.157c-4.176,-7.384 -7.788,-16.368 -7.571,-13.112Z" style="fill:#a21300;"/><path d="M302.069,453.759c7.587,-0 7.678,-0.09 15.61,-4.056c6.002,-3.002 5.425,-4.917 12.167,-4.917c6.465,0 6.651,-1.174 12.66,1.229c3.319,1.328 11.184,2.114 12.168,2.213c1.391,0.139 15.196,1.519 17.453,-0.738c1.628,-1.628 4.91,0.155 6.268,-6.637c0.199,-0.993 -4.081,-6.317 -6.637,-6.637c-20.503,-2.563 -33.107,-0.994 -38.47,-2.335c-0.329,-0.082 -15.084,-1.615 -16.101,-1.106c-5.834,2.916 -7.133,1.857 -8.727,6.637c-0.389,1.168 -2.936,2.185 -4.301,4.916c-0.831,1.662 -1.358,1.38 -1.721,3.196c-0.018,0.089 -0.082,0.164 -0.123,0.245c-0.041,0.082 -1.844,7.99 -0.246,7.99Z" style="fill:#ca3420;"/><path d="M346.499,462.198c18.337,-0 23.968,-0.247 26.426,-3.933c4.687,-7.031 -6.179,-3.263 -9.587,-2.581c-4.328,0.865 -12.407,5.037 -16.839,6.514Z" style="fill:#ca3420;"/><path d="M300,459l34,3l30,9l18,16l21,8l9,13l1,28l-16,18c0.497,-1.168 3.141,-9.275 3.492,-17.492l-9.492,-25.508l-36,-3l-75,10c-2.427,0.656 -5.734,12.406 -5,20l-3.996,-8.481l-2.004,-25.519l13,-27l18,-18Z" style="fill:#ca3420;"/><path d="M325,476l17,14l40,14l11,14l-3,15l-13,-1l-11,-8l-9.789,-17.775l-8.211,3.775l5,10l14.284,7.284l15.716,22.716l-4,4l2,18l-17,0l-10.91,-5l1.723,-16.752l3.734,-12.45l-13.229,-27.689l-39.014,5.224l-5.304,27.667l-16,-4l-3,-22l19,-6l24,-35Z" style="fill:#aa5b30;"/><path d="M322,585l33.059,-16.906l13.941,6.906l6,16l-11,42l-6,4l-35,-34l-1,-18Z" style="fill:#c17348;"/><path d="M374,520l6,5l-22,56l-6,-3" style="fill:#cc592c;"/><path d="M351,579l13,-1l0,6l-9,9l-2,23l-33,12l-1,-9l12,-2l6,-21" style="fill:#fdac80;"/><path d="M356,589l3,5l-3,3" style="fill:#acacac;"/><path d="M332,597l14,-7l3,17l-13,10l1,2l14,-1l7,16l-10,16l-11,-3l-6,-23l-1,-25" style="fill:#acacac;"/><g id="svgg"><path id="path0" d="M325.064,338.928c-4.756,1.189 -11.11,6.279 -18.661,14.95l-2.131,2.448l-1.827,-1.209c-1.846,-1.222 -5.189,-2.092 -8.034,-2.092c-6.474,0 -17.99,14.792 -29.696,38.142c-1.518,3.029 -4.788,8.754 -7.266,12.722c-11.214,17.957 -13.465,23.714 -14.051,35.942c-0,0 -0.448,4.813 -0.289,6.024c0.076,0.581 0.024,1.433 0.439,1.848c0.414,0.415 1.466,0.578 2.049,0.64c1.511,0.16 7.821,-0.284 7.821,-0.284c4.301,-0.157 9.153,-0.497 10.781,-0.757c4.357,-0.696 14.715,-3.217 15.374,-3.742c0.364,-0.291 0.774,-0.297 1.139,-0.019c0.313,0.24 2.004,1.569 3.758,2.953c1.753,1.385 5.238,3.797 7.744,5.359c4.667,2.912 6.149,4.192 6.149,5.313c-0,0.879 -6.403,7.519 -10.115,10.489c-6.954,5.564 -14.855,17.284 -18.686,27.719c-3.745,10.2 -3.737,10.156 -3.744,19.587l-0.006,8.655l1.662,4.099c0.914,2.255 1.797,4.92 1.963,5.922c0.534,3.232 4.477,10.691 7.284,13.779c3.417,3.761 4.723,3.866 7.95,0.64c1.214,-1.215 3.483,-3.06 5.042,-4.101l2.834,-1.892l1.557,1.367c0.857,0.752 2.012,1.367 2.567,1.366c0.965,-0.001 1.002,0.147 0.859,3.42c-0.249,5.683 1.963,11.337 6.09,15.565c1.814,1.858 2.487,2.891 2.487,3.823c0,2.121 0.829,3.755 2.78,5.482c1.817,1.608 1.845,1.677 1.362,3.416c-2.231,8.035 0.575,13.107 6.778,12.254l2.234,-0.307l0.226,1.519c0.124,0.836 0.439,3.462 0.7,5.837c0.643,5.856 2.35,9.397 5.525,11.454l2.26,1.464l0,2.656c0,2.45 -0.08,2.657 -1.025,2.662c-0.564,0.003 -1.85,0.477 -2.857,1.053c-1.807,1.034 -1.858,1.037 -3.645,0.235c-4.57,-2.053 -7.573,0.534 -5.431,4.676c0.686,1.327 0.664,1.42 -0.683,2.954c-2.235,2.546 -1.308,6.559 1.517,6.565c0.279,0.001 0.53,0.618 0.557,1.373c0.123,3.454 3.394,4.229 6.217,1.473c1.344,-1.313 2.139,-1.72 3.435,-1.758c0.928,-0.028 1.957,-0.131 2.287,-0.228c0.416,-0.123 0.925,1.08 1.661,3.922c3.316,12.824 7.791,18.692 13.409,17.586c1.403,-0.276 4.07,-0.695 5.927,-0.931c4.147,-0.528 4.642,-0.974 6.632,-5.985c1.331,-3.351 1.683,-3.858 2.894,-4.172c0.837,-0.217 2.154,-1.279 3.349,-2.701c1.083,-1.289 3.148,-3.539 4.588,-5c2.232,-2.264 2.623,-2.91 2.643,-4.371c0.013,-0.943 0.525,-3.559 1.137,-5.814c2.568,-9.455 3.422,-13.108 4.58,-19.587c2.182,-12.213 2.113,-13.297 -1.072,-16.702c-2.073,-2.216 -2.083,-2.241 -1.122,-2.914c0.851,-0.596 1.429,-2.037 2.786,-6.944l0.29,-1.052l1.961,1.42c6.937,5.026 10.081,-11.288 4.2,-21.796c-0.292,-0.522 0.053,-0.905 1.428,-1.585c0.996,-0.493 1.916,-1.169 2.044,-1.501c0.364,-0.948 -3.011,-8.63 -5.028,-11.447c-1.001,-1.398 -1.579,-2.393 -1.285,-2.211c1.61,0.995 7.054,-0.292 9.061,-2.141c1.942,-1.791 1.973,-1.801 1.47,-0.503c-2.537,6.554 0.835,24.512 4.789,25.504c4.339,1.09 16.795,-15.211 19.941,-26.095c1.339,-4.633 1.469,-17.838 0.23,-23.364c-2.48,-11.058 -10.021,-19.797 -20.519,-23.78c-1.302,-0.494 -2.41,-0.94 -2.463,-0.992c-0.052,-0.052 0.514,-2.135 1.259,-4.629c0.745,-2.494 1.904,-6.426 2.575,-8.736c0.672,-2.311 1.289,-4.134 1.372,-4.051c0.083,0.083 0.564,1.64 1.068,3.46c2.559,9.233 7.17,11.985 10.166,6.067c1.245,-2.457 0.955,-3.879 -1.348,-6.619c-3.455,-4.108 -5.581,-8.446 -5.08,-10.363c0.624,-2.387 -0.27,-4.938 -1.847,-5.27c-0.68,-0.143 -1.592,-0.452 -2.027,-0.687c-1.921,-1.04 -2.916,-0.527 -4.663,2.407c-1.829,3.07 -5.25,10.953 -5.25,12.096c0,0.387 -0.996,2.977 -2.213,5.755c-1.216,2.777 -2.34,5.416 -2.497,5.863c-0.363,1.037 -1.907,0.313 -5.722,-2.682c-1.403,-1.101 -2.719,-2.002 -2.926,-2.002c-0.206,-0.001 -2.094,-1.574 -4.196,-3.498l-3.821,-3.497l1.691,-0.763c7.997,-3.606 7.73,-3.412 9.263,-6.714c1.619,-3.486 1.828,-6.187 0.688,-8.913c-0.707,-1.691 -0.696,-1.795 0.346,-3.189c2.81,-3.759 4.461,-10.016 3.343,-12.664l-0.7,-1.656l1.815,-2.196c4.314,-5.22 4.298,-7.344 -0.126,-17.039c-1.773,-3.883 -4.112,-9.073 -5.2,-11.533c-1.087,-2.46 -2.601,-5.432 -3.364,-6.604l-1.387,-2.133l2.337,-0.794c10.648,-3.619 15.765,-8.598 13.164,-12.808c-2.801,-4.532 -6.864,-6.976 -14.161,-8.517c-2.63,-0.555 -4.829,-1.045 -4.886,-1.088c-0.057,-0.044 0.295,-1.126 0.781,-2.405c1.158,-3.047 2.739,-10.864 2.739,-13.541c0,-4.966 -5.251,-5.392 -14.226,-1.154c-1.213,0.572 -1.344,0.485 -5.407,-3.598c-10.448,-10.497 -21.676,-16.277 -28.371,-14.605m10.102,8.183c7.124,3.616 19.327,13.202 16.805,13.202c-1.033,0 -2.922,2.372 -4.898,6.15c-2.169,4.147 -3.065,5.517 -8.792,13.437c-6.027,8.337 -8.795,11.635 -17.062,20.323l-7.435,7.815l-2.358,-0.609c-7.894,-2.039 -19.781,-1.631 -19.342,0.663c0.115,0.607 1.093,0.783 5.66,1.017c5.566,0.287 12.633,1.539 12.374,2.194c-0.375,0.951 -6.217,5.509 -12.065,9.413c-3.792,2.532 -6.545,4.673 -6.577,5.115c-0.099,1.402 0.113,2.123 0.776,2.637c1.084,0.841 -0.544,2.285 -3.91,3.467c-3.539,1.243 -4.216,2.75 -1.345,2.991c1.314,0.11 1.712,0.387 2.123,1.476c0.665,1.762 2.438,2.411 5.624,2.059l2.53,-0.28l-0.343,3.088c-0.189,1.698 -0.354,3.462 -0.367,3.921c-0.075,2.681 -19.291,-13.693 -26.905,-22.927c-1.343,-1.628 -2.279,-2.551 -2.081,-2.049c0.199,0.501 0.836,2.284 1.417,3.962c0.581,1.679 2.097,5.131 3.369,7.671c1.272,2.541 2.312,4.97 2.312,5.399c0,0.428 0.231,1.009 0.514,1.292c0.542,0.542 0.098,0.704 -5.98,2.171c-2.703,0.652 -5.972,1.02 -16.766,1.888l-3.783,0.303l0.296,-3.599c0.693,-8.456 5.654,-22.219 9.464,-26.259c0.997,-1.057 3.859,-5.645 5.291,-8.48c0.78,-1.546 2.094,-3.883 2.919,-5.195c3.023,-4.804 3.041,-5.578 3.041,-5.578c0,0 8.472,-16.809 13.522,-24.033c7.646,-10.939 10.531,-13.046 15.38,-11.232c3.131,1.171 3.185,0.851 -0.895,5.286c-5.827,6.332 -3.501,7.359 3.417,1.51c1.378,-1.166 3.735,-2.995 5.239,-4.066c1.503,-1.071 5.192,-4.462 8.199,-7.535c10.027,-10.25 12.13,-10.923 20.632,-6.608m32.603,13.772c-0.978,5.473 -2.983,11.689 -4.262,13.217c-0.161,0.191 -0.997,-0.004 -1.857,-0.434c-0.861,-0.43 -2.692,-0.852 -4.07,-0.938c-4.473,-0.278 -4.866,1.303 -0.821,3.307c3.115,1.543 6.113,4.248 6.963,6.282l0.67,1.604l-2.12,0.723c-4.311,1.469 -11.896,0.791 -11.637,-1.039c0.37,-2.611 -2.099,-3.682 -3.055,-1.325c-0.231,0.57 -1.047,1.959 -1.813,3.087c-0.766,1.127 -1.394,2.314 -1.395,2.637c-0.009,2.609 -2.923,5.729 -4.549,4.87c-3.21,-1.695 -3.297,-1.264 1.648,-8.226c5.764,-8.115 6.896,-9.931 9.566,-15.338c1.207,-2.443 2.46,-4.442 2.785,-4.442c0.326,0 2.073,-0.751 3.883,-1.67c2.704,-1.372 8.649,-3.607 9.999,-3.759c0.182,-0.02 0.211,0.629 0.065,1.444m4.451,19.197c2.094,0.6 4.478,1.231 5.296,1.404c0.818,0.173 2.515,1.126 3.771,2.12l2.285,1.805l-1.375,1.375c-1.548,1.548 -5.068,3.094 -11.347,4.984c-5.667,1.706 -6.437,2.455 -6.437,6.26c0,2.5 -0.098,2.857 -0.654,2.395c-3.177,-2.637 -6.138,1.829 -6.026,9.088c0.074,4.795 0.065,4.837 -0.954,4.642c-1.456,-0.278 -3.669,0.748 -4.025,1.868c-0.472,1.488 0.969,2.278 7.149,3.921c5.98,1.59 7.963,2.455 10.289,4.488l1.452,1.268l-1.8,-0.171c-2.28,-0.218 -3.914,0.808 -4.421,2.774c-0.461,1.79 -1.542,1.988 -13.309,2.438c-6.78,0.26 -7.811,0.197 -10.529,-0.643c-1.657,-0.513 -4.669,-1.174 -6.693,-1.47c-3.213,-0.47 -3.699,-0.662 -3.82,-1.515c-0.173,-1.212 -5.595,-3.972 -9.896,-5.037c-3.578,-0.885 -3.315,-0.531 -2.487,-3.357c1.008,-3.44 2.054,-3.307 8.638,1.096c5.104,3.414 5.21,3.459 6.334,2.723c2.194,-1.438 1.453,-3.039 -2.729,-5.887c-1.002,-0.683 -2.418,-1.731 -3.147,-2.33l-1.326,-1.089l1.781,-2.026c2.208,-2.512 5.454,-8.135 6.7,-11.608c0.516,-1.438 0.984,-2.679 1.04,-2.759c0.057,-0.081 0.934,0.278 1.951,0.797c3.792,1.935 7.06,0.371 9.384,-4.489c0.746,-1.562 1.633,-2.787 2.036,-2.813c0.392,-0.025 3.48,-0.077 6.863,-0.117c10.661,-0.125 14.616,-3.155 12.071,-9.246c-1.019,-2.438 -1.273,-2.38 3.935,-0.889m-42.804,20.432c-0.499,0.815 -1.447,2.506 -2.106,3.758c-2.211,4.201 -5.089,7.119 -6.424,6.511c-0.625,-0.285 -1.081,-0.668 -1.012,-0.852c0.134,-0.355 10.042,-10.807 10.298,-10.864c0.083,-0.018 -0.257,0.633 -0.756,1.447m5.553,1.025c-0.513,1.338 2.863,4.783 4.687,4.783c0.829,0 0.791,0.155 -0.512,2.076c-3.904,5.752 0.664,14.835 4.919,9.779c1.664,-1.978 2.277,-4.278 2.014,-7.557c-0.126,-1.573 -0.034,-3.056 0.206,-3.295c0.631,-0.631 0.255,-2.902 -0.546,-3.3c-0.376,-0.186 -1.968,-0.975 -3.537,-1.754c-3.193,-1.583 -6.765,-1.945 -7.231,-0.732m29.966,11.658c-0.152,2.828 -0.221,2.991 -1.182,2.807c-1.974,-0.427 -1.211,0.157 -0.823,-3.458c0.109,-1.795 0.312,-3.925 -0.226,-4.374c-1.75,-1.322 -0.809,-1.256 0.756,-3.416l1.181,-2.306l0.227,3.872c0.126,2.13 0.156,5.223 0.067,6.875m7.131,-4.467c0.326,2.082 0.285,2.603 -0.206,2.603c-0.449,0 -0.614,-0.756 -0.614,-2.809c0,-3.375 0.269,-3.308 0.82,0.206m-56.1,6.361c-2.029,4.765 -2.143,4.897 -4.25,4.897c-2.553,0 -2.517,-0.113 1.11,-3.48c3.514,-3.262 4.023,-3.492 3.14,-1.417m61.616,6.523c2.537,6.158 2.552,6.439 0.462,8.851l-1.381,1.594l0.935,-1.918c1.958,-4.014 -0.905,-9.264 -6.263,-11.483c-0.801,-0.331 -1.453,-0.732 -1.449,-0.889c0.021,-0.877 0.918,-1.383 2.734,-1.542c1.123,-0.099 2.168,-0.216 2.323,-0.259c0.154,-0.044 1.342,2.497 2.639,5.646m-66.862,1.178c1.394,0.418 1.653,0.653 1.249,1.139c-0.687,0.828 -0.892,0.788 -2.674,-0.527c-1.689,-1.246 -1.279,-1.422 1.425,-0.612m-4.613,4.257c4.302,3.087 7.638,2.901 9.793,-0.547c1.026,-1.641 1.188,-1.635 5.344,0.196c3.06,1.348 3.031,1.713 -0.171,2.138c-1.301,0.173 -3.094,0.618 -3.984,0.99c-1.314,0.549 -2.197,0.588 -4.679,0.203c-1.682,-0.261 -5.633,-0.496 -8.78,-0.523c-3.148,-0.026 -5.723,-0.105 -5.723,-0.175c-0,-1.051 1.546,-3.178 2.769,-3.81c1.762,-0.912 2.204,-0.787 5.431,1.528m2.215,7.248c-3.007,2.53 -5.292,4.715 -5.711,5.463c-0.445,0.793 -0.522,0.406 -0.456,-2.291l0.08,-3.244l3.126,-0.034c1.719,-0.018 3.052,0.029 2.961,0.106m28.76,1.178c5.692,1.269 5.956,1.392 5.225,2.435c-2.923,4.173 0.1,4.703 7.385,1.295c7.629,-3.57 9.095,-3.876 16.825,-3.512c8.03,0.378 8.887,0.865 9.383,5.332c0.369,3.313 -2.861,8.571 -5.264,8.571c-0.349,0 -1.166,0.418 -1.815,0.929c-3.12,2.454 -19.739,6.593 -22.7,5.654c-0.437,-0.139 -1.676,-0.003 -2.753,0.303c-2.628,0.745 -10.868,0.556 -16.607,-0.38l-4.628,-0.754l1.126,-1.476c1.679,-2.202 5.758,-5.184 9.903,-7.242c4.049,-2.011 4.798,-3.094 2.7,-3.906c-5.046,-1.955 -16.148,4.933 -20.982,13.017c-0.901,1.506 -1.686,2.803 -1.745,2.884c-0.059,0.08 -1.682,-0.689 -3.607,-1.709c-1.924,-1.019 -3.994,-1.854 -4.599,-1.854c-1.829,0 -1.043,-5.862 1.131,-8.427c0.424,-0.501 1.066,-1.498 1.425,-2.215c3.636,-7.259 17.863,-11.559 29.597,-8.945m36.897,22.172c0,5.037 -10.462,8.774 -20.818,7.437c-4.351,-0.561 -12.248,-2.62 -10.339,-2.696c0.526,-0.02 1.616,0.193 2.421,0.473c4.016,1.4 16.165,-1.509 25.764,-6.169c2.667,-1.294 2.972,-1.196 2.972,0.955m-66.576,4.653c1.911,1.36 8.123,4.601 8.362,4.362c1.733,-1.734 5.758,5.103 4.97,8.443c-2.214,9.392 -17.617,30.838 -24.722,34.423c-1.338,0.675 -3.083,1.795 -3.877,2.488c-0.871,0.76 -2.225,1.375 -3.416,1.551c-8.393,1.235 -9.458,1.697 -11.695,5.076c-2.586,3.904 -2.5,6.321 0.125,3.531l1.641,-1.745l-1.184,2.34c-1.478,2.919 -0.829,4.931 1.745,5.414l1.484,0.278l0.094,5.046c0.074,4.022 0.281,5.426 1.018,6.916l0.925,1.869l-1.024,0.788c-1.981,1.524 -6.055,-4.765 -8.07,-12.457c-0.747,-2.851 -1.686,-6.311 -2.087,-7.689c-3.964,-13.606 5.919,-36.549 23.285,-54.057c7.265,-7.323 9.623,-8.572 12.426,-6.577m22.163,3.358c7.321,3.332 21.419,6.714 27.986,6.714c3.078,0 5.709,1.982 15.743,11.86c8.67,8.534 10.548,9.949 14.545,10.955c3.21,0.809 3.675,0.016 1.376,-2.346l-1.8,-1.85l3.831,1.611c13.738,5.78 18.772,13.83 18.827,30.105c0.037,10.965 -3.394,19.392 -11.729,28.811c-2.66,3.005 -2.691,3.001 -3.656,-0.565c-1.136,-4.196 -0.296,-21.793 1.065,-22.315c1.146,-0.44 3.734,5.552 3.734,8.645c0,2.113 1.512,1.243 1.912,-1.099c1.107,-6.486 -2.224,-16.444 -7.837,-23.429c-7.864,-9.786 -12.978,-12.727 -29.378,-16.898c-8.872,-2.256 -19.203,-5.897 -22.946,-8.088c-6.921,-4.05 -15.122,-14.873 -16.672,-22.002c-0.109,-0.501 -0.323,-1.522 -0.475,-2.269l-0.276,-1.359l1.053,0.93c0.579,0.512 2.693,1.676 4.697,2.589m7.021,25.592c1.688,1.122 4.01,2.444 5.161,2.937c2.078,0.891 2.095,0.916 2.382,3.548c0.158,1.458 0.578,4.168 0.932,6.022c0.831,4.351 1.136,4.137 -5.863,4.115c-9.163,-0.027 -16.368,1.046 -22.031,3.284l-2.376,0.939l-1.549,-0.957c-0.853,-0.527 -2.091,-0.958 -2.753,-0.958c-2.385,0 -1.246,-4.186 2.748,-10.096c1.84,-2.723 3.346,-4.805 3.346,-4.627c0,0.946 3.062,-4.732 5.315,-9.853l2.579,-5.863l4.52,4.734c2.486,2.604 5.901,5.653 7.589,6.775m18.26,7.563c2.38,0.691 7.197,1.916 10.705,2.723c11.217,2.581 20.726,7.597 20.726,10.934c0,0.449 0.799,1.828 1.776,3.064c1.783,2.256 3.298,4.916 3.891,6.834c0.248,0.804 0.013,1.283 -1.081,2.204c-0.769,0.647 -1.401,1.619 -1.405,2.161c-0.009,1.312 -0.466,1.935 -1.703,2.321c-0.566,0.176 -1.59,0.793 -2.278,1.37c-2.637,2.215 -6.267,1.618 -4.527,-0.744c3.466,-4.704 -3.817,-14.912 -7.798,-10.93c-0.585,0.584 -1.277,0.837 -1.868,0.683c-0.517,-0.136 -1.787,0.093 -2.824,0.508c-1.036,0.415 -1.925,0.694 -1.975,0.621c-1.449,-2.121 -3.159,-5.688 -4.542,-9.471c-3.535,-9.673 -5.328,-11.118 -9.317,-7.514l-1.767,1.596l-0.967,-3.857c-1.166,-4.649 -1.161,-4.526 -0.171,-4.102c0.439,0.189 2.745,0.908 5.125,1.599m1.805,15.614c1.584,4.337 1.555,4.84 -0.23,4.026c-0.639,-0.291 -1.543,-0.529 -2.009,-0.529c-1.429,0 -3.575,-4.088 -2.47,-4.705c0.47,-0.262 1.367,-1.008 1.993,-1.658c1.387,-1.439 0.991,-1.857 2.716,2.866m-52.823,1.509c-0.277,2.221 -0.893,6.6 -1.369,9.731c-0.476,3.132 -0.998,6.646 -1.159,7.809c-0.564,4.064 -5.671,7.096 -5.671,3.367c0,-2.226 -3.74,-3.205 -6.15,-1.61c-0.751,0.498 -1.622,0.907 -1.936,0.908c-0.754,0.004 -0.764,-5.603 -0.016,-9.226c0.669,-3.238 -0.02,-5.027 -2.027,-5.262c-3.085,-0.36 -0.232,-3.117 3.519,-3.4c2.16,-0.164 3.992,-0.611 5.298,-1.293c1.097,-0.574 3.061,-1.487 4.363,-2.029c1.302,-0.542 3.019,-1.534 3.815,-2.204c1.893,-1.593 1.924,-1.518 1.333,3.209m39.64,-2.567l2.154,0l1.938,3.985c9.657,19.865 10.036,24.305 2.686,31.48c-3.649,3.561 -4.361,5.043 -3.053,6.351c0.764,0.763 3.157,0.682 4.341,-0.147c0.908,-0.636 1.031,-0.62 1.465,0.191c2.04,3.813 -4.164,13.339 -11.557,17.743c-8.366,4.984 -22.521,11.002 -25.881,11.002l-1.382,0l0.316,-3.531c0.447,-5.01 0.611,-5.452 2.23,-6.017c5.719,-1.993 4.959,-7.003 -0.818,-5.395c-5.294,1.474 -5.714,-2.512 -1.852,-17.547c3.162,-12.311 3.483,-15.801 1.45,-15.79c-1.234,0.008 -2.847,2.44 -3.541,5.341c-0.286,1.193 -1.201,4.322 -2.035,6.953c-0.833,2.63 -1.899,6.207 -2.368,7.948l-0.853,3.166l-0.853,-0.997c-2.944,-3.437 -4.61,-14.773 -2.566,-17.458c2.366,-3.109 2.899,-4.58 3.734,-10.307c1.39,-9.545 1.421,-9.683 2.162,-9.683c0.377,0 1.324,-0.393 2.105,-0.874c7.069,-4.347 18.873,-7.199 27.338,-6.603c1.477,0.104 3.655,0.189 4.84,0.189m32.332,12.128c0,1.129 -0.22,2.464 -0.489,2.966c-0.761,1.422 -1.787,5.725 -1.809,7.59c-0.011,0.927 -0.293,2.403 -0.628,3.28c-3.596,9.428 -6.233,15.787 -9.069,21.865c-0.993,2.129 -2.663,5.716 -3.71,7.971c-2.623,5.649 -4.154,7.972 -5.255,7.972c-1.514,0 -0.977,-2.298 2.201,-9.415c0.764,-1.712 2.713,-6.392 4.332,-10.4c1.618,-4.009 4.669,-11.388 6.78,-16.399c2.111,-5.01 4.537,-11.092 5.391,-13.514c1.658,-4.703 2.256,-5.211 2.256,-1.916m-13.107,1.227c1.321,0.854 2.882,2.075 3.469,2.714l1.067,1.161l-1.894,4.205c-1.938,4.305 -5.173,12.431 -6.659,16.728l-0.831,2.405l-0.776,-1.494c-0.741,-1.428 -0.736,-1.531 0.095,-2.309c4.656,-4.36 5.282,-12.134 1.665,-20.676l-2.542,-6.004l2.002,0.858c1.101,0.472 3.083,1.558 4.404,2.412m15.101,18.964l1.227,2.256l-1.831,0.493c-3.192,0.859 -3.496,2.659 -1.215,7.192c2.72,5.405 4.945,16.426 3.127,15.49c-4.578,-2.357 -5.78,-2.503 -7.386,-0.897c-1.268,1.269 -4.968,1.269 -6.167,0.001c-0.171,-0.181 2.643,-7.284 6.373,-16.086c1.593,-3.758 3.149,-7.704 3.459,-8.768c0.714,-2.456 0.917,-2.429 2.413,0.319m-39.91,13.596c-6.727,5.112 -6.315,8.103 0.638,4.62c5.926,-2.969 8.476,-6.31 5.877,-7.701c-1.4,-0.749 -1.593,-0.658 -6.515,3.081m11.529,15.413c-0.519,0.66 -0.944,1.409 -0.944,1.665c0,0.256 -0.513,1.137 -1.139,1.958c-0.626,0.821 -1.139,1.695 -1.139,1.941c0,0.247 -0.755,0.824 -1.679,1.284c-2.4,1.193 -3.573,2.987 -3.483,5.327c0.081,2.084 -0.35,2.409 -7.592,5.744c-3.595,1.655 -4.475,2.673 -5.144,5.946l-0.603,2.949l-0.77,-2.05c-0.661,-1.763 -2.588,-10.736 -2.592,-12.074c-0.001,-0.252 1.075,-0.943 2.39,-1.535c7.745,-3.489 14.305,-6.649 17.129,-8.249c1.775,-1.006 3.403,-1.829 3.617,-1.829c0.215,0 0.872,-0.512 1.46,-1.139c1.403,-1.493 1.684,-1.457 0.489,0.062m17.879,2.261c-0.219,0.571 -1.058,0.926 -1.058,0.448c0,-0.105 -0.119,-0.5 -0.264,-0.878c-0.196,-0.511 -0.029,-0.626 0.652,-0.448c0.551,0.144 0.818,0.493 0.67,0.878m-5.165,3.713c-0.016,0.81 -0.795,1.569 -1.102,1.074c-0.171,-0.278 -0.184,-0.71 -0.03,-0.96c0.329,-0.531 1.142,-0.613 1.132,-0.114m-8.798,3.149c-0.134,0.135 -0.485,0.096 -0.779,-0.086c-0.396,-0.244 -0.375,-0.429 0.084,-0.714c0.607,-0.377 1.196,0.299 0.695,0.8m14.348,3.912c3.09,4.635 3.206,4.902 2.99,6.88c-0.345,3.16 -3.976,18.991 -5.134,22.386c-1.353,3.967 -2.472,8.682 -2.481,10.456c-0.004,0.884 -0.496,1.849 -1.435,2.819l-1.429,1.474l-0.982,-1.453c-2.17,-3.21 -3.854,-6.605 -4.581,-9.233l-0.767,-2.77l1.15,-1.694c0.632,-0.932 1.399,-2.808 1.703,-4.168c0.358,-1.6 0.83,-2.562 1.334,-2.722c2.463,-0.782 3.572,-5.236 3.61,-14.502l0.024,-5.85l1.936,-1.963c2.431,-2.465 2.178,-2.486 4.062,0.34m-18.214,0.227c2.215,2.384 3.754,9.58 2.593,12.128c-1.071,2.35 -1.529,1.443 -1.938,-3.837c-0.221,-2.853 -1.18,-6.6 -2.119,-8.285c-0.959,-1.719 -0.132,-1.722 1.464,-0.006m7.064,6.378c-0.115,0.438 -0.209,0.079 -0.209,-0.798c0,-0.877 0.094,-1.235 0.209,-0.797c0.114,0.439 0.114,1.156 0,1.595m-11.247,2.391c0,0.558 -0.308,0.917 -0.797,0.925c-1.858,0.034 -3.303,2.46 -3.303,5.547c0,2.326 2.676,2.557 3.906,0.337l0.617,-1.115l0.017,1.243c0.029,2.263 -1.273,4.701 -2.933,5.492l-1.544,0.736l-0.24,-1.23c-0.132,-0.677 -0.367,-2.665 -0.523,-4.419c-0.156,-1.754 -0.379,-3.531 -0.494,-3.95c-0.143,-0.516 0.568,-1.36 2.2,-2.612c2.753,-2.112 3.094,-2.218 3.094,-0.954m-9.563,5.58c0.001,1.315 0.134,4.379 0.294,6.807l0.293,4.416l-1.206,0.303c-0.663,0.166 -1.206,0.485 -1.206,0.708c0,0.224 -0.205,0.407 -0.455,0.407c-0.286,0 -0.456,-2.809 -0.456,-7.516l0,-7.516l1.367,0c1.344,0 1.366,0.038 1.369,2.391m15.912,8.642c-0.574,1.998 -1.974,3.181 -5.21,4.399c-1.503,0.567 -3.406,1.323 -4.229,1.681c-1.635,0.712 -5.109,0.888 -5.109,0.258c0,-0.216 0.974,-0.765 2.164,-1.219c4.403,-1.68 10.389,-4.672 11.23,-5.615c1.233,-1.38 1.641,-1.204 1.154,0.496m-23.337,9.424l1.005,1.275l-1.401,1.433c-1.76,1.801 -2.396,1.842 -1.39,0.089c0.635,-1.106 0.679,-1.587 0.246,-2.733c-0.684,-1.813 0.135,-1.847 1.54,-0.064m21.322,3.571c0.415,1.441 1.567,4.097 2.559,5.902l1.804,3.283l-1.875,4.795c-2.249,5.752 -2.31,5.803 -3.998,3.339c-2.992,-4.368 -4.61,-9.251 -4.645,-14.016c-0.008,-1.128 -0.205,-2.35 -0.437,-2.717c-0.364,-0.577 3.846,-2.993 5.528,-3.172c0.17,-0.018 0.649,1.145 1.064,2.586m-26.132,0.411c0.897,0.4 0.888,0.437 -0.265,1.054c-1.887,1.01 -2.972,-0.258 -1.783,-2.081c0.779,-1.193 0.853,-1.219 0.98,-0.339c0.076,0.523 0.557,1.138 1.068,1.366m21.434,1.581c0.364,4.159 3.046,9.083 3.832,7.035c0.319,-0.832 -2.768,-9.059 -3.49,-9.3c-0.408,-0.136 -0.499,0.465 -0.342,2.265m-7.636,3.246c0.554,5.761 2.209,10.656 4.985,14.741l1.191,1.753l-1.013,0.374c-1.946,0.72 -5.905,-7.431 -7.169,-14.761c-0.275,-1.597 -0.613,-3.467 -0.75,-4.156c-0.226,-1.14 -0.127,-1.253 1.095,-1.253c1.336,0 1.346,0.021 1.661,3.302m10.733,-1.114c-0,0.202 0.615,1.336 1.367,2.522c0.751,1.185 1.366,2.762 1.366,3.505c-0,1.688 1.225,1.847 1.635,0.212c0.418,-1.664 -0.097,-3.19 -1.688,-5.002c-1.296,-1.476 -2.68,-2.114 -2.68,-1.237m-2.733,5.826c-0,2.912 3.76,7.356 4.902,5.793c0.76,-1.039 0.549,-2.647 -0.347,-2.647c-0.376,0 -1.378,-0.974 -2.228,-2.164c-1.748,-2.447 -2.327,-2.691 -2.327,-0.982" style="fill:url(#_Linear1);"/></g><defs><linearGradient id="_Linear1" x1="0" y1="0" x2="1" y2="0" gradientUnits="userSpaceOnUse" gradientTransform="matrix(28,308,-308,28,322,342)"><stop offset="0" style="stop-color:#813000;stop-opacity:1"/><stop offset="1" style="stop-color:#4f1a03;stop-opacity:1"/></linearGradient></defs></svg>