<?xml version="1.0" encoding="UTF-8" standalone="no"?><!DOCTYPE svg PUBLIC "-//W3C//DTD SVG 1.1//EN" "http://www.w3.org/Graphics/SVG/1.1/DTD/svg11.dtd"><svg width="100%" height="100%" viewBox="0 0 512 709" version="1.1" xmlns="http://www.w3.org/2000/svg" xmlns:xlink="http://www.w3.org/1999/xlink" xml:space="preserve" xmlns:serif="http://www.serif.com/" style="fill-rule:evenodd;clip-rule:evenodd;stroke-linejoin:round;stroke-miterlimit:2;"><path d="M331,228l7,28l14,-11l6,-19l14,16l5,19l18,9l-15,42l5,13l-42,14l-23,-14l-14,-5l-2,-10l7,-22l8,-5l1,-26" style="fill:#ffe3ef;"/><g id="svgg"><path id="path0" d="M353.189,222.066c-0.292,0.76 -0.046,2.698 0.694,5.464c1.813,6.784 -1.673,15.103 -9.056,21.608c-4.889,4.309 -5.464,4.588 -5.481,2.665c-0.104,-11.756 -2.036,-20.207 -5.297,-23.172c-5.83,-5.301 -8.808,-4.234 -8.746,3.13c0.056,6.641 -0.435,8.316 -4.833,16.484c-6.015,11.171 -7.214,18.118 -5.431,31.476l0.279,2.084l-2.293,1.471c-4.882,3.133 -6.485,5.606 -8.514,13.133c-0.661,2.453 -1.836,5.774 -2.61,7.38c-2.89,5.994 -1.696,13.253 2.99,18.186c2.009,2.115 3.057,2.575 8.51,3.74l4.777,1.02l3.644,3.423c2.004,1.882 5.386,4.537 7.516,5.899c2.13,1.362 4.749,3.072 5.821,3.8c1.072,0.729 2.36,1.324 2.862,1.324c0.502,0 1.66,0.313 2.573,0.694c4.41,1.843 16.757,-2.203 18.2,-5.963c0.142,-0.372 0.866,-0.656 1.682,-0.66c7.513,-0.042 23.709,-4.847 27.965,-8.297c1.201,-0.973 0.636,-3.294 -1.457,-5.989c-5.552,-7.15 -5.231,-15.529 0.865,-22.563c5.094,-5.88 8.908,-16.596 8.904,-25.02c-0.003,-5.809 -1.331,-7.15 -8.429,-8.513c-3.907,-0.751 -6.582,-1.88 -8.777,-3.708c-0.76,-0.633 -1.277,-2.115 -2.136,-6.129c-2.718,-12.702 -6.547,-20.67 -13.739,-28.594c-3.729,-4.108 -9.639,-6.573 -10.483,-4.373m12.546,17.257c2.425,4.436 3.804,8.504 5.488,16.191c2.311,10.553 5.119,13.381 15.231,15.339l4.047,0.784l-0.257,4.366c-0.149,2.546 -0.628,5.412 -1.147,6.872c-1.238,3.482 -4.64,10.477 -5.096,10.477c-0.705,0 -4.64,5.97 -5.773,8.76c-2.723,6.701 -1.557,15.505 2.867,21.646c0.725,1.007 0.695,1.044 -1.709,2.139c-2.534,1.155 -13.779,3.562 -19.222,4.116c-2.986,0.304 -3.227,0.422 -6.041,2.973c-3.992,3.617 -10.516,4.745 -14.178,2.45c-0.555,-0.347 -1.404,-0.632 -1.886,-0.632c-1.435,0 -9.148,-5.346 -12.821,-8.887c-4.119,-3.972 -4.088,-3.955 -9.793,-5.232c-5.626,-1.26 -6.689,-1.862 -8.205,-4.649c-1.96,-3.599 -2.029,-6.609 -0.23,-9.984c0.818,-1.534 2.259,-5.337 3.203,-8.45c1.935,-6.387 2.149,-6.699 6.699,-9.778c4.289,-2.902 4.446,-3.233 3.949,-8.337c-1.328,-13.621 -0.515,-18.606 4.8,-29.458c3.74,-7.635 4.155,-9.082 4.699,-16.349l0.119,-1.595l0.846,1.554c1.679,3.086 3.483,22.198 2.171,23.008c-0.939,0.581 -0.605,3.337 0.499,4.11c7.071,4.953 27.211,-17.689 25.679,-28.868l-0.286,-2.08l2.288,3.137c1.258,1.726 3.084,4.595 4.059,6.377m-27.514,44.113c-1.504,0.768 -3.621,1.497 -4.705,1.62c-3.899,0.442 -3.991,8.779 -0.118,10.781c2.914,1.507 4.975,-0.205 7.165,-5.951c3.297,-8.649 3.088,-9.224 -2.342,-6.45m-14.772,3.373c-1.183,1.505 -1.28,5.796 -0.223,9.876c2.632,10.156 14.832,10.566 20.4,0.685c4.011,-7.117 8.19,-5.164 8.626,4.029c0.641,13.484 16.036,16.852 22.122,4.84c2.431,-4.799 -1.678,-7.531 -4.481,-2.979c-2.3,3.734 -2.637,4.064 -4.76,4.658c-5.282,1.479 -8.946,-2.94 -8.243,-9.941c0.279,-2.776 0.211,-3.156 -0.755,-4.26c-0.583,-0.666 -1.441,-1.755 -1.906,-2.419c-2.942,-4.198 -13.503,-3.126 -13.503,1.371c-0,1.048 -4.875,5.592 -6.346,5.915c-3.817,0.838 -5.839,-2.069 -5.916,-8.508c-0.052,-4.304 -2.794,-6.09 -5.015,-3.267m37.664,0.377c-1.695,2.331 -3.062,10.513 -2.195,13.139c1.545,4.683 4.831,4.934 8.957,0.684c3.817,-3.93 3.884,-4.935 0.524,-7.811c-1.343,-1.148 -2.992,-3.162 -3.758,-4.589c-1.49,-2.771 -2.308,-3.101 -3.528,-1.423" style="fill:url(#_Linear1);"/></g><defs><linearGradient id="_Linear1" x1="0" y1="0" x2="1" y2="0" gradientUnits="userSpaceOnUse" gradientTransform="matrix(13,113,-113,13,328,227)"><stop offset="0" style="stop-color:#ffaabd;stop-opacity:1"/><stop offset="1" style="stop-color:#ff6f7c;stop-opacity:1"/></linearGradient></defs></svg>