<svg xmlns="http://www.w3.org/2000/svg" xmlns:xlink="http://www.w3.org/1999/xlink" width="100%" height="100%" version="1.1" viewBox="0 0 512 709" xml:space="preserve" style="fill-rule:evenodd;clip-rule:evenodd;stroke-linejoin:round;stroke-miterlimit:2"><path d="M241.307,161.505c0.535,0.107 1.92,0.385 5.531,3.995c1.69,1.69 3.869,6.048 4.148,6.606c3.281,6.562 2.924,7.211 -1.229,15.518c-5.429,10.856 -7.798,8.487 -8.45,7.835c-0.534,-0.534 -2.763,-0.917 -5.531,-6.453c-0.315,-0.63 -7.611,-10.671 -1.997,-16.285c2.045,-2.046 1.21,-2.593 3.533,-4.916c0.254,-0.254 -0.033,-0.335 2.305,-3.841c0.85,-1.276 0.996,-1.07 1.69,-2.459Z" style="fill:#50dcff"/><path d="M234.537,211.022c-7.279,-3.64 -3.808,-17.612 6.002,-7.802c7.96,7.96 13.629,-6.096 15.003,-0.6c1.207,4.826 -3.433,5.666 -4.801,8.402c-3.555,7.11 -2.103,7.337 -2.107,15.286c-6.135,0.406 -6.547,0.375 -7.865,-2.044c-3.547,-6.511 -2.42,-6.945 -6.232,-13.242Z" style="fill:#828282"/><path d="M241.55,230.786c0.93,-0.929 1.196,-2.432 4.056,-2.212c0.93,0.072 4.516,7.061 5.285,11.676c1.603,9.614 -2.407,32.478 1.229,43.387c0.129,0.387 2.173,14.747 1.23,17.576c-0.389,1.166 -0.279,4.461 -1.844,4.548c-5.724,0.318 -3.127,-5.586 -4.548,-7.006c-1.42,-1.421 -6.337,-67.039 -5.408,-67.969Z" style="fill:#828282"/><path d="M213,277l22,18l7,15l30,98l5,12l13,14l14,17l7,19l1,19l-5,14l-3,3l-9,-9l-12,-9l-9,-4l-14,20l-85,2l-7,-8l-5,3l-5,19l-4,5l-8,-5l-10,-59l6,-19l12,-25l1,-6l-6,-13l-14,7l-1,-12l10,-18l17,-15l6,-19l-22,5l-2,-4l15,-39l7,-6l13,-1l9,1l4,4l9,-10l13,-14Z" style="fill:#a1ccff"/><path d="M253,320l22,3l16,16l0,31l-12,27l-21,22l-22,10l-1,21l8,31l-7,15l-38,-10l-29,7l-13,14l-15,9l-20,1l3,-21l-8,-27l2,-3l37,-6l29,-36l62.154,-46.609l-5.888,-23.19l0.053,-27.715l12.681,-6.486Z" style="fill:#a2ff98"/><path d="M96,466l-1,47l11,1l2,10l12,-1l3,-32l-9,-25l-18,0Z" style="fill:#fff"/><path d="M202,326l-30,11l-13,31l-1,17l13,14l13,7l14,-3l18,3l10,-9l11,-50l-35,-21Z" style="fill:#fff7ec"/><path d="M106,473l-18,-2l-6,9l-1,15l24,12l13,-20l-11,-1l2,-8l-3,-5Z" style="fill:#fff7ec"/><path d="M239,316l20,-7l15,9l14,-3l3,14l-4,1l-16,-8l-22,-1l-11,4l1,-9Z" style="fill:#fff"/><path d="M249,304l18,-1l4,10l-5,0l-9,-4l-9,7l-4,-3l0,-7l5,-2Z" style="fill:#fff7ec"/><path d="M174,414l16,-11l24,2l-12,15l-22,31l-6,-37Z" style="fill:#36b994"/><path d="M108,505l12,2l-8,9" style="fill:#36b994"/><path d="M186,404l13,2l-8,11" style="fill:#fff569"/><path d="M189,415l9,-1l17,25l-18,15l-11,-3l-4,-23" style="fill:#fff"/><path d="M235,607l53,-86l28,0l3,-13l12,3l8,-13l15,4l-14,19l-9,31l-20,13l11,25l-21,8l-31,19l-35,-10Z" style="fill:#fff"/><path d="M180,489l30,-2l34,16l28,2l35,45l-2,25l-22,18l-26,1l-32,16l-54,-26l-13,-17l-1,-18" style="fill:#5185ca"/><g id="svgg"><path id="path0" d="M238.506,157.804c-0.65,1.109 -1.182,2.229 -1.182,2.489c0,0.542 -4.033,7.922 -7.599,13.906c-3.818,6.406 -2.6,9.652 7.899,21.054c6.821,7.407 7.2,7.261 13.177,-5.05c6.076,-12.515 6.171,-11.728 -3.138,-25.911c-5.789,-8.82 -7.203,-9.822 -9.157,-6.488m8.994,16.931c2.657,4.617 2.717,3.939 -1.058,11.845l-3.18,6.662l-1.944,-2.39c-1.069,-1.314 -2.539,-3.234 -3.266,-4.265c-0.728,-1.031 -2.144,-2.962 -3.149,-4.29l-1.825,-2.415l0.804,-1.685c0.443,-0.926 2.148,-4.505 3.789,-7.952l2.983,-6.268l2.361,3.535c1.299,1.944 3.317,5.194 4.485,7.223m4.144,21.991c-0.767,0.468 -2.374,1.997 -3.57,3.397c-3.002,3.513 -3.162,3.521 -7.862,0.388c-8.891,-5.927 -10.796,-5.67 -13.524,1.824c-1.971,5.416 -1.727,6.468 2.182,9.42c1.388,1.048 3.781,3.027 5.318,4.399c1.538,1.371 3.057,2.494 3.377,2.494c0.685,-0 0.972,4.118 1.382,19.815c0.402,15.415 2.809,42.604 5.141,58.078c0.776,5.145 0.79,5.749 0.149,6.263c-1.037,0.832 -1.203,0.737 -1.852,-1.056c-3.434,-9.498 -22.395,-27.072 -29.208,-27.072c-3.246,-0 -10.016,5.876 -13.907,12.071c-0.945,1.504 -2.352,3.466 -3.127,4.361c-0.776,0.896 -1.956,2.567 -2.624,3.714l-1.215,2.085l-4.116,-2.052c-8.166,-4.072 -20.723,-3.514 -27.611,1.225c-4.417,3.039 -6.733,6.62 -12.528,19.365c-1.108,2.437 -4.711,12.521 -6.591,18.448c-0.834,2.631 -1.968,6.011 -2.519,7.511c-3.094,8.423 1.376,9.905 17.278,5.728c6.146,-1.615 5.75,-1.759 4.405,1.601c-4.082,10.197 -5.737,12.602 -15.029,21.836c-10.218,10.155 -12.556,14.232 -14.424,25.161c-1.693,9.903 -0.77,14.234 3.031,14.234c0.867,-0 9.034,-5.249 11.523,-7.407l1.552,-1.345l0.764,2.469c0.42,1.358 1.515,3.885 2.433,5.614c0.919,1.73 1.67,3.412 1.67,3.738c-0,1.009 -4.114,8.854 -6.155,11.736c-7.752,10.95 -11.478,20.424 -12.762,32.455c-0.167,1.566 -0.398,2.847 -0.514,2.847c-0.115,0 -4.348,0.957 -9.407,2.127c-5.058,1.169 -9.505,2.101 -9.881,2.069c-0.375,-0.031 -3.245,-0.47 -6.377,-0.976c-10.975,-1.771 -14.121,-1.072 -14.121,3.139l-0,1.67l-2.847,0.003c-7.644,0.01 -12.325,7.13 -12.387,18.844c-0.05,9.305 4.941,16.024 13.026,17.538l1.663,0.311l-0.247,5.36c-0.356,7.725 0.558,8.444 7.853,6.178c2.004,-0.622 3.776,-1.135 3.938,-1.139c0.161,-0.003 0.366,2.432 0.455,5.412c0.163,5.463 0.762,7.301 2.396,7.352c0.275,0.008 1.319,0.411 2.321,0.895c3.735,1.804 10.191,-1.351 13.404,-6.55l0.934,-1.512l4.902,-0.289c2.697,-0.159 6.645,-0.697 8.774,-1.197c3.542,-0.83 3.911,-0.845 4.328,-0.172c2.295,3.708 3.624,5.202 6.219,6.987c1.638,1.127 3.676,2.598 4.529,3.267c3.605,2.83 7.7,1.349 7.7,-2.783c0,-0.511 0.603,-2.827 1.341,-5.148c0.737,-2.32 1.671,-6.063 2.075,-8.318c0.673,-3.76 2.827,-12.025 3.257,-12.5c0.1,-0.111 1.253,0.837 2.563,2.106c1.309,1.269 2.752,2.502 3.206,2.741c0.898,0.471 -1.428,5.384 -11.493,24.279c-10.006,18.784 -11.018,26.158 -5.29,38.556c5.016,10.856 19.755,23.716 32.27,28.156c11.034,3.914 15.291,5.919 22.985,10.825c8.568,5.464 14.317,6.667 19.796,4.142c1.186,-0.547 2.264,-0.817 2.398,-0.601c1.586,2.567 15.574,8.017 23.462,9.142c14.591,2.081 20.806,0.055 35.074,-11.432c14.591,-11.746 19.688,-14.192 27.091,-12.998c9.436,1.522 10.165,-1.566 3.043,-12.884c-9.377,-14.901 -8.353,-19.914 5.02,-24.565c9.897,-3.442 12.59,-7.637 12.928,-20.142c0.274,-10.121 1.052,-13.665 3.988,-18.17c2.731,-4.19 8.886,-10.628 11.702,-12.241c1.128,-0.645 2.409,-1.478 2.847,-1.85c1.684,-1.429 0.468,-5.029 -2.028,-6.006c-0.826,-0.323 -3.031,-1.326 -4.9,-2.228c-9.077,-4.38 -16.665,-1.515 -21.263,8.031l-1.586,3.294l-3.731,-1.863c-2.051,-1.024 -4.347,-2.325 -5.101,-2.892c-3.923,-2.945 -7.955,-0.84 -5.17,2.7c1.187,1.51 1.469,7.89 0.434,9.816c-2.416,4.496 -4.159,4.748 -11.913,1.727c-4.988,-1.943 -9.185,-2.018 -13.554,-0.244c-1.981,0.804 -2.938,1.004 -3.071,0.64c-0.107,-0.291 -0.468,-1.451 -0.804,-2.578c-2.197,-7.388 -10.955,-14.004 -18.777,-14.184l-2.406,-0.055l3.162,-4.346c1.739,-2.39 4.016,-5.849 5.061,-7.685c2.231,-3.921 1.906,-3.85 6.374,-1.397c6.693,3.674 13.279,9.163 20.76,17.304c5.204,5.662 8.55,3.057 12.793,-9.958c6.994,-21.455 -0.135,-40.803 -24.99,-67.822c-5.087,-5.53 -10.839,-13.722 -12.229,-17.418l-0.898,-2.386l1.47,-1.941c9.928,-13.117 15.124,-23.42 17.384,-34.475c2.122,-10.384 2.593,-26.372 0.911,-30.968c-0.404,-1.104 -0.681,-2.059 -0.616,-2.122c0.066,-0.062 1.348,-1.066 2.849,-2.23c5.435,-4.214 5.112,-7.27 -0.712,-6.742l-2.845,0.258l0.311,-2.461c1.237,-9.803 0.804,-12.385 -2.329,-13.872c-2.395,-1.136 -8.943,-0.73 -12.689,0.787l-2.78,1.126l-0.819,-3.223c-2.032,-7.996 -7.851,-13.221 -14.772,-13.266c-1.862,-0.011 -3.441,-0.216 -3.507,-0.455c-0.16,-0.569 -1.796,-23.058 -2.667,-36.647c-0.665,-10.38 -0.975,-13.639 -3.14,-33.075l-1.02,-9.159l1.735,-1.457c0.955,-0.801 1.735,-1.752 1.735,-2.113c-0,-0.361 0.713,-1.648 1.584,-2.86c5.261,-7.324 5.683,-12.178 1.385,-15.952c-1.902,-1.67 -2.265,-1.721 -4.136,-0.58m-15.932,6.703c3.671,2.018 3.489,1.681 3.141,5.792l-0.289,3.421l-2.787,-2.35c-1.532,-1.292 -3.276,-2.667 -3.875,-3.056l-1.088,-0.708l0.786,-2.367c0.433,-1.302 0.865,-2.367 0.962,-2.367c0.096,0 1.514,0.735 3.15,1.635m17.737,1.074c-0.366,0.89 -1.531,2.904 -2.588,4.475l-1.921,2.857l-0.316,-1.718c-0.519,-2.831 -0.464,-2.98 2.155,-5.817c2.799,-3.031 3.964,-2.942 2.67,0.203m-9.233,9.919c0.196,2.951 0.491,6.646 0.657,8.211c0.278,2.632 0.233,2.847 -0.597,2.847c-1.098,0 -1.478,-3.03 -1.483,-11.82c-0.004,-7.409 0.913,-6.917 1.423,0.762m1.875,19.946c0.186,2.002 0.654,6.611 1.039,10.244c0.385,3.633 1.207,14.292 1.828,23.687c1.033,15.632 1.435,21.063 2.297,31.061c0.284,3.285 0.249,3.488 -0.558,3.277c-1.068,-0.279 -1.802,-5.112 -3.797,-25c-0.753,-7.516 -1.569,-15.203 -1.812,-17.082c-0.588,-4.541 -1.579,-28.452 -1.218,-29.392c0.779,-2.029 1.881,-0.438 2.221,3.205m-27.874,49.077c8.314,5.532 14.701,13.023 19.807,23.231l2.905,5.808l-1.688,0.001c-0.929,0 -2.407,0.36 -3.284,0.799l-1.594,0.799l-2.805,-3.689c-8.402,-11.049 -20.148,-14.309 -31.474,-8.736c-0.86,0.423 -1.211,0.332 -2.164,-0.563c-1.49,-1.401 -1.453,-1.644 0.671,-4.326c0.991,-1.253 2.771,-3.61 3.954,-5.239c2.593,-3.567 9.829,-10.932 10.741,-10.932c0.359,0 2.578,1.281 4.931,2.847m-34.302,15.206c1.129,0.302 1.402,1.079 0.379,1.079c-3.36,0 -11.65,7.092 -14.345,12.272c-2.968,5.705 -3.889,9.282 -4.372,16.986c-0.146,2.322 -0.369,5.082 -0.497,6.134l-0.232,1.912l-3.506,1.346c-1.928,0.74 -5.761,1.882 -8.516,2.539c-7.822,1.863 -7.225,1.788 -6.825,0.855c0.194,-0.451 0.925,-2.744 1.625,-5.094c1.386,-4.653 4.603,-13.722 5.95,-16.769c0.464,-1.051 0.844,-2.082 0.844,-2.291c-0,-0.509 2.845,-7.231 4.106,-9.704c1.32,-2.587 5.212,-6.668 7.506,-7.872c3.41,-1.788 13.474,-2.572 17.883,-1.393m32.542,6.378c5.136,1.85 7.605,3.67 10.821,7.976c6.168,8.257 7.226,13.042 4.819,21.799c-0.654,2.38 -1.307,4.894 -1.45,5.586c-0.144,0.692 -0.434,1.365 -0.646,1.496c-1.339,0.828 -20.988,-12.192 -26.073,-17.276c-1.913,-1.913 -2.215,-1.945 -7.241,-0.756c-6.188,1.464 -18.706,6.928 -23.318,10.179l-1.322,0.932l0.306,-4.066c0.797,-10.581 2.981,-16.908 6.871,-19.905c1.014,-0.781 2.459,-2.066 3.21,-2.854c3.401,-3.566 10.657,-4.51 13.893,-1.805c2.214,1.849 2.182,1.842 3.652,0.797c4.496,-3.196 11.104,-4.039 16.478,-2.103m47.675,0.768c2.974,2.07 3.841,3.032 4.646,5.161l0.491,1.298l-1.51,-1.422c-4.936,-4.648 -8.632,-6.365 -10.992,-5.108c-0.936,0.498 -0.954,0.478 -0.311,-0.342c1.795,-2.291 3.958,-2.175 7.676,0.413m-14.987,2.575c1.61,0.862 1.593,2.72 -0.042,4.406c-1.867,1.926 -1.921,1.918 -2.529,-0.358c-0.878,-3.289 0.357,-5.233 2.571,-4.048m14.515,6.551c2.693,2.216 3.405,3.306 1.853,2.839c-0.597,-0.18 -3.511,-0.445 -6.475,-0.589l-5.388,-0.262l2.62,-2.648l2.621,-2.648l1.318,0.776c0.724,0.427 2.277,1.566 3.451,2.532m24.31,8.258c-0.172,5.944 -0.108,5.837 -2.256,3.811c-2.52,-2.377 -5.591,-4.722 -7.394,-5.646l-1.594,-0.818l1.89,-0.83c2.11,-0.928 6.05,-1.699 8.131,-1.591l1.367,0.071l-0.144,5.003m-44.309,-4.032l1.44,0.288l-2.181,1.436c-2.098,1.383 -2.191,1.402 -2.476,0.509c-0.811,-2.536 -0.249,-2.926 3.217,-2.233m23.239,4.762c15.619,2.751 23.441,13.385 22.59,30.708c-1.043,21.23 -4.803,30.783 -19.81,50.335c-6.252,8.145 -12.317,12.113 -26.434,17.292c-2.631,0.965 -6.116,2.009 -7.744,2.321c-4.112,0.786 -5.719,3.055 -3.254,4.594c0.778,0.486 0.796,0.693 0.228,2.582c-1.456,4.837 -0.676,13.103 2.351,24.914c3.224,12.578 5.023,23.832 4.551,28.468c-0.454,4.465 -0.663,4.984 -2.453,6.103c-2.057,1.286 -5.1,2.401 -4.26,1.562c3.715,-3.715 -9.546,-11.888 -22.175,-13.669c-18.272,-2.575 -42.537,3.412 -36.855,9.093c0.297,0.297 0.383,0.696 0.191,0.887c-0.191,0.191 -1.048,-0.417 -1.905,-1.352c-1.967,-2.146 -2,-3.494 -0.223,-9.11c2.041,-6.452 2.231,-7.374 2.978,-14.468c0.383,-3.633 0.696,-6.719 0.697,-6.859c-0,-0.14 0.769,-0.595 1.709,-1.011c0.976,-0.433 2.567,-1.837 3.712,-3.277c2.133,-2.681 2.779,-3.06 2.779,-1.629c-0,4.408 4.906,6.072 8.373,2.839c1.049,-0.977 1.361,-1.086 1.551,-0.54c0.398,1.144 3.583,4.1 4.417,4.1c0.43,0 1.495,-0.714 2.367,-1.586c1.568,-1.568 1.603,-1.577 3.199,-0.911c2.38,0.995 5.219,0.872 6.455,-0.28c1.827,-1.703 2.101,-3.217 1.158,-6.404c-0.165,-0.558 0.322,-0.961 1.884,-1.557c5.826,-2.225 4.847,-11.094 -2.007,-18.188c-1.695,-1.753 -3.839,-4.061 -4.765,-5.129l-1.684,-1.94l4.053,-3.754c5.995,-5.551 9.932,-10.802 9.507,-12.678c-0.064,-0.283 1.831,-1.837 4.211,-3.453c2.38,-1.616 6.718,-5.084 9.639,-7.707c11.57,-10.388 12.522,-10.927 14.707,-8.33c2.457,2.92 2.757,3.93 2.757,9.283c-0,4.863 0.03,5.015 1.034,5.158c3.656,0.518 3.044,-12.752 -0.834,-18.106c-1.753,-2.42 0.552,-1.945 4.694,0.967c3.222,2.266 5.794,-0.238 3.294,-3.208c-1.174,-1.397 -6.268,-4.17 -7.657,-4.17c-0.952,0 -0.965,-0.028 -3.526,-7.387c-5.425,-15.588 -5.731,-36.385 -0.607,-41.258c0.603,-0.574 1.097,-1.23 1.097,-1.459c-0,-0.58 3.962,-2.274 5.41,-2.313c0.657,-0.017 1.605,-0.221 2.106,-0.452c1.189,-0.549 5.932,-0.177 12.494,0.979m-55.039,13.752l5.741,4.323l-1.379,0.623c-1.887,0.852 -2.513,1.956 -1.777,3.134c0.597,0.955 -0.585,1.816 -2.493,1.816c-0.937,0 -3.782,1.768 -3.782,2.35c-0,0.25 -0.708,1.926 -1.573,3.725c-4.139,8.603 -2.693,19.434 2.594,19.434c5.101,0 11.334,-17.172 8.806,-24.257c-0.716,-2.006 -0.483,-2.067 2.373,-0.616c5.156,2.619 8.298,6.683 8.298,10.733c0,2.286 1.041,4.118 2.34,4.118c1.686,0 -1.144,11.246 -5.263,20.915c-3.467,8.135 -4.365,10.55 -4.365,11.735c0,0.97 -1.917,2.881 -2.889,2.881c-0.269,0 -1.27,0.762 -2.224,1.693c-2.008,1.961 -3.902,2.089 -12.806,0.862c-10.434,-1.437 -19.434,-0.705 -19.434,1.581c0,1.768 -4.011,-0.4 -11.341,-6.129c-12.004,-9.381 -14.947,-17.142 -10.259,-27.052c2.543,-5.376 6.494,-16.453 7.276,-20.399l0.816,-4.119l3.52,-2.891c5.734,-4.71 15.608,-9.531 23.882,-11.659l4.099,-1.055l2.05,1.966c1.128,1.081 4.633,3.911 7.79,6.288m-28.07,1.664c-5.035,1.208 -10.352,9.823 -6.238,10.108c1.652,0.114 2.191,-0.16 3.515,-1.785c2.405,-2.954 3.464,-3.735 5.061,-3.735c2.482,0 3.184,-2.045 1.337,-3.893c-1.175,-1.175 -1.454,-1.227 -3.675,-0.695m-0.697,8.257c-0.978,1.059 -1.898,2.358 -2.044,2.887c-0.146,0.528 -0.863,2.298 -1.594,3.933c-2.463,5.517 -3.794,12.393 -2.625,13.562c2.103,2.103 3.813,0.378 5.207,-5.252c0.606,-2.448 1.928,-6.567 2.939,-9.153c2.806,-7.18 1.896,-10.07 -1.883,-5.977m49.219,2.423c0,1.009 -0.155,1.639 -0.345,1.401c-0.19,-0.238 -0.895,-1.048 -1.568,-1.799l-1.223,-1.367l1.568,-0.034c1.533,-0.034 1.568,0.007 1.568,1.799m8.59,18.278c0.748,2.004 1.692,4.425 2.097,5.379c0.72,1.698 0.711,1.766 -0.42,3.11c-0.636,0.756 -1.157,1.864 -1.157,2.462c0,0.665 -0.398,1.297 -1.024,1.626c-1.357,0.712 -5.055,3.71 -7.744,6.277c-2.632,2.512 -2.641,2.411 -0.283,-3.084c2.542,-5.926 4.819,-15.385 5.219,-21.692l0.318,-5.011l0.816,3.644c0.449,2.005 1.429,5.284 2.178,7.289m-85.848,3.661c-2.507,7.895 -0.551,15.113 6.217,22.945c2.393,2.769 2.957,3.698 2.688,4.424c-0.187,0.506 -0.487,2.34 -0.667,4.076c-0.391,3.759 -1.387,9.261 -1.742,9.616c-0.374,0.374 -2.892,-2.445 -4.877,-5.46c-2.813,-4.274 -4.259,-9.255 -4.187,-14.425c0.041,-2.909 -0.117,-4.429 -0.484,-4.662c-1.841,-1.171 -4.197,0.95 -4.641,4.177c-0.256,1.858 -0.487,2.261 -1.433,2.499c-0.621,0.155 -1.988,1.052 -3.038,1.992c-2.004,1.795 -5.759,4.355 -6.013,4.101c-1.004,-1.004 2.591,-12.958 5.189,-17.254c1.252,-2.071 12.486,-14.434 14.013,-15.42c0.036,-0.023 -0.425,1.503 -1.025,3.391m32.916,11.52c-1.668,1.844 -0.967,2.594 3.553,3.802c1.425,0.382 2.916,1.228 4.046,2.299l1.789,1.695l-0.313,3.172c-0.288,2.927 -0.238,3.213 0.646,3.686c5.074,2.716 6.573,-7.263 1.754,-11.685c-3.776,-3.465 -9.65,-4.985 -11.475,-2.969m-14.715,21.652l3.404,2.443l-1.917,1.602c-5.628,4.705 -5.974,11.122 -0.805,14.943c0.978,0.724 1.269,1.221 1.02,1.748c-2.046,4.327 -10.055,17.268 -14.834,23.968c-2.729,3.825 -6.741,7.884 -8.033,8.127c-5.246,0.987 -6.955,1.211 -9.243,1.211l-2.635,0l0.309,-2.391c1.382,-10.713 2.578,-13.9 10.3,-27.455c1.716,-3.012 3.537,-6.702 4.047,-8.2c0.51,-1.497 1.015,-2.963 1.123,-3.257c0.128,-0.352 1.175,-0.006 3.069,1.014c5.212,2.809 7.728,2.054 8.554,-2.565c1.309,-7.319 1.839,-10.82 1.838,-12.149c-0.001,-1.867 -0.214,-1.921 3.803,0.961m21.806,1.844l1.239,0.812l-0.865,1.665c-1.858,3.574 -5.486,5.074 -5.486,2.268c0,-0.483 -0.453,-1.666 -1.007,-2.629c-1.79,-3.109 2.395,-4.557 6.119,-2.116m12.345,-0.196c1.959,0.256 3.665,0.465 3.791,0.465c0.578,0 -2.052,2.827 -5.652,6.075l-3.956,3.569l-0.788,-1.853c-0.773,-1.822 -0.767,-1.897 0.348,-4.332c0.773,-1.689 1.038,-2.859 0.834,-3.674c-0.271,-1.078 -0.194,-1.172 0.779,-0.956c0.594,0.132 2.684,0.449 4.644,0.706m-23.378,5.022c0.951,1.864 0.853,4.214 -0.349,8.396c-0.516,1.795 -0.782,1.803 -4.184,0.118c-4.713,-2.334 -4.716,-3.383 -0.023,-7.914c3.007,-2.902 3.358,-2.949 4.556,-0.6m88.232,3.587c2.411,4.676 7.387,11.75 11.005,15.646c25.079,27.007 31.831,48.404 21.679,68.699l-1.035,2.068l-5.725,-5.569c-11.693,-11.375 -22.342,-17.257 -26.413,-14.59c-1.29,0.845 -1.676,1.362 -6.365,8.506c-1.563,2.38 -3.66,5.558 -4.661,7.061c-1.002,1.503 -2.055,3.274 -2.34,3.935c-0.847,1.963 -7.265,1.956 -11.061,-0.014c-6.176,-3.205 -8.434,-5.06 -6.159,-5.06c0.371,0 1.07,-0.775 1.553,-1.722c3.733,-7.317 3.066,-17.203 -2.667,-39.526c-4.116,-16.025 -4.098,-25.099 0.051,-25.882c0.84,-0.158 3.988,-1.226 6.994,-2.372c3.007,-1.147 6.634,-2.504 8.06,-3.017c1.427,-0.512 2.965,-1.265 3.418,-1.673c0.454,-0.407 2.566,-1.888 4.695,-3.29c2.129,-1.402 4.588,-3.269 5.464,-4.149c2.083,-2.089 1.917,-2.134 3.507,0.949m-74.831,3.897c1.244,3.255 4.109,7.318 8.226,11.662c4.285,4.521 5.137,5.879 5.541,8.829l0.278,2.028l-2.677,0.77c-3.935,1.132 -5.113,1.828 -8.192,4.84l-2.783,2.722l-0.798,-3.111c-0.611,-2.379 -0.824,-5.31 -0.904,-12.45c-0.078,-6.889 -0.306,-10.162 -0.87,-12.48c-0.715,-2.94 -0.715,-3.197 -0.001,-3.986c1.091,-1.206 1.317,-1.083 2.18,1.176m-7.029,15.518c0.205,5.512 0.513,10.652 0.685,11.423c0.263,1.178 0.13,1.52 -0.838,2.154l-1.15,0.754l-1.013,-2.61c-1.362,-3.51 -1.819,-13.828 -0.727,-16.424c0.387,-0.921 0.826,-2.881 0.976,-4.355c0.726,-7.15 1.609,-3.28 2.067,9.058m-9.032,9.295c0.122,1.275 -0.037,1.908 -0.561,2.235c-0.655,0.409 -0.685,0.222 -0.289,-1.779c0.533,-2.699 0.631,-2.752 0.85,-0.456m-10.966,2.374c-0.245,1.098 -0.862,5.584 -1.371,9.968c-1.605,13.845 -1.823,15.163 -3.232,19.587c-2.324,7.295 -2.262,11.525 0.213,14.467l1.093,1.299l-0.922,1.455c-0.508,0.804 -1.309,1.455 -1.787,1.455c-0.477,0 -0.867,0.227 -0.867,0.504c0,2.198 -12.395,11.977 -19.391,15.3c-3.757,1.784 -12.554,3.771 -16.729,3.779l-2.64,0.005l0.241,-1.481c0.133,-0.814 0.334,-3.12 0.447,-5.124c0.113,-2.005 0.351,-5.251 0.529,-7.214c0.241,-2.653 0.131,-4.408 -0.427,-6.833c-0.412,-1.795 -1.268,-5.825 -1.901,-8.957c-1.356,-6.712 -2.152,-9.317 -3.937,-12.886c-1.36,-2.72 -1.357,-3.513 0.016,-3.513c0.436,0 3.741,-0.723 7.343,-1.608c7.277,-1.786 15.928,-2.947 21.973,-2.947c5.368,0 5.57,0.292 5.657,8.18c0.079,7.129 0.023,6.701 0.912,7.042c4.06,1.558 5.697,-10.923 2.17,-16.54c-0.605,-0.963 -0.436,-0.886 0.892,0.407c1.257,1.223 1.748,2.173 2.108,4.076c0.756,3.991 3.861,6.155 5.059,3.525c0.726,-1.592 -1.499,-8.102 -3.541,-10.363l-1.57,-1.737l2.003,-2.459c1.102,-1.353 3.3,-4.543 4.886,-7.09c3.139,-5.044 3.444,-5.296 2.773,-2.297m-67.33,21.179c0.32,0.32 -2.079,2.455 -2.759,2.455c-0.42,0 -1.923,-1.946 -1.923,-2.49c0,-0.339 4.34,-0.307 4.682,0.035m12.561,6.44c0.691,1.369 2.345,6.32 2.345,7.02c0,0.089 -0.892,0.09 -1.981,0.004c-1.09,-0.087 -2.73,0.049 -3.645,0.301c-2.299,0.635 -2.216,0.033 0.923,-6.641c1.341,-2.852 1.273,-2.832 2.358,-0.684m-17.923,0.797c2.253,0.627 5.04,1.165 6.194,1.197l2.097,0.058l-1.072,3.376c-2.629,8.276 -0.278,11.276 6.899,8.807c3.391,-1.167 3.491,-1.154 2.775,0.342c-1.198,2.508 -2.919,6.29 -3.367,7.402c-2.105,5.223 -8.81,9.337 -10.353,6.353c-1.423,-2.752 -2.185,-3.164 -5.853,-3.164c-8.899,0 -13.206,-6.001 -11.465,-15.974c0.405,-2.322 1.023,-4.246 1.591,-4.957c0.511,-0.639 1.267,-1.777 1.679,-2.529c1.37,-2.495 4.293,-2.74 10.875,-0.911m110.698,8.907c5.412,0.604 11.109,2.242 13.458,3.869c2.518,1.745 2.203,1.741 -3.421,-0.044c-6.29,-1.996 -16.094,-3.467 -23.684,-3.554c-3.24,-0.037 -5.29,-0.197 -4.555,-0.355c2.228,-0.479 13.621,-0.427 18.202,0.084m-0.347,6.581c20.519,3.177 35.379,13.464 45.276,31.344c5.129,9.266 9.784,14.714 13.532,15.837c3.248,0.973 3.361,0.014 0.376,-3.21c-1.407,-1.52 -4.035,-5.271 -5.839,-8.335c-4.522,-7.682 -4.524,-7.686 -8.245,-13.316l-3.311,-5.01l4.099,-0.015c2.255,-0.007 6.355,-0.094 9.11,-0.192c9.736,-0.345 12.506,1.531 17.736,12.01c4.291,8.598 6.454,11.741 13.096,19.029c10.106,11.088 10.639,12.061 10.559,19.274c-0.157,14.183 -5.31,22.972 -17.704,30.195c-5.143,2.998 -7.502,3.415 -19.587,3.468c-12.292,0.053 -12.915,0.212 -20.193,5.146c-4.946,3.354 -7.086,4.491 -13.743,7.302c-9.018,3.808 -10.277,3.695 -18.793,-1.681c-8.247,-5.206 -13.869,-7.842 -25.392,-11.905c-8.522,-3.004 -21.791,-13.955 -26.439,-21.82c-4.33,-7.326 -5.462,-14.672 -3.265,-21.182c1.418,-4.199 7.65,-17.426 10.517,-22.32c4.539,-7.75 8.746,-19.076 9.84,-26.498c0.437,-2.963 0.86,-5.623 0.939,-5.909c0.164,-0.597 5.088,-2.324 8.298,-2.912c3.012,-0.551 13.54,-0.166 19.133,0.7m-88.268,5.721l0.007,4.81l-2.367,0.757c-2.939,0.939 -2.827,1.15 -1.563,-2.948c2.947,-9.55 3.912,-10.194 3.923,-2.619m54.476,1.339c0.705,0 0.856,1.245 0.265,2.177c-0.273,0.43 -0.932,0.088 -2.512,-1.303c-2.574,-2.265 -2.335,-4.183 0.25,-2.009c0.742,0.625 1.64,1.135 1.997,1.135m173.99,5.068l2.058,0.967l-4.035,3.796c-10.238,9.633 -12.594,14.854 -13.239,29.344c-0.488,10.936 -1.388,12.408 -9.329,15.246c-7.747,2.768 -11.538,5.519 -13.43,9.745l-0.8,1.786l0.188,-4.299c0.419,-9.579 -0.441,-11.29 -12.451,-24.756c-5.384,-6.035 -7.774,-9.022 -7.45,-9.305c0.09,-0.079 1.429,-0.459 2.975,-0.845c3.162,-0.79 3.7,-0.711 10.171,1.509c6.04,2.071 10.465,2.163 12.951,0.268c3.446,-2.626 6.025,-8.394 5.623,-12.574l-0.206,-2.14l2.921,1.522c4.932,2.571 7.32,1.911 9.655,-2.67c4.287,-8.41 8.234,-10.492 14.398,-7.594m-234.176,5.865c2.95,0 2.872,-0.152 1.279,2.487c-1.542,2.553 -1.329,2.574 -4.151,-0.41c-2.663,-2.816 -3.025,-3.819 -1,-2.772c0.739,0.382 2.482,0.695 3.872,0.695m-13.567,0.506c2.412,1.054 2.021,1.672 -1.101,1.739c-1.348,0.03 -1.48,-0.089 -1.48,-1.334c0,-1.627 -0.159,-1.602 2.581,-0.405m56.416,4.016c-0.736,3.005 -2.531,7.947 -3.089,8.504c-0.4,0.401 -2.733,-0.985 -4.032,-2.395c-2.564,-2.782 -2.595,-2.709 2.727,-6.294c5.69,-3.833 5.382,-3.846 4.394,0.185m-46.324,6.056l-0.714,1.493l-0.172,-2.379c-0.17,-2.357 -0.163,-2.372 0.714,-1.493c0.831,0.83 0.841,0.98 0.172,2.379m7.37,-0.835c0,0.348 -0.415,1.117 -0.921,1.708l-0.921,1.076l0.777,-1.709c0.837,-1.838 1.065,-2.068 1.065,-1.075m192.117,57.948c0.484,1.274 2.244,4.489 3.911,7.145c1.668,2.657 3.032,4.917 3.032,5.022c0,0.106 -1.486,0.299 -3.302,0.429c-6.99,0.501 -13.31,4.009 -26.99,14.981c-15.549,12.472 -22.373,13.253 -44.754,5.118c-2.411,-0.876 -2.417,-1.184 -0.043,-2.254c1.041,-0.47 4.441,-2.55 7.555,-4.624c7.622,-5.073 7.917,-5.143 21.072,-5.015l10.704,0.105l3.189,-1.501c11.983,-5.638 23.515,-18.238 23.972,-26.193c0.032,-0.552 0.219,0.228 0.416,1.734c0.197,1.506 0.754,3.78 1.238,5.053" style="fill:url(#_Linear1)"/></g><defs><linearGradient id="_Linear1" x1="0" x2="1" y1="0" y2="0" gradientTransform="matrix(18,455.705,-455.705,18,238,165)" gradientUnits="userSpaceOnUse"><stop offset="0" style="stop-color:#12d0ff;stop-opacity:1"/><stop offset="1" style="stop-color:#01a0ff;stop-opacity:1"/></linearGradient></defs></svg>