<svg xmlns="http://www.w3.org/2000/svg" xmlns:xlink="http://www.w3.org/1999/xlink" width="168.921" height="168.921" version="1.1" viewBox="0 0 168.921 168.921"><defs><linearGradient id="color-1" x1="163.951" x2="316.049" y1="95.539" y2="264.461" gradientUnits="userSpaceOnUse"><stop offset="0" stop-color="#ff7100"/><stop offset="1" stop-color="#ff1500"/></linearGradient></defs><g><g stroke-miterlimit="10" stroke-width="0"><path fill="url(#color-1)" stroke="none" d="M322.8569,176.1283c2.13828,2.13828 2.13828,5.60512 0,7.74339l-78.98521,78.98522c-2.13827,2.13828 -5.60512,2.13828 -7.74339,0l-78.98521,-78.98521c-2.13827,-2.13828 -2.13827,-5.60512 0,-7.74339l78.98521,-78.98522c2.13827,-2.13828 5.60512,-2.13828 7.74339,0z" transform="translate(-155.53939,-95.53938)"/><path fill="#000" stroke="red" d="M243.53553,255.91282c-1.95262,1.95262 -5.11845,1.95262 -7.07107,0l-26.88071,-26.88071l1.56569,-20.35392l-0.75077,-9.97431l-10.6731,-5.23074l0.56179,16.06712l-4.02453,6.17094l-31.92566,-31.92566c-1.95262,-1.95262 -1.95262,-5.11845 0,-7.07107l72.12728,-72.12728c1.95262,-1.95262 5.11845,-1.95262 7.07107,0l67.00831,67.00833l-16.68635,0.74161l-8.5,15.16667l-15.66667,5.83333l-0.16667,5.83333l-7.5,11.5l-10.66667,7.33333l-1.28128,12.67048h18.69789zM221.23563,162.13868c5.58037,0 10.10417,-4.52379 10.10417,-10.10417c0,-5.58037 -4.52379,-10.10416 -10.10417,-10.10416c-5.58037,0 -10.10416,4.52378 -10.10416,10.10416c0,5.58038 4.52378,10.10417 10.10416,10.10417zM189.08046,166.26441l-3.78182,13.28748l-6.3906,-3.28747l-2.24137,4.48276l7.2631,3.61426l-1.22862,4.31676l13.96551,2.93104l0.06385,-0.87791l52.34995,26.05033l-10.86207,5.68966l10.86844,5.94688l0.93731,-11.24774l11.33334,-7.33333l1.36578,-2.12807l-13.64279,-7.13431l1.55172,12.58621l-53.53022,-27.53718l0.94401,-12.98007l5.51725,-2.41379l-4.13793,14.65517l0.03379,0.96629l35.00709,17.99038l-5.21331,-20.85322l-3.10345,-18.27586l-18.44827,-6.72414zM212.45761,230.67426h21.10919l-5.30208,-23.21448l-14.00851,-6.86538l4.47943,8.25621zM262.06942,175.11467l5.83926,-33.08914h-21.21598l6.61783,33.08914zM257.3007,189.06402c2.86661,0 5.19045,-2.46909 5.19045,-5.51486c0,-3.04577 -2.32384,-5.51486 -5.19045,-5.51486c-2.86661,0 -5.19046,2.46909 -5.19046,5.51486c0,3.04577 2.32385,5.51486 5.19046,5.51486z" transform="translate(-155.53939,-95.53938)"/></g></g></svg>