<?xml version="1.0" encoding="UTF-8" standalone="no"?>
<!-- Created with Inkscape (http://www.inkscape.org/) -->

<svg
   width="950"
   height="450"
   viewBox="0 0 921.5 436.5"
   version="1.1"
   id="svg1"
   inkscape:version="1.3.2 (091e20e, 2023-11-25, custom)"
   sodipodi:docname="dimefulslong.svg"
   xmlns:inkscape="http://www.inkscape.org/namespaces/inkscape"
   xmlns:sodipodi="http://sodipodi.sourceforge.net/DTD/sodipodi-0.dtd"
   xmlns="http://www.w3.org/2000/svg"
   xmlns:svg="http://www.w3.org/2000/svg">
  <sodipodi:namedview
     id="namedview1"
     pagecolor="#000000"
     bordercolor="#000000"
     borderopacity="0.25"
     inkscape:showpageshadow="2"
     inkscape:pageopacity="0.0"
     inkscape:pagecheckerboard="0"
     inkscape:deskcolor="#d1d1d1"
     inkscape:document-units="mm"
     showgrid="true"
     inkscape:export-bgcolor="#ffffff00"
     inkscape:zoom="0.72426347"
     inkscape:cx="412.14284"
     inkscape:cy="263.02583"
     inkscape:window-width="1920"
     inkscape:window-height="1009"
     inkscape:window-x="-8"
     inkscape:window-y="-8"
     inkscape:window-maximized="1"
     inkscape:current-layer="layer1">
    <inkscape:grid
       id="grid1"
       units="px"
       originx="0"
       originy="0"
       spacingx="9.6999998"
       spacingy="19.4"
       empcolor="#0099e5"
       empopacity="0.30196078"
       color="#0099e5"
       opacity="0.14901961"
       empspacing="5"
       enabled="true"
       visible="true" />
    <inkscape:grid
       type="axonomgrid"
       id="grid2"
       units="px"
       originx="0"
       originy="0"
       spacingx="0.99999999"
       spacingy="19.4"
       empcolor="#0099e5"
       empopacity="0.30196078"
       color="#0099e5"
       opacity="0.14901961"
       empspacing="5"
       dotted="false"
       gridanglex="45"
       gridanglez="45"
       enabled="true"
       visible="true" />
  </sodipodi:namedview>
  <defs
     id="defs1">
    <inkscape:path-effect
       effect="fillet_chamfer"
       id="path-effect17"
       is_visible="true"
       lpeversion="1"
       nodesatellites_param="F,0,0,1,0,0,0,1 @ F,0,0,1,0,15.554109,0,1 @ F,0,0,1,0,0,0,1 @ F,0,0,1,0,0,0,1 @ F,0,0,1,0,4.552569,0,1 @ F,0,0,1,0,0,0,1 @ F,0,0,1,0,0,0,1 @ F,0,0,1,0,0,0,1 @ F,0,0,1,0,0,0,1 @ F,0,0,1,0,0,0,1 @ F,0,0,1,0,0,0,1 @ F,0,0,1,0,0,0,1 @ F,0,0,1,0,0,0,1 @ F,0,0,1,0,0,0,1 @ F,0,0,1,0,0,0,1 @ F,0,0,1,0,0,0,1 @ F,0,0,1,0,17.75554,0,1 @ F,0,0,1,0,0,0,1 @ F,0,0,1,0,0,0,1 @ F,0,0,1,0,4.3480582,0,1 @ F,0,0,1,0,0,0,1 @ F,0,0,1,0,0,0,1 @ F,0,0,1,0,0,0,1 @ F,0,0,1,0,0,0,1 @ F,0,0,1,0,0,0,1 @ F,0,0,1,0,0,0,1 @ F,0,0,1,0,0,0,1 @ F,0,0,1,0,0,0,1"
       radius="0"
       unit="px"
       method="auto"
       mode="F"
       chamfer_steps="1"
       flexible="false"
       use_knot_distance="true"
       apply_no_radius="true"
       apply_with_radius="true"
       only_selected="false"
       hide_knots="false" />
    <inkscape:path-effect
       effect="fillet_chamfer"
       id="path-effect16"
       is_visible="true"
       lpeversion="1"
       nodesatellites_param="F,0,0,1,0,0,0,1 @ F,0,0,1,0,19.399996,0,1 @ F,0,0,1,0,0,0,1 @ F,0,0,1,0,19.399996,0,1"
       radius="0"
       unit="px"
       method="auto"
       mode="F"
       chamfer_steps="1"
       flexible="false"
       use_knot_distance="true"
       apply_no_radius="true"
       apply_with_radius="true"
       only_selected="false"
       hide_knots="false" />
  </defs>
  <g
     inkscape:label="Layer 1"
     inkscape:groupmode="layer"
     id="layer1">
    <g
       id="g1"
       transform="matrix(1.0833333,0,0,1.0833333,-64.666479,-318.39952)">
      <path
         id="path11"
         style="fill:#ffffff;fill-opacity:1;stroke-width:0.97"
         d="m 533.5,194 c -42.91384,0 -62.61373,42.91137 -70.07096,100.9373 -1.09491,8.5197 -8.63875,15.4627 -17.22905,15.4627 H 378.3 c 0,10.71433 8.68567,19.4 19.4,19.4 h 58.19999 c 2.51432,0 4.44813,2.03562 4.34139,4.54766 -3.41521,80.37479 9.08177,175.44297 15.05862,228.25234 8.65725,76.49238 18.62857,203.69999 -29.1,203.7 -12.00768,-0.0612 -23.31041,-5.67867 -30.60994,-15.21309 C 427.41623,749.4443 436.28705,739.4378 436.5,727.5 c -0.008,-11.95708 -8.73115,-22.12345 -20.54809,-23.94877 -1.22445,-0.1949 -2.46205,-0.2956 -3.70191,-0.30123 -13.39291,0 -24.25,10.85709 -24.25,24.25 0.005,0.97612 0.0689,1.95105 0.19135,2.91947 -0.0178,-0.14795 -0.0512,-0.29076 -0.0663,-0.43953 C 389.42448,755.60544 410.55157,776 436.5,776 c 106.69999,-2e-5 69.92528,-247.44274 58.2,-349.2 -2.43093,-21.09668 -5.50252,-49.64466 -7.21288,-79.26496 C 486.92184,337.7455 494.59388,329.8 504.39999,329.8 H 572.3 c 0,-10.71433 -8.68567,-19.4 -19.4,-19.4 h -62.34323 c -2.40137,0 -4.36401,-1.94666 -4.36298,-4.34802 C 486.21732,251.5845 494.31086,203.7 523.8,203.7 c 12.05108,0.0127 23.41214,5.62424 30.74635,15.18656 -11.88996,1.58279 -20.83637,11.62043 -21.04635,23.61344 0.21295,11.9378 9.08377,21.9443 20.90994,23.58691 1.09644,0.29902 2.21254,0.5206 3.34006,0.66309 13.39291,0 24.25,-10.85709 24.25,-24.25 -0.002,-0.89387 -0.0543,-1.78693 -0.15535,-2.67508 0.007,0.0659 0.0236,0.12905 0.0303,0.19514 C 580.57552,214.39456 559.44843,194 533.5,194 Z"
         inkscape:path-effect="#path-effect17"
         inkscape:original-d="m 533.5,194 c -46.64569,0 -65.86445,50.69916 -71.7459,116.4 H 378.3 a 19.399996,19.399996 0 0 0 19.4,19.4 h 62.75256 c -4.10179,81.30854 8.75746,178.99109 14.84744,232.8 8.65725,76.49238 18.62857,203.69999 -29.1,203.7 -12.00768,-0.0612 -23.31041,-5.67867 -30.60994,-15.21309 C 427.41623,749.4443 436.28705,739.4378 436.5,727.5 c -0.008,-11.95708 -8.73115,-22.12345 -20.54809,-23.94877 -1.22445,-0.1949 -2.46205,-0.2956 -3.70191,-0.30123 -13.39291,0 -24.25,10.85709 -24.25,24.25 0.005,0.97612 0.0689,1.95105 0.19135,2.91947 -0.0178,-0.14795 -0.0512,-0.29076 -0.0663,-0.43953 C 389.42448,755.60544 410.55157,776 436.5,776 c 106.69999,-2e-5 69.92528,-247.44274 58.2,-349.2 -2.91399,-25.28892 -6.74856,-61.28476 -8.05555,-97 H 572.3 a 19.399996,19.399996 0 0 0 -19.4,-19.4 h -66.69129 c -0.40576,-56.24115 7.31983,-106.7 37.59129,-106.7 12.05108,0.0127 23.41214,5.62424 30.74635,15.18656 -11.88996,1.58279 -20.83637,11.62043 -21.04635,23.61344 0.21295,11.9378 9.08377,21.9443 20.90994,23.58691 1.09644,0.29902 2.21254,0.5206 3.34006,0.66309 13.39291,0 24.25,-10.85709 24.25,-24.25 -0.002,-0.89387 -0.0543,-1.78693 -0.15535,-2.67508 0.007,0.0659 0.0236,0.12905 0.0303,0.19514 C 580.57552,214.39456 559.44843,194 533.5,194 Z"
         transform="matrix(0.59999999,0,0,0.59999999,290.28372,204.36881)" />
      <path
         d="m 168.00723,550.59617 c -4.93259,5.15345 -9.75475,8.8713 -14.46648,11.15355 -4.71173,2.20862 -9.79156,3.31293 -15.2395,3.31293 -11.04311,0 -20.68743,-4.6013 -28.93296,-13.80389 -8.24552,-9.27622 -12.368287,-21.16597 -12.368287,-35.66926 0,-14.50329 4.564487,-27.75503 13.693467,-39.75522 9.12897,-12.0738 20.87148,-18.1107 35.22753,-18.1107 8.90811,0 16.27019,2.8344 22.08623,8.50319 v -18.66286 c 0,-11.55846 -0.29448,-18.66286 -0.88345,-21.31321 -0.51535,-2.65035 -1.36198,-4.45406 -2.53991,-5.41113 -1.17793,-0.95707 -2.65035,-1.4356 -4.41725,-1.4356 -1.91414,0 -4.45406,0.58897 -7.61975,1.7669 l -1.4356,-3.86509 30.1477,-12.36829 h 4.9694 v 116.94658 c 0,11.85295 0.25767,19.10459 0.77302,21.75494 0.58897,2.57673 1.47242,4.38044 2.65035,5.41113 1.25155,1.03069 2.68716,1.54603 4.30681,1.54603 1.98776,0 4.63811,-0.62578 7.95104,-1.87733 l 1.21475,3.86509 -30.03728,12.47872 h -5.07983 z m 0,-7.73018 v -52.1235 c -0.44173,-5.00621 -1.7669,-9.5707 -3.97552,-13.69346 -2.20862,-4.12277 -5.15345,-7.21484 -8.83449,-9.27622 -3.60742,-2.135 -7.14122,-3.2025 -10.60139,-3.2025 -6.47863,0 -12.25786,2.90802 -17.33769,8.72406 -6.69949,7.65656 -10.04924,18.84692 -10.04924,33.57107 0,14.87139 3.23931,26.28261 9.71794,34.23365 6.47863,7.87743 13.69347,11.81614 21.64451,11.81614 6.69949,0 13.17811,-3.34975 19.43588,-10.04924 z m 67.363,-137.9285 c 3.09207,0 5.70561,1.10431 7.84061,3.31293 2.20863,2.135 3.31294,4.74854 3.31294,7.84061 0,3.09207 -1.10431,5.74242 -3.31294,7.95105 -2.135,2.20862 -4.74854,3.31293 -7.84061,3.31293 -3.09207,0 -5.74242,-1.10431 -7.95104,-3.31293 -2.20862,-2.20863 -3.31293,-4.85898 -3.31293,-7.95105 0,-3.09207 1.0675,-5.70561 3.2025,-7.84061 2.20862,-2.20862 4.89578,-3.31293 8.06147,-3.31293 z m 9.16579,52.89652 v 81.27732 c 0,6.33139 0.44172,10.56458 1.32517,12.69959 0.95707,2.06138 2.31906,3.60741 4.08595,4.6381 1.84052,1.03069 5.15346,1.54604 9.93881,1.54604 v 3.97552 h -49.14186 v -3.97552 c 4.93259,0 8.24552,-0.47854 9.9388,-1.43561 1.69328,-0.95707 3.01845,-2.53991 3.97552,-4.74853 1.03069,-2.20863 1.54604,-6.44182 1.54604,-12.69959 v -38.98219 c 0,-10.96949 -0.33129,-18.0739 -0.99388,-21.31321 -0.51535,-2.35587 -1.32518,-3.97553 -2.42949,-4.85898 -1.10431,-0.95707 -2.61354,-1.4356 -4.52768,-1.4356 -2.06138,0 -4.56448,0.55216 -7.50931,1.65647 l -1.54604,-3.97552 30.479,-12.36829 z m 57.97636,21.53407 c 7.36207,-7.36207 11.7057,-11.59527 13.03087,-12.69958 3.31293,-2.79759 6.88354,-4.9694 10.71182,-6.51544 3.82828,-1.54603 7.61975,-2.31905 11.37441,-2.31905 6.33139,0 11.77932,1.84052 16.34381,5.52155 4.56449,3.68104 7.61975,9.01855 9.16579,16.01252 7.58293,-8.83449 13.98794,-14.61372 19.21502,-17.33769 5.22707,-2.79759 10.60139,-4.19638 16.12294,-4.19638 5.37432,0 10.12286,1.39879 14.24562,4.19638 4.19639,2.72397 7.50932,7.21483 9.93881,13.4726 1.61965,4.27001 2.42948,10.9695 2.42948,20.09847 v 43.50987 c 0,6.33139 0.47854,10.67501 1.43561,13.03088 0.73621,1.61965 2.09819,3.01845 4.08595,4.19638 1.98776,1.10431 5.22707,1.65647 9.71794,1.65647 v 3.97552 h -49.91488 v -3.97552 h 2.09819 c 4.34363,0 7.73018,-0.84664 10.15967,-2.53992 1.69327,-1.17793 2.90802,-3.05526 3.64423,-5.63199 0.29448,-1.25155 0.44172,-4.82215 0.44172,-10.71182 v -43.50987 c 0,-8.24553 -0.99388,-14.06157 -2.98164,-17.44812 -2.87121,-4.71173 -7.47251,-7.0676 -13.80389,-7.0676 -3.90191,0 -7.84062,0.99388 -11.81614,2.98165 -3.9019,1.91414 -8.65044,5.52156 -14.24562,10.82225 l -0.22086,1.21474 0.22086,4.74854 v 48.25841 c 0,6.92035 0.36811,11.22717 1.10432,12.92045 0.80983,1.69327 2.28224,3.12888 4.41724,4.30681 2.13501,1.10431 5.77924,1.65647 10.93269,1.65647 v 3.97552 h -51.12963 v -3.97552 c 5.59518,0 9.42346,-0.66259 11.48484,-1.98776 2.13501,-1.32517 3.60742,-3.31293 4.41725,-5.96328 0.3681,-1.25155 0.55215,-4.89578 0.55215,-10.93269 v -43.50987 c 0,-8.24553 -1.21474,-14.172 -3.64422,-17.77941 -3.23931,-4.71173 -7.76699,-7.0676 -13.58303,-7.0676 -3.97553,0 -7.91424,1.0675 -11.81614,3.2025 -6.11052,3.23932 -10.82225,6.88355 -14.13518,10.93269 v 54.22169 c 0,6.62587 0.44172,10.93269 1.32517,12.92045 0.95707,1.98776 2.31905,3.49698 4.08595,4.52767 1.84052,0.95707 5.52156,1.43561 11.04312,1.43561 v 3.97552 h -50.02531 v -3.97552 c 4.63811,0 7.87742,-0.47854 9.71794,-1.43561 1.84052,-1.03069 3.23931,-2.61353 4.19638,-4.74853 0.95707,-2.20863 1.43561,-6.44182 1.43561,-12.69959 v -38.6509 c 0,-11.11673 -0.33129,-18.29476 -0.99388,-21.53407 -0.51535,-2.42949 -1.32518,-4.08596 -2.42949,-4.96941 -1.10431,-0.95707 -2.61354,-1.4356 -4.52768,-1.4356 -2.06138,0 -4.52767,0.55216 -7.39888,1.65647 l -1.65647,-3.97552 30.479,-12.36829 h 4.74854 z m 162.88594,19.54631 c -0.0736,15.01864 3.57061,26.79796 10.93269,35.33797 7.36207,8.54001 16.01251,12.81002 25.95132,12.81002 6.62587,0 12.36829,-1.80371 17.22726,-5.41113 4.93259,-3.68104 9.05535,-9.93881 12.36829,-18.7733 l 3.42336,2.20863 c -1.54603,10.08604 -6.0369,19.28863 -13.4726,27.60778 -7.43569,8.24553 -16.74872,12.36829 -27.93908,12.36829 -12.14743,0 -22.56476,-4.71173 -31.25201,-14.13518 -8.61363,-9.49708 -12.92045,-22.23347 -12.92045,-38.20918 0,-17.30088 4.41725,-30.77348 13.25174,-40.4178 8.90811,-9.71794 20.06166,-14.57691 33.46064,-14.57691 11.33759,0 20.65062,3.75466 27.93908,11.26397 7.28845,7.4357 10.93268,17.41131 10.93268,29.92684 z m 0,-6.405 h 46.82281 c -0.3681,-6.47863 -1.14112,-11.04311 -2.31905,-13.69346 -1.84052,-4.12277 -4.6013,-7.36208 -8.28234,-9.71795 -3.60742,-2.35586 -7.39889,-3.53379 -11.37441,-3.53379 -6.11052,0 -11.59527,2.39267 -16.45424,7.17802 -4.78535,4.71173 -7.58294,11.30079 -8.39277,19.76718 z m 247.36577,-31.69374 v 61.28929 c 0,11.7057 0.25767,18.88372 0.77302,21.53407 0.58897,2.57673 1.47242,4.38044 2.65035,5.41113 1.25155,1.03069 2.68716,1.54603 4.30681,1.54603 2.28225,0 4.85897,-0.62578 7.73018,-1.87733 l 1.54604,3.86509 -30.25813,12.47872 h -4.96941 v -21.42364 c -8.68725,9.42346 -15.31311,15.34993 -19.8776,17.77942 -4.56449,2.42948 -9.38665,3.64422 -14.46648,3.64422 -5.6688,0 -10.60139,-1.61966 -14.79778,-4.85897 -4.12276,-3.31293 -6.99397,-7.54613 -8.61363,-12.69958 -1.61965,-5.15345 -2.42948,-12.44191 -2.42948,-21.86537 v -45.16634 c 0,-4.78535 -0.51535,-8.09828 -1.54604,-9.9388 -1.03069,-1.84052 -2.57673,-3.23931 -4.63811,-4.19638 -1.98776,-1.03069 -5.63199,-1.50923 -10.93268,-1.43561 v -4.08595 h 35.4484 v 67.69429 c 0,9.42346 1.61966,15.60761 4.85897,18.55244 3.31293,2.94483 7.28845,4.41724 11.92656,4.41724 3.16569,0 6.7363,-0.99388 10.71182,-2.98164 4.04915,-1.98776 8.8345,-5.77923 14.35605,-11.37441 v -57.31376 c 0,-5.74242 -1.0675,-9.60751 -3.2025,-11.59527 -2.06138,-2.06139 -6.40501,-3.1657 -13.03088,-3.31294 v -4.08595 z m 59.19108,-55.87816 v 134.17384 c 0,6.33139 0.44173,10.52777 1.32518,12.58915 0.95707,2.06139 2.39267,3.64423 4.30681,4.74854 1.91414,1.03069 5.48475,1.54604 10.71182,1.54604 v 3.97552 H 738.7154 v -3.97552 c 4.63811,0 7.8038,-0.47854 9.49708,-1.43561 1.69327,-0.95707 3.01845,-2.53991 3.97552,-4.74853 0.95707,-2.20863 1.4356,-6.44182 1.4356,-12.69959 v -91.87871 c 0,-11.41122 -0.25767,-18.40519 -0.77301,-20.98192 -0.51535,-2.65035 -1.36199,-4.45406 -2.53992,-5.41113 -1.10431,-0.95707 -2.53992,-1.4356 -4.30682,-1.4356 -1.91414,0 -4.34362,0.58897 -7.28845,1.7669 l -1.87733,-3.86509 30.1477,-12.36829 z m 93.42476,52.89652 v 34.45452 h -3.64423 c -2.79759,-10.82225 -6.405,-18.18433 -10.82225,-22.08623 -4.34363,-3.90191 -9.90199,-5.85286 -16.6751,-5.85286 -5.15345,0 -9.31303,1.36199 -12.47872,4.08596 -3.16569,2.72397 -4.74854,5.74242 -4.74854,9.05535 0,4.12277 1.17793,7.65656 3.53379,10.60139 2.28225,3.01845 6.92036,6.22096 13.91433,9.60751 l 16.12295,7.84061 c 14.94501,7.28846 22.41752,16.89597 22.41752,28.82253 0,9.2026 -3.49699,16.6383 -10.49096,22.3071 -6.92035,5.59517 -14.68734,8.39276 -23.30097,8.39276 -6.18415,0 -13.25174,-1.10431 -21.20278,-3.31293 -2.42949,-0.73621 -4.41725,-1.10431 -5.96329,-1.10431 -1.69327,0 -3.01845,0.95707 -3.97552,2.87121 h -3.64422 v -36.11099 h 3.64422 c 2.06139,10.30691 6.0001,18.0739 11.81614,23.30097 5.81604,5.22708 12.33148,7.84062 19.54631,7.84062 5.07983,0 9.2026,-1.47242 12.36829,-4.41725 3.23931,-3.01845 4.85897,-6.62587 4.85897,-10.82225 0,-5.07983 -1.80371,-9.34984 -5.41113,-12.81002 -3.53379,-3.46017 -10.6382,-7.84061 -21.31321,-13.1413 -10.67501,-5.3007 -17.66899,-10.08605 -20.98192,-14.35605 -3.31293,-4.19639 -4.9694,-9.49708 -4.9694,-15.90209 0,-8.31915 2.8344,-15.27631 8.5032,-20.87149 5.74242,-5.59517 13.14131,-8.39276 22.19666,-8.39276 3.97552,0 8.79768,0.84664 14.46648,2.53991 3.75466,1.10431 6.25777,1.65647 7.50932,1.65647 1.17793,0 2.09819,-0.25767 2.76078,-0.77302 0.66259,-0.51535 1.4356,-1.65647 2.31905,-3.42336 z"
         id="text1"
         style="font-size:226.163px;font-family:'Times New Roman';-inkscape-font-specification:'Times New Roman, Normal';fill:#ffffff;stroke-width:0.512438;stroke-linejoin:round;paint-order:markers stroke fill"
         aria-label="dimefuls"
         sodipodi:nodetypes="ccscscscscssccccsccscccccccscscscscscscssssscsccccccscssccsccccccsssccsccssccccccsccsscsccccsccccccccsscsccsccccccccssccsccccccssccccscscscccccccscccsccscccccsscssssccccscsccscccccsccccccssssccsccccccccssscccscscsccccsscscscscscsscc" />
    </g>
  </g>
</svg>
