<?xml version="1.0" encoding="UTF-8"?>
<!-- Created with Inkscape (http://www.inkscape.org/) -->
<svg width="454" height="454" version="1.1" viewBox="0 0 454 454" xml:space="preserve" xmlns="http://www.w3.org/2000/svg"><g transform="translate(-628,-67)"><g><rect x="628" y="67" width="454" height="454" fill="#ff90d5"/><path d="m628 247c536.07-379.33 260.57 141.88 454 220v54h-454z" fill="#ffcff6" stroke-linecap="round" stroke-linejoin="round" stroke-width="5"/></g><g transform="translate(392.75 45.899)" stroke-linecap="round" stroke-linejoin="round"><g transform="matrix(.59022 -.74018 .74018 .59022 74.225 619.11)"><path d="m360.05-23.557c-12.792-22.31-52.175-55.901-57.819-51.807-10.374 7.5264-14.682 37.278-7.046 60.489 6.3932 19.433 27.525 34.851 26.881 37.638-7.8196 33.835 10.7 10.848-18.019 42.534-1.3762 1.5183-7.9523-23.236-31.52-12.73s-27.479 32.283-47.039 86.621c-3.0827 8.5639-3.9193 24.486-11.221 38.98-9.5882 19.032-25.669 37.109-25.142 47.874 0.96049 19.653 37.058 58.172 58.08 86.47 18.213 24.517 13.631 36.967 17.124 37.504 4.8069 0.7386 11.68-8.6524 51.292-23.086 30.281-11.034 90.988-32.609 97.511-46.933 8.3555-18.348-0.9729-32.954-0.80281-47.898 0.16948-14.889-0.051-21.323 3.5886-37.559 10.445-46.594 0.15657-87.727-2.7504-97.687-6.6433-22.761-38.042-18.475-39.323-21.085-14.966-30.496-9.9739-8.9483-2.207-39.688 0.82824-3.2781 31.003-6.8607 44.825-19.918 19.296-18.228 26.003-53.044 23.94-58.785-2.2835-6.3572-62.218 4.4471-80.351 19.067z" fill="#593299" stroke-width="5.2815"/><path transform="matrix(1.3417 .32331 -.32331 1.3417 -115.3 -918.29)" d="m465.86 626.05 20.121-28.327 26.256 28.663c40.164-16.468 45.49 38.255 46.373 88.854 40.423 51.317-54.603 73.697-74.953 107.13-14.021-39.956-97.405-49.846-58.69-101.68-1.1929-54.216-2.9023-119.65 40.893-94.634z" fill="#afa8e7" stroke-width="3.8268"/><path d="m358.47-17.166c-12.792-22.31-55.932-52.066-55.932-52.066s-8.6862 32.211-1.05 55.422c6.3932 19.433 29.405 30.218 28.761 33.005-8.2118 35.532 10.109 16.096-22.885 53.132l24.148-12.042 5.4462 16.101 7.494-13.439 25.03 24.825c-12.283-45.899-11.53-22.088-2.7836-56.703 0.82825-3.2781 27.575-4.7983 41.397-17.855 19.296-18.228 27.297-48.843 27.297-48.843s-58.789 3.8425-76.922 18.463z" fill="#d7d8ff" stroke-width="5.2815"/></g><path d="m322.3 554.75c9.7214 23.455 40.72 33.31 61.881 14.494 5.3466-59.43 28.853-114.41 48.49-167.19 11.764-22.994-12.948-33.594-36.384-38.442-31.634-6.5433-48.208 21.284-48.79 28.062-4.7825 55.734-6.1771 108.28-25.197 163.07z" fill="#593299" stroke-width="5"/><path d="m674.68 483.71c4.7006 24.951-15.85 50.165-43.858 45.997-37-46.813-86.764-79.965-132.08-113.39-22.43-12.806-7.5492-35.203 9.4122-52.086 22.895-22.789 51.996-8.5707 56.193-3.2155 34.505 44.029 64.433 87.248 110.34 122.69z" fill="#593299" stroke-width="5"/><g transform="matrix(1 0 0 .87072 169.71 79.089)" stroke-width="5.3583"><path d="m332.12 911.92 34.746 19.423c11.146 14.992 39.589 37.988 48.429 58.238 3.1182 7.1422 7.6952 13.545 3.4402 18.503-4.8338 5.6334-21.65-7.732-21.65-7.732s-0.88702 8.7204-7.9228 8.3983c-10.98-0.5027-18.974-6.0179-18.974-6.0179s1.4076 4.6885-5.293 4.3867c-15.971-0.7194-15.707 3.2482-36.701-28.145-15.558-23.265-19.845-55.002 3.9248-67.055z" fill="#593299"/><path d="m318.44 939.73c11.767 16.588 39.601 18.836 54.789 0.44962 8.7052-45.476 13.739-94.289 16.294-138.89 1.1968-20.895-16.024-23.929-36.678-23.599-27.88 0.44569-41.683 25.055-41.166 30.444 4.2484 44.305 3.6669 86.891 6.7614 131.6z" fill="#593299"/><path d="m312.14 807.02c19.137 17.914 58.319 9.2641 77.301-11.934-12.945-52.457-2.1477-95.532 4.0094-145.63 6.4866-22.582-26.252-25.888-55.611-24.538-39.629 1.8216-50.25 29.701-48.74 35.678 12.415 49.14 27.813 94.739 23.04 146.42z" fill="#593299"/><path d="m317.64 804.03c18.51 17.327 48.503 17.328 66.864-3.1763-12.521-50.739-12.473-100.44 1.206-148.06 3.3439-11.641-14.095-27.181-14.095-27.181s-20.264 2.6974-33.526 3.3071c-38.332 1.762-43.687 26.567-42.226 32.348 12.008 47.531 26.394 92.77 21.777 142.76z" fill="#d7d8ff"/><path d="m321.53 937.23c11.382 16.044 32.358 16.94 47.049-0.84372 2.0928-45.286 14.391-89.329 16.374-135.07 0.93805-21.638-23.991-20.183-33.321-20.034-26.967 0.43114-34.126 17.903-34.262 23.135-1.1973 46.022 7.5579 85.542 4.1605 132.81z" fill="#d7d8ff"/><path d="m332.08 917.14 32.707 18.376c8.9185 7.539 27.534 24.61 36.584 37.366s19.908 30.191 11.688 30.946c-8.2199 0.7548-16.117-8.52-16.117-8.52s-4.0315 7.5399-13.676 7.8578-15.345-5.3952-15.345-5.3952-1.6986 7.9796-12.857 6.0901c-11.158-1.8894-21.227-21.474-26.141-28.154-8.3948-11.411-20.613-46.513 3.1561-58.566z" fill="#d7d8ff"/></g><g transform="matrix(1 0 0 .87072 169.71 79.089)" stroke-width="5.3583"><path d="m215.46 900.28 34.746 19.423c11.146 14.992 39.589 37.988 48.429 58.238 3.1182 7.1421 7.6952 13.544 3.4402 18.503-4.8338 5.6335-21.65-7.7319-21.65-7.7319s-0.88702 8.7204-7.9228 8.3983c-10.98-0.50272-18.974-6.0179-18.974-6.0179s1.4076 4.6885-5.293 4.3866c-15.971-0.7194-15.707 3.2482-36.701-28.145-15.558-23.265-19.845-55.002 3.9248-67.055z" fill="#593299"/><path d="m201.78 928.1c11.767 16.588 39.601 18.836 54.789 0.44961 8.7052-45.476 13.739-94.289 16.294-138.89 1.1968-20.895-16.024-23.929-36.678-23.599-27.88 0.44569-41.683 25.055-41.166 30.444 4.2484 44.305 3.6669 86.892 6.7613 131.6z" fill="#593299"/><path d="m272.75 787.23c-19.137 17.914-57.806 28.011-76.789 6.8124 12.945-52.457 1.8916-96.447-4.2656-146.54-6.4867-22.582 26.252-25.888 55.611-24.538 39.629 1.8216 50.25 29.701 48.74 35.678-12.415 49.14-28.069 76.907-23.297 128.59z" fill="#593299"/><path d="m267.5 802.08c-18.51 17.327-48.503 17.328-66.864-3.1763 12.521-50.739 12.473-100.44-1.206-148.06-3.3439-11.641 14.095-27.181 14.095-27.181s20.264 2.6974 33.526 3.3071c38.332 1.762 43.687 26.567 42.226 32.348-12.008 47.531-26.394 92.77-21.777 142.76z" fill="#d7d8ff"/><path d="m204.87 925.59c11.382 16.044 32.358 16.94 47.049-0.84381 2.0928-45.286 14.391-89.329 16.374-135.07 0.93805-21.638-23.991-20.183-33.321-20.034-26.967 0.43114-34.126 17.903-34.262 23.135-1.1973 46.022 7.5579 85.542 4.1605 132.81z" fill="#d7d8ff"/><path d="m215.42 905.5 32.707 18.376c8.9185 7.5389 27.534 24.61 36.584 37.366s19.908 30.191 11.688 30.946c-8.2199 0.75492-16.117-8.5199-16.117-8.5199s-4.0315 7.5398-13.676 7.8578c-9.6445 0.31789-15.345-5.3952-15.345-5.3952s-1.6986 7.9796-12.857 6.0901c-11.158-1.8895-21.227-21.474-26.141-28.154-8.3948-11.411-20.613-46.513 3.1561-58.566z" fill="#d7d8ff"/></g><g transform="matrix(.72456 0 0 .72456 265.8 107.27)"><path d="m163.34 355.67s41.71-26.017 72.832-31.82 32.888-6.5071 74.484-2.7372 98.236 39.507 98.236 39.507-27.338 180.59-20.506 268.7c2.7315 35.225 40.502 76.062 20.506 109.6s-126.49 81.269-136.92 80.876-95.565-51.618-113.59-82.29 16.011-76.753 18.385-111.72c5.9765-88.058-13.435-270.11-13.435-270.11z" fill="#593299" stroke-width="6.9008"/><path d="m167.69 360.98s38.065-21.423 69.188-27.225 32.888-6.5071 74.484-2.7372 86.922 31.729 86.922 31.729-33.702 175.64-26.87 263.75c2.7315 35.225 46.866 68.991 26.87 102.53s-109.06 81.905-124.48 82.012-86.079-51.339-104.1-82.012 20.961-67.56 23.335-102.53c5.9765-88.058-25.347-265.52-25.347-265.52z" fill="#a8bce7" stroke-width="6.9008"/><path d="m269.2 327.3c-36.186 1.3417-69.174 18.58-101.5 33.683 12.223 6.2594 211.79 6.0462 230.59 1.7666-51.238-30.749-99.417-36.789-129.09-35.449z" fill="#d7d8ff" stroke-width="6.9008"/><path d="m219.91 407.47c18.784-9.0146 103.07-9.3703 126.57 0s3.9216 270.84 0 314.54-125.48 31.221-126.57 0c-1.0932-31.221-18.784-305.52 0-314.54z" fill="#d7f4ff" stroke-width="6.9008"/><path transform="matrix(.41521 0 0 .41521 361.66 362.28)" d="m-125 425.5c-11.568 6.8812-52.82-14.388-66.138-12.442-8.9962 1.3151-29.439 33.395-36.274 27.4-10.119-8.8751-2.6381-54.681-8.6051-66.746-4.0307-8.1496-40.857-17.678-37.268-26.032 5.3138-12.366 51.189-19.406 60.82-28.809 6.5051-6.3518 4.1876-44.321 13.241-43.488 13.403 1.2323 34.275 42.687 46.194 48.94 8.0511 4.224 43.445-9.7132 45.451-0.84541 2.9698 13.128-30.006 45.788-32.27 59.056-1.5293 8.9623 22.663 38.317 14.849 42.966z" fill="#593299" stroke-width="16.62"/><path transform="matrix(.33009 0 0 .33009 345.76 393.14)" d="m-125 425.5c-11.568 6.8812-52.82-14.388-66.138-12.442-8.9962 1.3151-29.439 33.395-36.274 27.4-10.119-8.8751-2.6381-54.681-8.6051-66.746-4.0307-8.1496-40.857-17.678-37.268-26.032 5.3138-12.366 51.189-19.406 60.82-28.809 6.5051-6.3518 4.1876-44.321 13.241-43.488 13.403 1.2323 34.275 42.687 46.194 48.94 8.0511 4.224 43.445-9.7132 45.451-0.84541 2.9698 13.128-30.006 45.788-32.27 59.056-1.5293 8.9623 22.663 38.317 14.849 42.966z" fill="#f8ffa2" stroke-width="20.906"/></g><g transform="matrix(.72456 0 0 .72456 265.8 107.27)" stroke-width="6.9008"><path d="m222.1 293.67 107.74 1.7108s-16.066 30.65-13.013 46.393 15.744 23.616 15.744 23.616c-21.278 9.0597-23.795 11.331-58.936 10.482-35.328-0.85355-39.283-3.3263-57.248-11.018 0 0 13.112-7.9423 16.716-24.013s-10.999-47.172-10.999-47.172z" fill="#593299"/><g><g><path d="m369.79-54.289c-12.792-22.31-52.175-55.901-57.819-51.807-10.374 7.5264-14.682 37.278-7.046 60.489 6.3932 19.433 27.525 34.851 26.881 37.638-8.2118 35.532-5.6785 68.164-38.673 105.2l77.645 19.306c-12.283-45.899 1.8525-76.575 10.598-111.19 0.82825-3.2781 31.003-6.8607 44.825-19.918 19.296-18.228 26.003-53.044 23.94-58.785-2.2835-6.3572-62.218 4.4471-80.351 19.067z" fill="#593299"/><path d="m368.08-47.427c-12.792-22.31-55.932-52.066-55.932-52.066s-8.6862 32.211-1.05 55.422c6.3932 19.433 29.405 30.218 28.761 33.005-8.2118 35.532-5.9715 73.192-38.966 110.23l62.117 15.446c-12.283-45.899 4.5511-79.183 13.297-113.8 0.82825-3.2781 27.575-4.7983 41.397-17.855 19.296-18.228 27.297-48.843 27.297-48.843s-58.789 3.8425-76.922 18.463z" fill="#afa8e7"/></g><path d="m84.289 30.939c-2.4077-25.604 10.409-75.755 17.381-75.663 12.816 0.16968 33.486 21.997 40.627 45.365 5.9785 19.565-2.4009 44.345-0.26826 46.25 27.193 24.3 43.934 52.425 92.244 63.668l-52.316 60.535c-16.422-44.586-45.656-61.504-72.757-84.747-2.5665-2.2011-29.288 12.266-48.109 9.5645-26.274-3.7711-51.825-28.354-53.45-34.234-1.7987-6.511 53.404-32.233 76.648-30.739z" fill="#593299"/><g><path d="m173.81 263c-45.461-11.822-80.054-55.933-73.857-62.236 7.8633-7.9979 103.97 35.23 164.11 26.216-8.6209-0.13377-10.898 36.507-10.898 36.507s-11.683 6.5245-19.058 7.2584c-14.195 1.4125-29.687 0.21595-60.302-7.7451z" fill="#593299"/><path d="m193.38 299.73c-46.68-5.2308-87.2-43.97-81.963-51.09 6.6449-9.0356 107.93 20.073 166.18 2.5905-8.5522 1.0946-5.5906 37.686-5.5906 37.686s-10.636 8.121-17.831 9.897c-13.849 3.4184-29.354 4.4391-60.79 0.91649z" fill="#593299"/><path d="m212.36 27.818c5.6577-7.5735 40.475 2.7634 46.071 20.74 9.2906-18.167 46.727-25.618 51.582-21.477 6.1602 5.2546-29.727 38.637-23.51 67.419h-54.034c-0.94669-28.554-24.799-60.404-20.109-66.682z" fill="#593299"/><g><path d="m394.88 166.95c-84.612 3.3845-140.31 59.416-140.31 128.32 0 2.0942 0.0486 4.1713 0.14453 6.2305 0 0 278.65 27.956 278.8-14.45 0.49692-137.47 1.6987-125.71-138.64-120.1z" fill="#593299"/><g><path d="m274.6 58.949c-71.837 0-119.03 59.416-119.03 128.32 0 58.027 31.1 102.94 100.84 117.85s152.14-57.464 138.12-134.31c-14.014-76.844-51.649-111.86-119.93-111.86z" fill="#593299"/><path d="m274.6 70.949c-71.837 0-106.03 53.416-106.03 115.82s41.252 111.85 106.03 110.16 106.36-52.701 108.15-111.58-36.317-114.41-108.15-114.41z" fill="#d7d8ff"/></g><g><path d="m393.35 176.95c-86.139 6.1267-127.46 53.416-127.46 115.82 0 2.9403 256.9 14.187 257.47-1.4141 4.4956-121.09 5.195-124.02-130.01-114.41z" fill="#d7d8ff"/><path d="m393.11 170.84c-17.577 1.721-37.107 6.7234-50.561 15.838 45.186-9.0674 91.556-14.584 140.5-12.374-40.066-9.4394-58.608-6.5296-89.941-3.4641z" fill="#593299"/></g></g><path d="m215.72 31c23.739 5.2882 37.116 8.7738 42.712 26.75 9.2906-18.167 20.298-21.833 45.572-26.25-10.57 18.803-32.159 37.273-17.5 65h-54.034c2.7667-30.41-8.8157-46.566-16.75-65.5z" fill="#d7d8ff"/><path d="m219.69 297.7c-47.253-4.3333-73.039-17.828-102.8-45.647 48.471 4.3435 107.33 16.68 165.58-0.80202l-6.4889 34.876s-9.9477 9.7971-56.291 11.572z" fill="#d7d8ff"/><path d="m200.14 264.73c-46.155-11.015-68.635-27.781-94.129-59.552 47.36 11.198 102.74 31.526 162.88 22.512l-11.387 33.598s-11.241 8.2816-57.365 3.4425z" fill="#d7d8ff"/><g><g fill="#593299"><g transform="translate(47.376 -14.142)"><path d="m251.72 160.87a8.8315 29.345 0 0 1-8.8315 29.345 8.8315 29.345 0 0 1-8.8315-29.345 8.8315 29.345 0 0 1 8.8315-29.345 8.8315 29.345 0 0 1 8.8315 29.345z"/><path d="m233.25 125.64c1.4624 7.3613 4.7314 13.784 14.863 16.131l-5.1457 3.8928c-12.714-5.0922-11.692-18.416-9.7177-20.024z"/><path d="m222.32 132.44c3.3955 8.2384 8.6798 14.969 21.021 15.373l-5.099 5.7173c-15.979-3.0091-17.852-18.764-15.922-21.09z"/><path d="m208.38 146.47c6.9774 9.996 16.03 17.418 32.632 14.299l-5.1148 9.1474c-22.233 0.71903-29.405-19.766-27.518-23.446z"/></g><g transform="matrix(-1 0 0 1 580.18 -14.392)"><path d="m251.72 160.87a8.8315 29.345 0 0 1-8.8315 29.345 8.8315 29.345 0 0 1-8.8315-29.345 8.8315 29.345 0 0 1 8.8315-29.345 8.8315 29.345 0 0 1 8.8315 29.345z"/><path d="m233.25 125.64c1.4624 7.3613 4.7314 13.784 14.863 16.131l-5.1457 3.8928c-12.714-5.0922-11.692-18.416-9.7177-20.024z"/><path d="m222.32 132.44c3.3955 8.2384 8.6798 14.969 21.021 15.373l-5.099 5.7173c-15.979-3.0091-17.852-18.764-15.922-21.09z"/><path d="m208.38 146.47c6.9774 9.996 16.03 17.418 32.632 14.299l-5.1148 9.1474c-22.233 0.71903-29.405-19.766-27.518-23.446z"/></g></g><g><path d="m502.78 196.86c-0.21541 6.2447-0.86808 6.8137-23.533 18.189-22.665-11.625-22.908-12.315-22.908-18.564 1e-5 -3.4984 10.118-4.0637 22.908-4.0637s23.658 0.81531 23.533 4.4387z" fill="#593299"/><g><path d="m458.43 219.37c-15.334 0.6043-23.515 8.6714-16.948 21.442 7.2813 16.648 33.626 10.077 39.604-6.0566 5.9775 16.133 32.32 22.704 39.602 6.0566 6.567-12.771 2.364-21.015-12.97-21.619-11.237 1.5032-8.0054 6.0683 0.82694 3.8139 16.205 5.9773 5.7095 26.806-11.228 20.631-9.5589-5.6252-13.145-13.742-16.231-13.742-3.0866 0-6.671 8.1172-16.229 13.742-16.937 6.1749-23.544-14.654-7.3387-20.631 8.8324 2.2544 12.151-2.134 0.91337-3.6372z" fill="#593299"/><path d="m498.38 252.04c0 7.8826-1.2425 21.152-16.957 19.396-13.148-1.4692-15.737-14.197-15.737-22.08s14.862-17.349 14.862-17.349 17.831 12.15 17.831 20.032z" fill="#593299"/><path d="m494.5 252.29c0 6.0119-0.94761 16.132-12.932 14.793-10.028-1.1205-12.002-10.828-12.002-16.84s11.072-11.258 11.072-11.258 13.863 7.2926 13.863 13.304z" fill="#ff90d5"/></g></g></g></g><path d="m89.639 35.563c-2.4077-25.604 15.69-74.788 15.69-74.788s25.666 21.313 32.807 44.682c5.9785 19.565-6.6082 41.643-4.4756 43.549 20.985 18.753 37.615 42.13 66.316 56.993 8.4903 4.3966-20.56 41.229-25.358 33.857-17.662-27.136-42.585-41.858-63.896-60.135-2.5665-2.2011-25.299 11.975-44.12 9.274-26.274-3.7711-50.461-24.175-50.461-24.175s50.253-30.75 73.498-29.256z" fill="#afa8e7"/><path d="m89.639 35.563c-2.4077-25.604 15.69-74.788 15.69-74.788s25.666 21.313 32.807 44.682c5.9785 19.565-6.6082 41.643-4.4756 43.549 20.985 18.753 37.615 42.13 66.316 56.993 8.4903 4.3966-20.56 41.229-25.358 33.857-17.662-27.136-42.585-41.858-63.896-60.135-2.5665-2.2011-25.299 11.975-44.12 9.274-26.274-3.7711-50.461-24.175-50.461-24.175s50.253-30.75 73.498-29.256z" fill="#afa8e7"/></g><path d="m229.81 282.14h87.681s-10.217 53.681-1.4142 67.175 16.49 16.077 16.49 16.077c-21.278 9.0597-23.795 13.331-58.936 12.482-35.328-0.85355-39.283-5.3263-57.248-13.018 0 0 8.6472-0.26036 18.376-16.956s-4.9498-65.761-4.9498-65.761z" fill="#d7d8ff"/></g><path d="m344.18 682.1c12.66 14.316 37.135 13.743 47.591-4.8279-10.739-43.608-7.4635-88.494-6.4024-130.86 2.746-19.245-17.437-20.742-35.304-18.457-24.117 3.0847-29.104 26.947-27.859 31.914 10.236 40.839 22.104 78.584 21.974 122.23z" fill="#593299" stroke-width="5"/><path d="m327.5 552.71c9.4031 22.687 32.938 29.129 53.405 10.929 5.1716-57.484 19.898-111.14 44.706-159.63 6.0646-11.854-3.0262-32.381-3.0262-32.381s-16.698-1.4386-27.284-3.6284c-30.599-6.329-42.132 19.309-42.695 25.866-4.6259 53.909-6.7087 105.85-25.106 158.85z" fill="#d7d8ff" stroke-width="5"/><path d="m347.38 679.37c12.245 13.847 30.572 12.672 40.686-5.291-10.387-42.18-8.2732-83.579-7.2468-124.56 2.6561-18.615-12.79-19.089-30.072-16.878-23.328 2.9837-25.577 22.721-24.373 27.525 9.9006 39.502 21.131 76.984 21.005 119.2z" fill="#d7d8ff" stroke-width="5"/><g transform="matrix(-.93671 -.39617 .092067 .69535 414.98 165.83)" stroke-width="6.3765"><path d="m108.33 707.69 4.9498 8.5737c-8.5708-3.9775 6.6317 69.318-3.763 78.26-2.9269 1.7715-14.765 2.0529-16.44-6.7175-2.5911-13.565 0.21684-78.138 15.253-80.116z" fill="#593299"/><path d="m107.35 707.25h13.435c-11.015 8.8132-9.1315 63.404-11.099 81.618-0.50028 4.631-11.75 6.4891-13.435 0-6.4218-24.729 3.3285-73.592 11.099-81.618z" fill="#d7d8ff"/></g><path d="m669.22 484.85c4.5467 24.134-11.625 42.406-38.716 38.375-35.788-45.28-77.481-82.131-124.78-109.14-11.563-6.6018-15.189-28.757-15.189-28.757s13.188-10.342 20.85-17.969c22.146-22.043 45.83-6.8979 49.889-1.718 33.375 42.587 63.547 84.922 107.95 119.21z" fill="#d7d8ff" stroke-width="5"/><path d="m532.63 439.83c-5.1215-18.411 8.6772-38.634 29.948-37.301 30.743 32.74 70.183 54.417 106.31 76.583 17.641 8.1688 7.9137 25.917-3.7261 39.663-15.712 18.555-38.445 9.7541-41.935 6.0066-28.693-30.811-53.902-61.308-90.595-84.952z" fill="#593299" stroke-width="5"/><path d="m536.66 438.62c-4.9538-17.808 6.0048-32.545 26.579-31.256 29.736 31.668 65.619 52.422 100.56 73.862 17.063 7.9013 9.0551 21.118-2.2036 34.414-15.197 17.948-32.98 9.0946-36.356 5.4697-27.754-29.802-53.089-59.62-88.58-82.49z" fill="#d7d8ff" stroke-width="5"/></g><g transform="translate(-.70711 -26.163)"><g><path d="m748.83 400.55c-6.8261 0-12.4 5.5743-12.4 12.4v72.832c0 6.8261 5.5743 12.398 12.4 12.398h247.49c6.8261 0 12.4-5.5724 12.4-12.398v-72.832c0-6.8261-5.5743-12.4-12.4-12.4z" fill="#593299" stop-color="#000000"/><path d="m748.83 403.05h247.49c5.4843 0 9.8995 4.4152 9.8995 9.8995v72.832c0 5.4843-4.4152 9.8995-9.8995 9.8995h-247.49c-5.4843 0-9.8995-4.4152-9.8995-9.8995v-72.832c0-5.4843 4.4152-9.8995 9.8995-9.8995z" fill="#ffffff" stop-color="#000000"/><path d="m748.83 403.05h3.4874v92.631h-3.4874z" fill="#ffbcbc" stop-color="#000000"/><path d="m1006.2 412.95v2.832h-267.29v-2.832z" fill="#d7d8ff" stop-color="#000000"/><path d="m1006.2 432.95v2.832h-267.29v-2.832z" fill="#d7d8ff" stop-color="#000000"/><path d="m1006.2 452.95v2.832h-267.29v-2.832z" fill="#d7d8ff" stop-color="#000000"/><path d="m1006.2 472.95v2.832h-267.29v-2.832z" fill="#d7d8ff" stop-color="#000000"/><path d="m741.98 492.95c1.7749 1.6939 4.1832 2.7305 6.8418 2.7305h247.49c2.6586 0 5.0668-1.0365 6.8418-2.7305z" fill="#d7d8ff" stop-color="#000000"/></g><path d="m872.6 430.19c-3.994 0.96392-1.1546 7.2472-2.0123 10.522 0.1279 7.7123-0.2558 15.531 0.1919 23.177 6.8457 3.2633 5.5593-16.135 9.6525-4.6158 2.3704 6.2911 14.248 4.4252 6.2761-1.651-11.784-3.2352 5.014-14.884 0.2495-17.591-4.9187 1.2762-13.106 13.867-11.311 1.8044-0.034-3.5711 2.8985-11.387-3.0469-11.645zm-50.165 0.0423c-3.9966 0.83245-1.174 7.1399-2.0239 10.352v22.862c10.089 1.7213 1.8021-18.445 10.839-19.209 9.4363 1.4805 0.322 16.165 8.0624 18.825 7.217-8.0996 1.4944-23.836-10.048-23.267-8.5726 3.7505 1.5844-10.364-6.8302-9.5632zm-40.015 1.9393c-15.491 0.45305-23.33 24.552-9.8674 33.2 3.2541 5.5659 21.39 3.1646 15.754-2.176-8.5453 2.9433-19.201-2.8206-17.816-12.715-0.6255-10.278 13.309-19.634 21.326-11.271 6.1034 1.9212 4.4894 19.47-0.2119 11.896 2.7069-12.969-15.641-14.769-17.17-2.7978-1.3544 9.5303 9.3323 13.206 16.882 10.54 10.512-1.1496 12.368-15.17 5.9274-21.85-3.8152-4.0609-9.5255-4.9054-14.824-4.827zm25.194 2.4625c-5.3434 6.7394-3.7287 17.947-1.2185 25.369 2.1754 6.3626 14.219 4.1356 6.5244-1.2431-6.97-5.7731-0.6514-15.407 4.3906-17.123-5.0025-0.24379-6.6971-4.9552-9.6965-7.002zm159.66 4.3106c-7.0024-0.0313-4.1544 10.887 1.5546 4.9474 7.7612 1.0614-0.3035 9.1658-4.4998 5.5008-14.019 6.2701 4.713 22.972 12.661 12.62 5.2568-7.7335 2.2625-24.641-9.716-23.068zm-11.423 0.0158c-5.6759 4.0084-16.15 0.19966-12.205 11.172-1.509 3.8433-0.4961 18.646 4.7816 10.558 0.9179-7.197 0.3505-17.955 9.795-17.483 0.7172-1.6822-0.2946-4.2827-2.3713-4.2469zm-98.953 0.41291c-11.292-0.68361-14.331 14.196-8.623 21.745 2.0826 6.1091 18.585 5.3847 13.88-1.4559-6.4901 3.9017-16.833-8.1205-4.5084-5.6722 13.25 3.0656 9.7365-14.802-0.4029-14.618l-0.3457 2e-3zm46.612 0c-11.29-0.68537-14.333 14.197-8.6234 21.744 2.0821 6.1097 18.585 5.3855 13.88-1.4554-6.4886 3.8858-16.836-8.1146-4.5093-5.6722 13.244 3.0641 9.7409-14.798-0.3995-14.618l-0.3482 2e-3zm14.274 0.47011c-2.5276 6.7136-2.3828 16.79 3.0668 22.597 3.8812 4.1274 14.537 1.9724 16.457-1.4134 0.5251-6.2255 3.8452-18.851-3.4608-20.276-0.068 7.1404-1.7469 25.144-11.864 15.233-1.6502-5.1279 4.8697-15.888-4.1989-16.14zm-61.398 4.3869c9.853 2.7459-3.8676 9.1857-4.94 3.1344 1.2359-1.5194 3.0506-2.6884 4.94-3.1344zm46.611 0c9.8003 2.7272-3.7363 9.1811-4.9639 3.1681 1.232-1.543 3.0639-2.7123 4.9639-3.1681zm-119.2 0.63014c10.322 3.4067-7.6549 16.189-4.2983 3.9767 0.5452-1.9209 2.0295-4.1144 4.2983-3.9767zm189.82 8.5134c3.5811 8.7279-16.58 4.3566-4.9994 0.0822 1.6013-0.2164 3.5436-0.29616 4.9994-0.0822z" fill="#e7a8cf" stroke-linecap="round" stroke-linejoin="round" stroke-width="5"/></g><g><g transform="matrix(.009931 1.0365 -.66862 -.41048 1464.2 664.29)" stroke-linecap="round" stroke-linejoin="round" stroke-width="6.0238"><path d="m105.56 704.72 7.7182 11.546c-8.5708-3.9775 8.2936 71.928-2.1012 80.87-2.9269 1.7715-17.44 0.48793-19.115-8.2824-2.5911-13.565-1.5385-82.156 13.498-84.134z" fill="#593299"/><path d="m107.35 707.25h13.435c-11.015 8.8132-9.1315 63.404-11.099 81.618-0.50028 4.631-11.75 6.4891-13.435 0-6.4218-24.729 3.3285-73.592 11.099-81.618z" fill="#d7d8ff"/></g></g></g></svg>
