<svg xmlns="http://www.w3.org/2000/svg" xmlns:svg="http://www.w3.org/2000/svg" id="svg62" width="340.12" height="340.12" version="1.1" viewBox="0 0 340.12 340.12" xml:space="preserve"><defs id="defs2"><radialGradient id="radialGradient2" cx="221.82" cy="182.5" r="170.06" gradientTransform="translate(-51.758,-12.44)" gradientUnits="userSpaceOnUse"><stop id="stop1" offset=".809" stop-color="#f0ebff"/><stop id="stop2" offset=".868" stop-color="#cfb9ff" style="stop-color:#e3d6ff;stop-opacity:1"/></radialGradient></defs><g id="g5" transform="matrix(-1,0,0,1,340.004,0)"><g id="g4" stroke-width="1.412" transform="matrix(0.70833,0,0,0.70833,-113.33,0)"><rect id="rect2" width="800" height="480" x="0" y="0" fill="#5bcefa"/><rect id="rect3" width="800" height="288" x="0" y="96" fill="#f5a9b8"/><rect id="rect4" width="800" height="96" x="0" y="192" fill="#fff"/></g><path id="path4" fill="url(#radialGradient2)" stroke-linecap="round" stroke-linejoin="round" stroke-width="25.002" d="M 170.06,14.98 C 84.413,14.980541 14.98,84.411 14.98,170.06 c -5.41e-4,85.647 69.43,155.08 155.08,155.08 85.648,5.4e-4 155.08,-69.432 155.08,-155.08 C 325.13946,84.412 255.707,14.98 170.06,14.98 Z" style="mix-blend-mode:normal;fill:url(#radialGradient2);paint-order:stroke fill markers"/><text id="text4" x="-295.878" y="-26.161" fill="#593299" stroke-linecap="round" stroke-linejoin="round" stroke-width="6.644" font-family="Monospace" font-size="24.203" font-weight="bold" text-align="center" text-anchor="middle" transform="matrix(-0.78066144,-0.62495417,-0.62495417,0.78066144,0,0)" xml:space="preserve" style="font-style:italic;font-variant:normal;font-weight:500;font-stretch:normal;font-family:'Noto Sans';-inkscape-font-specification:'Noto Sans Medium Italic';fill:#c0a4ff;fill-opacity:1"><tspan id="tspan4" x="-295.878" y="-26.161" fill="#593299" stroke-width="6.644" style="font-style:italic;font-variant:normal;font-weight:500;font-stretch:normal;font-family:'Noto Sans';-inkscape-font-specification:'Noto Sans Medium Italic';fill:#c0a4ff;fill-opacity:1">THEKEURA</tspan></text></g><g id="g62" transform="matrix(-1,0,0,1,340.004,0)"><g id="g7" stroke-linecap="round" stroke-linejoin="round" stroke-miterlimit="10" stroke-width="5.664" transform="matrix(0.74195248,-0.47822034,0.47822034,0.74195248,-26.908641,109.47085)"><path id="path5" fill="#593299" d="m 76.89,93.671 c 5.7857,3.5077 12.62,8.5117 12.431,16.056 0.60321,3.9408 -2.7936,10.837 -1.4913,12.783 6.6343,-2.7965 15.624,-2.0595 19.688,4.6101 3.6326,4.9191 6.0296,10.605 8.1473,16.304 4.6959,-2.9835 11.608,-2.6455 11.711,4.3318 4.5363,13.565 9.2939,27.058 14.253,40.475 1.519,3.7519 -7.3874,5.7682 -10.321,8.9461 -5.0851,3.7617 -10.579,7.0423 -16.597,9.0735 -4.1106,3.4838 -7.623,-2.6916 -12.061,-4.4377 -11.716,-7.5383 -23.664,-14.756 -35.47,-22.121 -3.489,-3.8023 4.6601,-8.1189 -2.1411,-9.8851 -5.3558,-4.0232 -11.795,-9.6163 -10.236,-17.136 -0.14312,-4.4341 6.0544,-9.2597 5.4724,-11.578 -6.0241,-1.0379 -11.64,-3.8135 -15.791,-8.3525 -2.3099,-3.3558 -11.319,-8.2979 -5.7679,-12.153 5.9809,-1.5028 10.669,-7.431 17.335,-5.9858 3.9637,1.2984 6.1002,1.8337 5.832,-3.0938 1.8374,-6.8528 8.9672,-10.246 11.967,-16.459 0.57413,-1.0558 1.8706,-1.6439 3.0398,-1.3792 z" style="mix-blend-mode:normal"/><path id="path6" fill="#afa8e7" d="m 112.32,204.77 c -0.57849,-0.67169 -32.695,-20.946 -43.055,-26.961 -1.5867,-0.92122 3.8946,-5.7722 2.3629,-6.7617 -5.2425,-3.3866 -9.9413,-7.1285 -12.582,-10.922 -6.3639,-9.1411 7.8567,-19.678 6.9489,-20.107 -11.306,-5.347 -10.525,1.5652 -26.464,-16.727 11.697,-3.5438 9.1604,-9.7533 25.161,-3.0304 -2.984,-12.869 5.3745,-12.761 11.614,-23.825 13.212,9.6128 11.286,10.487 6.8854,30.736 -0.14408,0.66292 13.805,-7.8813 20.704,-0.0372 3.9972,4.545 7.24,11.667 9.7638,18.82 0.82774,2.3459 9.1437,-3.4072 9.8183,-1.1446 2.7144,9.1051 15.329,44.334 15.663,44.781" style="mix-blend-mode:normal"/><path id="path7" fill="#d7d8ff" d="m 83.291,126.74 -3.2026,-1.6829 0.32415,10.595 -9.0937,-3.0576 1.5456,8.6302 -6.8668,-1.207 c -11.306,-5.347 -10.525,1.5652 -26.463,-16.727 11.697,-3.5438 9.1604,-9.7533 25.161,-3.0304 -2.984,-12.869 5.3743,-12.761 11.613,-23.825 13.107,9.5355 11.308,10.524 6.9825,30.303 z" style="mix-blend-mode:normal"/></g><g id="g11" transform="matrix(0.88271,0,0,0.88271,44.777,8.0355)"><path id="path8" fill="#593299" stroke-width=".995" d="m 150.87,216.99 c -0.76135,0.0409 -1.4378,0.49915 -1.7582,1.191 -1.301,2.8116 -3.1946,4.3525 -5.3578,6.1483 -2.1632,1.7958 -4.6339,3.8938 -5.9144,7.5166 -0.85369,2.4153 1.674,4.2924 1.5703,9.2092 -1.5198,19.372 -2.328,61.279 -2.3608,64.755 -0.0742,7.8397 -0.17513,12.38 1.3718,16.653 1.4884,4.1115 4.4878,7.5906 9.7302,13.029 0.18579,3.5595 1.5896,6.243 3.169,7.9791 1.0837,1.2193 2.4252,2.1512 3.7538,3.0786 1.4341,1.2866 3.1758,1.5975 4.5496,1.6607 1.2637,0.0582 4.8251,0.11463 7.0983,-0.92166 0.96327,1.103 2.3874,1.0201 3.7397,1.0208 2.9086,-0.0161 4.6479,-0.5542 5.8151,-1.5951 1.5901,0.78019 3.1771,1.4025 5.5829,1.5579 2.5872,0.16709 4.8464,-0.60132 6.4425,-2.0081 1.5961,-1.4068 2.4374,-3.3249 3.0963,-5.2639 0.55711,-1.6394 7.6871,-24.564 -10.585,-32.12 -4.7565,-26.454 1.447,-69.975 -5.6691,-85.981 -5.5873,-12.568 0.11866,-7.1239 -24.275,-5.9087 z"/><path id="path9" fill="#d7d8ff" stroke-linecap="round" stroke-linejoin="round" stroke-miterlimit="10" stroke-width="5.664" d="m 181.45,344.16 c -2.918,-0.18846 -4.0191,-0.8565 -6.3181,-2.1125 0,0 0.51456,2.1145 -4.8529,2.1441 -4.69,0.0258 -3.1206,-3.9974 -3.1206,-3.9974 0,0 1.3675,3.9087 -4.5929,3.8146 -1.1362,-0.0179 -4.0517,0.59136 -5.839,-1.0122 -1.0766,-0.9659 -6.1936,-3.2459 -6.1143,-10.064 -10.863,-11.21 -10.815,-12.687 -10.671,-27.867 0.03,-3.1955 0.82167,-43.961 2.2793,-62.542 0.33985,-4.332 -2.0403,-7.2419 -1.6293,-8.4049 2.1145,-5.9824 7.9242,-6.7528 10.841,-13.055 l 19.206,-1.0814 c 0.29932,3.8226 2.6787,5.5968 3.0383,11.361 0.17605,2.8218 1.6193,8.9114 1.801,12.065 1.1418,19.812 2.3393,45.304 2.8796,65.592 3.6804,2.5331 9.4471,7.3346 11.215,11.628 1.1759,7.4242 1.1594,22.875 -8.1208,23.531 z" style="mix-blend-mode:normal"/><path id="path10" fill="#593299" stroke-linecap="round" stroke-linejoin="round" stroke-width="5.664" d="m 166.62,339.92 c 0.70507,1.6513 0.35443,3.5018 0.42035,5.2736 h -0.535 c -0.0596,-1.8133 -0.47351,-3.827 0.11465,-5.2736 z"/><path id="path11" fill="#593299" stroke-linecap="round" stroke-linejoin="round" stroke-width="5.664" d="m 175.33,339.34 c 0.70507,1.6513 0.35443,3.5018 0.42035,5.2736 h -0.535 c -0.0596,-1.8133 -0.47351,-3.827 0.11465,-5.2736 z"/></g><g id="g15" transform="matrix(0.88271,0,0,0.88271,44.777,8.0355)"><path id="path12" fill="#593299" stroke-width=".995" d="m 136.21,216.05 -23.252,1.2477 c -0.76136,0.0409 -1.4378,0.49915 -1.7582,1.191 -1.301,2.8116 -3.1946,4.3525 -5.3578,6.1483 -2.1632,1.7958 -4.6339,3.8938 -5.9144,7.5166 -0.85369,2.4153 1.674,4.2924 1.5703,9.2092 -1.5198,19.372 -2.3281,61.279 -2.3608,64.755 -0.0742,7.8397 -0.17513,12.38 1.3718,16.653 1.4884,4.1115 4.2646,10.214 7.1361,14.974 2.3749,3.9364 7.7391,7.8712 9.5169,9.1122 1.4341,1.2866 3.1758,1.5975 4.5496,1.6607 1.2637,0.0582 4.8251,0.11463 7.0983,-0.92166 0.96327,1.103 2.3874,1.0201 3.7397,1.0208 2.9086,-0.0161 4.6479,-0.5542 5.8151,-1.5951 1.5901,0.78019 3.1771,1.4025 5.5829,1.5579 2.5872,0.16709 4.8464,-0.60132 6.4425,-2.0081 1.5961,-1.4068 2.5211,-3.2984 3.0963,-5.2639 0.64224,-2.1946 5.9821,-22.282 -10.585,-32.12 -0.84962,-31.087 -3.1257,-73.306 -4.5301,-91.243 -0.0877,-1.1134 -1.047,-1.954 -2.1623,-1.8946 z"/><path id="path13" fill="#d7d8ff" stroke-linecap="round" stroke-linejoin="round" stroke-miterlimit="10" stroke-width="5.664" d="m 143.54,344.47 c -2.918,-0.18846 -4.0191,-0.8565 -6.3181,-2.1125 0,0 0.51456,2.1145 -4.8529,2.1441 -4.69,0.0258 -3.1206,-3.9974 -3.1206,-3.9974 0,0 1.3675,3.9087 -4.5929,3.8146 -1.1362,-0.0179 -4.0517,0.59136 -5.839,-1.0122 -1.0766,-0.9659 -2.8436,0.96472 -8.6003,-8.6591 -5.7567,-9.6238 -8.329,-14.092 -8.1853,-29.272 0.0301,-3.1955 0.82167,-43.961 2.2793,-62.542 0.33984,-4.332 -2.0403,-7.242 -1.6293,-8.4049 2.1145,-5.9824 7.9242,-6.7528 10.841,-13.055 l 22.506,-1.2077 c 1.3664,17.45 3.6164,59.03 4.4183,89.145 3.6804,2.5331 9.4471,7.3346 11.215,11.628 1.1759,7.4242 1.1594,22.875 -8.1208,23.531 z" style="mix-blend-mode:normal"/><path id="path14" fill="#593299" stroke-linecap="round" stroke-linejoin="round" stroke-width="5.664" d="m 128.71,340.22 c 0.70508,1.6513 0.35444,3.5018 0.42036,5.2736 h -0.535 c -0.0596,-1.8133 -0.47352,-3.827 0.11464,-5.2736 z"/><path id="path15" fill="#593299" stroke-linecap="round" stroke-linejoin="round" stroke-width="5.664" d="m 137.42,339.65 c 0.70508,1.6513 0.35444,3.5018 0.42036,5.2736 h -0.535 c -0.0596,-1.8133 -0.47352,-3.827 0.11464,-5.2736 z"/></g><g id="g43" stroke-linecap="round" stroke-linejoin="round" stroke-width="1.185" transform="matrix(0.80636,0,0,0.88271,55.357,8.0355)"><g id="g21"><g id="g18" stroke-miterlimit="10"><path id="path16" fill="#593299" stroke-width="5.785" d="m 163.08,134.95 c 1.3134,0.0143 2.4798,0.90532 2.7381,2.1821 0.0805,0.39784 0.45671,4.06416 3.74204,4.43902 2.23279,0.25476 2.84402,2.85702 3.53896,4.26058 0.66979,1.35276 1.8641,2.3583 2.1623,4.0663 1.3708,7.8529 -0.78218,22.746 -1.0532,38.071 -0.271,15.325 2.0394,34.18 2.2927,42.287 0.0248,0.79112 -0.31767,1.5515 -0.93545,2.0806 -7.228,6.1889 -22.496,10.564 -35.906,11 -13.41,0.43627 -29.612,-2.4325 -36.983,-8.8484 -0.52503,-0.45704 -0.84937,-1.0877 -0.90902,-1.7629 -0.66193,-7.5061 3.9991,-27.57 2.7878,-43.72 -1.2113,-16.15 -4.3799,-32.039 -3.8662,-39.67 0.12609,-1.873 3.4487,-0.48357 4.4272,-1.5396 0.97858,-1.056 -0.20351,-4.5554 0.86579,-5.4656 1.0441,-0.88863 2.0242,-1.7327 2.6852,-2.4226 v -1.262 c 0,-0.37206 0.30086,-0.67073 0.67294,-0.67073 h 0.44347 c 0.51113,-0.95733 1.5945,-1.5701 2.7844,-1.4606 0.99703,0.0919 1.8161,0.66894 2.2395,1.4606 h 45.449 c -0.1832,-1.3944 0.78567,-2.7065 2.2549,-2.9764 0.19143,-0.0352 0.38161,-0.0509 0.56923,-0.0486 z" style="mix-blend-mode:normal"/><path id="path17" fill="#a8bce7" stroke-width="5.785" d="m 163.05,137.64 c 0.76401,3.776 8.8468,9.351 9.431,12.698 1.2355,7.078 -0.43368,23.306 -0.74286,39.701 -0.32468,17.217 2.8452,32.972 3.1113,41.49 -13.906,12.294 -58.755,12.15 -71.17,1.3425 -0.62532,-7.0908 4.6698,-23.767 3.8928,-39.747 -0.87118,-17.918 -4.5695,-36.053 -4.0602,-43.619 0.20663,-3.0695 8.4814,-7.2781 8.7898,-10.315" style="mix-blend-mode:normal"/><path id="path18" fill="#d7f4ff" stroke-width="5.441" d="m 144.77,154.43 c 4.4502,-1.4427 9.9079,-0.34511 11.97,4.2674 2.8844,4.4515 2.0448,9.8912 5.6435,13.93 2.118,6.6242 1.8911,15.154 -3.5113,20.209 2.5598,5.6176 2.4493,12.387 -0.33053,17.903 0.0559,4.6412 1.2529,9.5038 -1.1333,13.834 -1.855,5.0476 -7.2651,8.4393 -12.373,6.1482 -4.0631,-1.316 -7.74,-0.49345 -11.913,-0.64035 -3.1617,-3.6265 -6.8277,1.0463 -10.717,-0.31814 -5.8351,-2.5725 -8.817,-9.741 -7.7719,-15.793 -0.17054,-5.2603 -4.0645,-9.7489 -3.3125,-15.174 0.0595,-5.159 4.0741,-9.2087 -0.10534,-13.575 -2.55,-6.908 -1.3701,-16.053 4.7193,-20.737 -1.9612,-7.005 2.8702,-5.4446 8.2387,-5.8639 1.8441,-4.215 7.772,-7.2594 11.883,-4.317 2.9169,0.14061 6.5496,-3.9214 8.7119,0.12756 z" style="mix-blend-mode:normal"/></g><g id="g20" fill="none" stroke="#593299" stroke-linecap="round" stroke-linejoin="round" stroke-width="1" transform="matrix(1.2401,0,0,1.1329,-68.651,-9.1032)"><path d="m 171.67,175.18 c -3.149,-4.6564 -4.457,-13.284 -3.24,-20.216" style="paint-order:stroke fill markers" id="path19"/><path d="m 165.99,175.03 c 2.0604,-4.6564 2.365,-13.543 -0.47244,-20.474" style="paint-order:stroke fill markers" id="path20"/></g></g><g id="g22" stroke-miterlimit="10" transform="matrix(1.2401,0,0,1.1329,-68.651,-9.1032)"><path id="path21" fill="#000" d="m 196.41,163.45 -0.10743,0.0234 c -18.85065,4.17836 -36.4926,2.99067 -54.01178,0.85071 -1.62951,-0.19904 -2.55355,-13.28632 -4.18181,-13.49829 l -1.0664,-0.13867 -0.0605,1.0742 c -0.13432,2.3652 -0.89972,17.6055 -0.89972,19.923 0,1.9203 -0.59144,5.1902 -1.043,9.1738 -0.45153,3.9836 -0.75198,8.7241 -0.11328,13.805 1.6534,13.152 -4.3792,31.8 -12.662,47.502 -4.1415,7.8509 -8.84689,14.96812 -13.344,20.346 -2.93297,3.50739 -6.18298,6.91119 -10.240396,8.92352 -1.047447,0.5195 -2.148703,0.94626 -3.312204,1.25813 l 3.290272,3.92842 10.496728,12.53258 26.96652,-1.23133 13.82948,6.68645 22.902,-3.5625 c 0.22371,0.0835 2.7591,1.0351 6.2832,2.084 3.6754,1.0939 8.1245,2.2187 11.508,2.2832 3.3832,0.0645 8.2759,-0.87687 12.406,-1.8184 4.0742,-0.92868 10.29132,-7.8851 10.38022,-7.9105 l 20.68408,3.4574 15.75,-21.17 c -5.39515,1.26645 -10.07124,-1.21061 -14.3677,-4.35349 -4.5572,-3.4868 -9.4402,-8.699 -14.121,-14.918 -9.3618,-12.438 -17.93,-28.911 -21.904,-43.67 -0.1368,-0.50799 -0.27436,-1.8576 -0.33985,-3.4805 -0.0655,-1.6228 -0.0831,-3.5697 -0.0781,-5.5078 0.01,-3.8763 0.11039,-7.6691 0.0781,-9.0371 -0.24966,-10.592 0.70313,-14.396 0.70313,-14.396 l 0.0293,-0.11719 v -0.1211 c 0,-2.2607 0.67997,-5.1586 0.54883,-7.9668 l -0.043,-0.95313 z" stop-color="#000"/><path id="path22" fill="#474747" d="m 194.99,166.82 c -13.58,2.7872 -27.57,2.9422 -41.338,1.715 -4.8391,-0.40349 -9.6634,-0.96773 -14.48,-1.5783 -0.12878,2.9853 0.0308,5.9891 -0.46485,8.9492 -0.29849,2.2063 -0.61215,4.4261 -0.82296,6.5644 -0.27332,2.7302 -0.39438,5.6798 -0.27665,8.2989 0.0415,0.87618 0.0919,1.6072 0.18379,2.5309 1.1187,8.1138 -0.2193,16.342 -2.3471,24.18 -5.5465,19.94793 -17.56603,40.84872 -28.602,51.685 -1.9438,1.8621 -4.0314,3.618 -6.416,4.8906 3.3913,4.0488 6.7826,8.0977 10.174,12.146 8.5449,0.31633 17.89504,-2.58676 26.44004,-2.27078 4.6499,1.4604 8.49436,6.142 13.14396,7.6028 7.6517,-1.191 14.09643,-5.80125 21.74743,-6.99355 5.1474,1.8497 11.60057,6.99895 17.03757,7.74355 13.39347,1.55569 17.2798,-7.48969 20.64948,-8.3691 7.4889,-0.81576 15.38052,3.1985 22.86952,2.3827 3.7637,-5.0573 7.5273,-10.115 11.291,-15.172 -4.697,-1.0207 -8.7298,-3.8886 -12.335,-6.9459 -13.16139,-11.46448 -26.87926,-33.24514 -33.628,-54.157 -0.69903,-2.3466 -1.5766,-4.6838 -1.6227,-7.1623 -0.32806,-6.478 0.0495,-12.965 -0.10126,-19.446 0.0141,-3.8416 0.15725,-7.7011 0.78719,-11.494 0.043,-1.8333 0.35988,-3.6452 0.49376,-5.472 -0.8146,-0.0627 -1.5886,0.2373 -2.3828,0.3711 z" stop-color="#000"/></g><g id="g24" stroke-width="5.926"><path id="path23" fill="#c6ab31" d="m 134.76,181.34 c 1.8612,0.17495 2.429,2.2374 2.5795,3.7545 1.1911,0.73607 2.73,0.37145 4.073,0.63244 1.958,0.21433 4.4389,1.0614 4.8067,3.2793 0.36375,1.8468 -1.3933,2.842 -2.7522,3.559 -0.42144,1.313 0.52927,2.7763 0.64786,4.1662 0.43626,1.9738 0.26676,4.7199 -1.9144,5.5737 -1.7753,0.84305 -2.9371,-0.93545 -4.1962,-1.702 -2.1348,0.80508 -3.8733,2.6894 -6.2458,2.9541 -1.8666,0.47297 -4.1423,-1.1029 -3.7134,-3.143 0.28122,-1.247 1.6391,-2.6898 -0.15519,-3.5048 -1.8132,-1.5461 -4.1414,-3.2109 -4.1812,-5.8406 0.003,-1.8733 2.0514,-3.1972 3.7697,-2.557 1.7029,0.5936 1.7843,-1.7206 2.3964,-2.7389 0.77213,-2.005 2.1447,-4.4124 4.5756,-4.4518 z" style="mix-blend-mode:normal"/><path id="path24" fill="#f8ffa2" stroke-miterlimit="10" d="m 134.28,182.85 c 1.4244,0.1 1.4027,1.901 1.4662,2.9645 0.33598,1.3373 1.9616,1.1587 3.0247,1.3025 1.9181,0.13571 4.058,0.1158 5.619,1.4107 0.88231,1.1581 -0.55889,2.2531 -1.6039,2.5262 -1.0898,0.17446 -1.3785,1.2433 -1.0941,2.1701 0.33912,2.1835 1.3802,4.3504 0.84061,6.5935 -0.16738,1.1293 -1.6616,1.4081 -2.3223,0.51189 -0.76623,-0.57438 -1.3848,-2.0702 -2.5181,-1.4298 -2.1847,0.8592 -3.9159,2.7707 -6.321,3.0765 -0.98754,0.31152 -2.0824,-0.5249 -1.7137,-1.5837 0.22873,-0.97612 1.2095,-1.706 1.1113,-2.7583 -1.4905,-2.2282 -4.3314,-3.2861 -5.3788,-5.8551 -0.51838,-0.98983 0.47612,-2.121 1.5395,-1.7887 0.97472,0.0214 2.4387,0.88319 2.935,-0.37145 1.2998,-2.0285 1.5576,-4.6926 3.4663,-6.3238 0.27167,-0.22424 0.59461,-0.40287 0.94916,-0.44521 z" style="mix-blend-mode:normal"/></g><g id="g26" stroke-miterlimit="10" transform="matrix(1.2401,0,0,1.1329,-68.651,-9.1032)"><path id="path25" fill="#252525" d="m 184.27,181.98 c 0,0 2.0652,-16.024 2.9974,-21.958 0.90596,-5.7672 4.4911,-24.719 4.4911,-24.719 -0.13266,-1.012 0.43369,-2.6814 -1.3922,-2.3764 0,0 -3.8326,21.162 -4.7502,27.003 -0.92133,5.8651 -2.7696,21.838 -2.7696,21.838 z" stop-color="#000"/><path id="path26" fill="#1d1d1d" d="m 189.39164,132.74859 c 0,0 -3.8275,21.128 -4.7539,27.025 -0.9327,5.9376 -2.7754,21.879 -2.7754,21.879 l -0.11133,0.96093 3.3887,0.50586 0.13085,-1.0117 c 0,0 2.0696,-16.046 2.9942,-21.932 1.98978,-12.66681 4.8961,-24.43261 4.4218,-26.7564 -1.5819,-1.24094 -2.1109,-1.38836 -3.29492,-0.67069 z" stop-color="#000"/></g><g id="g28" stroke-miterlimit="10" transform="matrix(1.2401,0,0,1.1329,-68.651,-9.1032)"><path id="path27" fill="#252525" d="m 149.1,171.07 c 0,0 -0.98563,-11.516 -2.008,-17.108 -1.0183,-5.57 -4.5733,-20.094 -4.5733,-20.094 l -1.3761,1.4051 c 0,0 3.1116,13.277 4.1169,18.776 1.0345,5.6588 2.2609,17.223 2.2609,17.223 z" stop-color="#000"/><path id="path28" fill="#1d1d1d" d="m 143.06,131.89 c -1.82004,-1.32277 -2.36687,1.03244 -3.0195,3.082 l 0.125,0.53516 c 0,0 3.1165,13.308 4.1074,18.729 1.0163,5.5593 2.25,17.148 2.25,17.148 l 0.10742,1.0156 3.5449,-0.45313 -0.082,-0.95508 c 0,0 -0.97389,-11.484 -2.0195,-17.203 -1.037,-5.6725 -4.5859,-20.152 -4.5859,-20.152 z" stop-color="#000"/></g><g id="g29" stroke-width="1.032" transform="matrix(1.2011,0,0,1.0972,-62.093,-3.0062)"><path id="path29" fill="#2c2c2c" stroke-miterlimit="10" stroke-width="1.032" d="m 137.39,152.51 c -0.26195,7.7526 -0.94752,15.499 -0.87468,23.258 0.18216,5.2842 0.56605,10.563 0.51138,15.854 5.3854,1.1201 10.774,2.2899 16.279,2.6319 3.5006,0.35262 7.0064,0.29804 10.516,0.47459 11.068,0.55684 22.17,0.70995 33.248,0.92673 0.10444,-8.2874 0.77438,-16.569 2.2048,-24.736 -0.20799,-1.8729 -2.2457,-3.4092 -1.6238,-5.7352 -0.34524,-4.9048 -0.69188,-9.8095 -1.04,-14.714 -4.2302,6.4824 -9.7825,11.537 -17.61,13.567 -5.0258,0.98588 -9.3817,-4.067 -14.404,-2.509 -3.704,0.84307 -8.0822,5.1295 -11.68,3.184 -6.5421,-2.964 -11.01,-8.8726 -15.442,-14.281 -0.028,0.69336 -0.0561,1.3868 -0.084,2.0801 z" stop-color="#000"/></g><g id="g42" stroke-miterlimit="10" transform="matrix(1.2401,0,0,1.1329,-68.651,-9.1032)"><g id="g31" stroke-width="1.035" transform="matrix(1,0,0,0.93322,0,10.799)"><path id="path30" fill="#1d1d1d" d="m 167.92,162.09 c -1.2592,-0.0381 -2.5261,0.24205 -3.7754,0.9628 l -0.24609,0.14081 0.1582,33.101 7.9394,0.46789 -0.0366,-33.368 -0.31492,-0.36214 c -1.214,-0.54764 -2.4654,-0.90384 -3.7246,-0.94187 z" stop-color="#000"/><path id="path31" fill="#414141" d="m 164.45,196.31 -0.0151,-33.867 c 2.3451,-1.3207 4.8,-0.68294 7.1451,0.34969 l -0.0687,33.954 z" stop-color="#000"/></g><g id="g33" transform="translate(0,-2)"><path id="path32" fill="#1d1d1d" d="m 168.16,165.89 c -1.2643,0 -2.3008,1.0345 -2.3008,2.2988 0,1.2643 1.0364,2.3008 2.3008,2.3008 1.2644,0 2.2988,-1.0364 2.2988,-2.3008 0,-1.2643 -1.0345,-2.2988 -2.2988,-2.2988 z" stop-color="#000"/><path id="path33" fill="#353535" d="m 166.36,168.19 c 0,-0.99411 0.80588,-1.8 1.8,-1.8 0.99411,0 1.8,0.80588 1.8,1.8 0,0.99411 -0.80589,1.8 -1.8,1.8 -0.99411,0 -1.8,-0.80589 -1.8,-1.8 z" stop-color="#000"/></g><g id="g35" transform="translate(0,4)"><path id="path34" fill="#1d1d1d" d="m 168.16,165.89 c -1.2643,0 -2.3008,1.0345 -2.3008,2.2988 0,1.2643 1.0364,2.3008 2.3008,2.3008 1.2644,0 2.2988,-1.0364 2.2988,-2.3008 0,-1.2643 -1.0345,-2.2988 -2.2988,-2.2988 z" stop-color="#000"/><path id="path35" fill="#353535" d="m 166.36,168.19 c 0,-0.99411 0.80588,-1.8 1.8,-1.8 0.99411,0 1.8,0.80588 1.8,1.8 0,0.99411 -0.80589,1.8 -1.8,1.8 -0.99411,0 -1.8,-0.80589 -1.8,-1.8 z" stop-color="#000"/></g><g id="g37" transform="translate(0,10)"><path id="path36" fill="#1d1d1d" d="m 168.16,165.89 c -1.2643,0 -2.3008,1.0345 -2.3008,2.2988 0,1.2643 1.0364,2.3008 2.3008,2.3008 1.2644,0 2.2988,-1.0364 2.2988,-2.3008 0,-1.2643 -1.0345,-2.2988 -2.2988,-2.2988 z" stop-color="#000"/><path id="path37" fill="#353535" d="m 166.36,168.19 c 0,-0.99411 0.80588,-1.8 1.8,-1.8 0.99411,0 1.8,0.80588 1.8,1.8 0,0.99411 -0.80589,1.8 -1.8,1.8 -0.99411,0 -1.8,-0.80589 -1.8,-1.8 z" stop-color="#000"/></g><g id="g39" transform="translate(0,16)"><path id="path38" fill="#1d1d1d" d="m 168.16,165.89 c -1.2643,0 -2.3008,1.0345 -2.3008,2.2988 0,1.2643 1.0364,2.3008 2.3008,2.3008 1.2644,0 2.2988,-1.0364 2.2988,-2.3008 0,-1.2643 -1.0345,-2.2988 -2.2988,-2.2988 z" stop-color="#000"/><path id="path39" fill="#353535" d="m 166.36,168.19 c 0,-0.99411 0.80588,-1.8 1.8,-1.8 0.99411,0 1.8,0.80588 1.8,1.8 0,0.99411 -0.80589,1.8 -1.8,1.8 -0.99411,0 -1.8,-0.80589 -1.8,-1.8 z" stop-color="#000"/></g><g id="g41" transform="translate(0,22)"><path id="path40" fill="#1d1d1d" d="m 168.16,165.89 c -1.2643,0 -2.3008,1.0345 -2.3008,2.2988 0,1.2643 1.0364,2.3008 2.3008,2.3008 1.2644,0 2.2988,-1.0364 2.2988,-2.3008 0,-1.2643 -1.0345,-2.2988 -2.2988,-2.2988 z" stop-color="#000"/><path id="path41" fill="#353535" d="m 166.36,168.19 c 0,-0.99411 0.80588,-1.8 1.8,-1.8 0.99411,0 1.8,0.80588 1.8,1.8 0,0.99411 -0.80589,1.8 -1.8,1.8 -0.99411,0 -1.8,-0.80589 -1.8,-1.8 z" stop-color="#000"/></g></g></g><g id="g44" stroke-linecap="round" stroke-linejoin="round" stroke-miterlimit="10" stroke-width="5.664" transform="matrix(0.88271,0,0,0.88271,44.777,8.0355)"><path id="path43" fill="#593299" d="m 158.03207,116.082 c 1.4278,0.21946 2.4598,1.4808 2.3922,2.9238 -3.36614,11.95402 2.04098,14.33192 7.26071,22.81593 0.8069,1.31152 -0.0823,2.37554 0.77813,4.05907 -2.52183,2.76926 -16.97471,-14.61251 -15.33835,-16.4375 1.86061,-2.07508 1.0068,-5.4958 1.3983,-8.186 l -22.45018,-4.7705 c -2.1174,9.3273 -12.25279,17.185 -18.06689,24.178 -0.33689,0.40509 -1.22657,1.41551 -2.30333,2.53759 -0.86156,-4.62729 -3.4456,-3.34483 -2.34067,0.89641 -1.44239,1.67118 -2.92502,3.66034 -3.3932,3.2711 -1.19932,-0.9971 2.6972,-9.1167 3.6941,-10.316 8.34121,-5.47484 16.2851,-14.03444 17.44289,-24.298 0.2885,-1.4894 1.702,-2.4848 3.2014,-2.2546 z" style="mix-blend-mode:normal"/><path id="path44" fill="#d7d8ff" d="m 155.43611,118.872 c -1.93702,8.13589 1.96764,17.83982 8.10722,24.95581 0.55253,2.5676 -6.92183,7.10819 -6.92183,7.10819 l -1.702,-7.238 -6.4997,7.7974 -7.3859,-6.3691 -6.3088,6.3203 -8.0061,-6.383 -3.7092,6.0669 c 0,0 -11.01513,-4.41941 -11.22813,-8.22661 0.27261,-0.32603 -0.9965,-2.01731 -0.72944,-2.338 9.22882,-11.08219 16.65827,-17.68213 17.68548,-27.61639 z" style="mix-blend-mode:normal"/></g><g id="g47" stroke-linecap="round" stroke-miterlimit="10" stroke-width="5.664" transform="matrix(0.65430713,0.59250242,-0.59250242,0.65430713,163.88591,-22.594606)"><path id="path45" fill="#593299" stroke-linejoin="round" d="m 99.230357,150.94407 c 0.1716,0.11392 1.915003,-1.1131 2.013003,-0.8848 0.64423,1.5002 1.26634,2.60133 0.51794,3.72913 0,0 -1.1602,1.7566 -2.8537,4.4305 l 11.0219,5.66482 c 1.3182,0.0961 0.92666,3.3888 1.1212,4.696 1.2236,9.4393 3.5584,51.82518 3.2083,60.62118 -0.17521,4.3982 -0.65844,8.3597 -1.7101,11.661 -0.77203,2.4236 -0.99906,5.0634 -2.755,6.5718 -0.63607,0.54641 -2.2541,0.57717 -3.0684,0.91369 -3.5034,1.4477 -3.5456,1.6005 -8.5092,2.8622 -3.2941,0.83731 -7.5753,0.21014 -9.9253,-1.8469 -3.0339,-2.6557 -13.505,-22.613 -7.069,-30.993 0.80197,-7.2332 6.2939,-42.547 8.9882,-52.353 2.6944,-9.8059 4.901646,-17.67079 4.901646,-17.67079 0.4146,-0.62438 1.63655,-5.35632 2.37135,-5.50432 0,0 1.123661,7.68798 1.747061,8.10258 z" style="mix-blend-mode:normal"/><path id="path46" fill="#d7d8ff" stroke-linejoin="round" d="m 106.49004,154.62175 16.06622,11.9633 -13.99496,-1.45475 0.72597,7.33358 c -0.61724,10.07176 7.97743,58.10648 -0.16383,72.97152 -0.49104,0.89655 -2.8232,0.0317 -3.4911,0.30766 -3.5709,1.4756 -3.1998,1.4846 -8.1273,2.737 -9.6394,2.4502 -20.356,-16.945 -13.491,-29.792 0.85304,-7.6942 4.1446,-34.612 8.4098,-51.71 2.2914,-9.1857 5.547265,-16.9956 5.547265,-16.9956 1.972,-2.5336 0.838993,-1.6461 3.397545,0.0946 z" style="mix-blend-mode:normal"/><path id="path47" fill="#593299" d="m 103.23,247.41 c 0.42027,-5.1458 -1.1895,-13.269 2.0348,-16.02 -1.3387,4.2218 -0.0892,12.402 0.94716,15.291 z" style="mix-blend-mode:normal"/></g><g id="g59" stroke-width="1.133" transform="matrix(0.88066132,0.06010474,-0.06010474,0.88066132,52.130259,-4.3376662)"><g id="g49"><path id="path48" fill="#593299" stroke-linecap="round" stroke-linejoin="round" stroke-miterlimit="10" stroke-width="5.664" d="m 151.16,25.275 c -2.9718,-1.0358 -4.9011,2.4245 -6.279,4.4889 -2.6174,4.4453 -1.5185,9.8086 0.12971,14.378 0.62188,2.6045 2.398,5.313 2.324,7.8486 -4.8502,7.1486 -3.9886,5.0685 -9.0391,12.05 3.4341,2.7344 8.7911,7.977 12.476,14.206 4.6715,-2.9967 9.3718,-12.585 12.378,-17.489 3.8136,-1.5079 8.1315,-0.20369 11.983,-1.6901 4.285,-1.4383 7.8994,-4.616 10.277,-8.4083 1.181,-3.1341 -2.5858,-4.1633 -4.8323,-4.6786 -5.0646,-2.1613 -10.504,-4.7401 -16.149,-3.3348 -1.6836,-0.6607 -1.8064,-4.7334 -3.6759,-6.3353 -2.7159,-3.7514 -6.168,-6.9059 -8.9189,-10.622 l -0.32205,-0.22971 -0.35278,-0.18323 z" style="mix-blend-mode:normal"/><path id="path49" fill="#afa8e7" stroke-width="1.133" d="m 150.04,27.866 c 4.2213,6.1714 12.188,11.268 11.092,18.967 9.0427,-4.7565 14.618,1.2957 21.658,2.7793 -8.4182,11.539 -15.059,5.164 -21.418,8.875 -1.1884,0.6939 -5.8272,17.084 -11.895,17.861 -3.5275,-5.4918 -10.062,-11.4 -10.062,-11.4 0.57357,-0.92403 11.518,-12.154 11.219,-13.121 -3.6108,-11.652 -7.8543,-17.651 -0.59375,-23.961 z" style="mix-blend-mode:normal"/></g><g id="g56"><path id="path50" fill="#593299" stroke-width="1.133" d="m 139.41,46.422 c -6.0572,-0.06867 -12.278,2.6997 -15.631,7.8691 -3.3492,-2.0247 -12.017,-4.7445 -13.121,0.07617 2.9046,4.8734 -1.5184,10.316 -5.4019,13.086 -2.4852,2.7745 -5.1444,-0.20637 -7.5327,-0.02953 -0.32534,0.66087 -10.394,31.583 -2.0086,37.146 9.8887,-6.4033 -0.88267,3.0395 -1.6241,7.4043 -0.80681,4.7497 1.1127,9.9597 6.1289,2.5705 2.3404,-3.9273 9.0743,-3.2836 11.196,0.48545 2.406,2.6584 -4.8969,9.7078 1.0196,12.134 2.7687,0.79948 6.1527,-5.5491 7.2803,-3.6866 -2.351,3.5593 0.19877,13.243 5.0342,8.1671 2.1888,-4.1655 6.8048,-7.1725 11.569,-6.0114 18.438,-0.45441 36.97,-1.222 55.174,-4.3773 4.1614,-1.1755 10.12,-1.3733 11.875,-6.1094 -1.1753,-8.332 -2.0316,-17.927 -8.7885,-23.8 -6.7406,-5.146 -17.673,-2.6499 -25.418,-1.9534 -2.1748,-6.5045 -1.5856,-12.277 -11.313,-20.812 -3.0101,5.6457 -10.817,4.1541 -14.305,-0.13658 -2.9983,-1.9928 -2.1238,-6.2111 -2.0271,-8.1272 -3.5478,0.26993 -7.0187,-1.5067 -4.7034,-5.2279 1.8742,-2.6416 8.9952,-4.8321 4.1497,-8.4229 l -0.96808,-0.22946 -0.58008,-0.01563 h -0.002 z" style="mix-blend-mode:normal"/><path id="path51" fill="#d7d8ff" stroke-width="1.133" d="m 139.31,49.242 c -2.204,-0.0055 -11.235,0.53008 -14.674,9.4531 -6.2818,-6.7819 -14.889,-3.0824 -15.047,-3.0137 6.3334,0.43801 8.3451,5.9802 8.7051,11.846 -4.7201,3.3093 -8.4566,7.9271 -10.682,13.326 -4.5242,-2.4144 -6.1934,-5.6579 -8.7246,-9.5703 -1.3387,0.07904 -6.5836,26.517 -2.8574,30.754 0.84721,-2.176 6.0538,-1.8378 8.082,-0.23047 -8.3648,3.9878 -7.3713,13.34 -7.3574,13.467 2.4086,-6.1869 8.7363,-6.2011 14.678,-4.584 1.5312,2.0325 3.3125,3.8666 5.2969,5.457 -4.668,4.0116 -3.6621,8.2637 -3.6621,8.2637 1.9888,-2.4349 5.2535,-3.9152 9.2402,-4.7148 0.76301,0.37597 1.5443,0.72102 2.3418,1.0332 -4.4831,5.2372 -2.4597,9.5646 -2.4219,9.6445 1.7509,-3.472 5.723,-5.9387 10.781,-7.6836 0.89294,0.079 1.7956,0.1211 2.709,0.1211 11.873,0 62.195,-2.1675 64.752,-8.084 -3.5221,-29.465 -12.946,-23.896 -34.365,-22.303 0,-16.782 -13.605,-30.385 -30.387,-30.385 -0.8715,0 -1.733,0.0355 -2.5859,0.10742 0.36923,-6.4045 1.7606,-10.316 6.668,-12.891 0,0 -0.17537,-0.01289 -0.49023,-0.01367 z" style="mix-blend-mode:normal"/><path id="path52" fill="#593299" stroke-linecap="square" stroke-miterlimit="10" stroke-width="5.664" d="m 185.89,101.12 c 0,0 -1.4859,-0.27958 -2.2785,-0.86748 -1.2917,-0.95802 -2.3589,-2.475 -1.6744,-3.4054 1.1046,-1.5013 5.4202,-1.8477 6.9065,-0.79252 0.85351,0.60596 0.28071,2.1015 -0.66487,3.3138 -0.70111,0.89889 -2.2887,1.7516 -2.2887,1.7516 z" style="mix-blend-mode:normal"/><path id="path53" fill="#593299" stroke-linecap="round" stroke-linejoin="round" stroke-width="5.664" d="m 180.89,104.94 c -1.123,0.44637 -1.959,1.4889 -2.1615,2.6782 -0.17277,0.73922 -0.0387,1.6712 0.70903,2.0476 1.0628,0.56109 2.3269,0.41132 3.4639,0.20663 1.3566,-0.32784 2.6788,-0.78307 4.0136,-1.1842 0.57182,-0.42754 1.1461,0.007 1.6539,0.2965 0.98694,0.4602 2.0719,0.82263 3.1762,0.67193 1.0921,-0.10293 2.2096,-0.47443 3.0155,-1.2422 0.58669,-0.77906 0.7512,-1.9706 0.1907,-2.8101 -0.35521,-0.47844 -0.84283,-0.86031 -1.4402,-0.97154 -0.48927,-0.11559 -1.37,-0.24003 -1.413,0.47747 0.0344,0.82772 1.0895,0.44759 1.5325,0.75099 0.45389,0.31955 0.63116,0.74368 0.48689,1.3058 -0.10423,0.72664 -0.90567,0.93663 -1.4846,1.1754 -0.97358,0.28196 -2.046,0.30585 -2.9796,-0.13243 -0.84028,-0.23558 -1.5589,-1.0511 -2.4918,-0.81065 -1.0186,0.37195 -2.067,0.65441 -3.1009,0.9828 -1.1427,0.35503 -2.3515,0.67599 -3.5534,0.47717 -0.76017,0.005 -0.84008,-0.77555 -0.58711,-1.3354 0.19714,-0.7366 0.78379,-1.2967 1.4805,-1.5722 0.66876,-0.33594 0.14577,-1.3435 -0.51049,-1.0118 z"/><path id="path54" fill="#593299" stroke-linecap="round" stroke-miterlimit="10" stroke-width="5.664" d="m 145.46,74.807 c -2.2495,-0.0293 -2.032,3.3169 -2.032,3.3169 -3.343,0.25373 -3.2391,-1.4642 -5.9606,-2.298 2.0588,1.4223 1.6928,4.0515 5.4562,3.8032 -2.8204,1.1869 -2.5749,0.07243 -5.3954,-1.8592 -0.2377,1.2677 4.8633,5.6186 5.0682,4.9209 -0.20544,4.2006 0.21406,11.791 2.8636,11.791 2.6496,4e-6 3.0691,-7.5904 2.8637,-11.791 -0.14799,-3.0257 -0.95533,-7.8589 -2.8637,-7.8838 z" style="mix-blend-mode:normal"/><path id="path55" fill="#593299" stroke-linecap="round" stroke-miterlimit="10" stroke-width="5.664" d="m 168.45,90.626 c 0.0841,-0.03996 0.16821,-0.07993 0.2523,-0.1199 0.77475,0.33874 1.5494,0.67746 2.3242,1.0162 0.15586,0.0455 0.13261,0.07492 -0.0465,0.09046 -1.8151,0.32632 -3.5214,0.7589 -5.1449,1.2381 -2.0679,0.61796 -4.0197,1.3256 -5.6145,2.1731 2.1427,-2.292 5.4411,-3.1256 8.2295,-4.398 z" style="mix-blend-mode:normal"/><path id="path56" fill="#593299" stroke-linecap="round" stroke-miterlimit="10" stroke-width="5.664" d="m 154.6,74.508 c 2.2495,-0.0293 2.032,3.3169 2.032,3.3169 0.96517,-2.8799 1.6098,-2.8547 3.006,-3.3644 -1.2737,0.9532 -1.3632,3.6607 -2.5015,4.8697 1.214,-1.5622 1.661,-1.9078 2.8752,-2.4995 -0.51122,1.5189 -1.9475,2.1317 -2.548,5.5613 0.20544,4.2006 -0.21406,11.791 -2.8636,11.791 -2.6496,4e-6 -3.0691,-7.5904 -2.8637,-11.791 0.14799,-3.0257 0.95533,-7.8589 2.8637,-7.8838 z" style="mix-blend-mode:normal"/></g><g id="g58"><path id="path57" fill="#593299" stroke-linecap="round" stroke-linejoin="round" stroke-miterlimit="10" stroke-width="5.664" d="m 106.83,27.652 c 2.9718,-1.0358 4.9011,2.4245 6.279,4.4889 2.6174,4.4453 1.5185,9.8086 -0.12971,14.378 -0.62188,2.6045 -2.398,5.313 -2.324,7.8486 4.8502,7.1486 3.9886,5.0685 9.0391,12.05 -3.4341,2.7344 -8.7911,7.977 -12.476,14.206 -4.6715,-2.9967 -9.3718,-12.585 -12.378,-17.489 -3.8136,-1.5079 -8.1315,-0.20369 -11.983,-1.6901 -4.285,-1.4383 -7.8994,-4.616 -10.277,-8.4083 -1.181,-3.1341 2.5858,-4.1633 4.8323,-4.6786 5.0646,-2.1613 10.504,-4.7401 16.149,-3.3348 1.6836,-0.6607 1.8063,-4.7334 3.6759,-6.3353 2.7159,-3.7514 6.168,-6.9059 8.9189,-10.622 l 0.32205,-0.22971 0.35278,-0.18323 z" style="mix-blend-mode:normal"/><path id="path58" fill="#afa8e7" stroke-width="1.133" d="M 107.95,30.244 C 103.7287,36.4154 95.762,41.512 96.858,49.211 87.8153,44.4545 82.24,50.5067 75.2,51.9903 c 8.4182,11.539 15.059,5.164 21.418,8.875 1.1884,0.6939 5.8272,17.084 11.895,17.861 3.5275,-5.4918 10.062,-11.4 10.062,-11.4 -0.57357,-0.92403 -11.518,-12.154 -11.219,-13.121 3.6108,-11.652 7.8543,-17.651 0.59375,-23.961 z" style="mix-blend-mode:normal"/></g></g><g id="g61" stroke-linecap="round" stroke-miterlimit="10" stroke-width="5.664" transform="matrix(0.86666106,0.16755761,-0.16755761,0.86666106,71.097133,-17.636059)"><path id="path59" fill="#593299" stroke-linejoin="round" d="m 170.8,147.13 c -0.99413,1.2015 1.4008,29.9443 1.59278,31.252 1.5596,9.3897 7.8457,42.559 10.726,50.878 1.4402,4.1595 3.0488,7.8117 5.0106,10.668 1.4402,2.0966 2.4212,4.5578 4.5384,5.4937 0.76695,0.33903 2.3247,-0.0996 3.2015,-0.0131 3.7724,0.3722 3.8571,0.50627 8.9733,0.27799 3.3955,-0.1515 4.75508,-3.82964 6.40938,-6.47854 1.6543,-2.6489 -2.36097,-17.22294 -5.9733,-30.56682 -3.61233,-13.34388 -11.51629,-31.02898 -17.29432,-46.37956 -3.10695,-8.25428 -6.6752,-10.77053 -9.68892,-12.8468 -2.59093,-1.78498 -5.27762,-3.8235 -9.06384,-5.57588 0,0 2.0452,2.7138 1.5684,3.291 z" style="mix-blend-mode:normal"/><path id="path60" fill="#d7d8ff" stroke-linejoin="round" d="m 168.39312,162.08014 0.12247,9.3801 1.35218,-0.53966 c 2.39246,-1.7581 2.27927,-4.36932 2.43669,-6.88839 0,0 3.54776,15.45025 4.00496,18.20281 1.41369,8.51134 3.60205,21.92599 6.39831,34.145 2.78783,12.18217 6.17991,23.17589 10.01097,26.9372 0.72943,0.71615 2.7117,-0.7864 3.4308,-0.71549 3.8451,0.37942 1.65944,0.35711 6.73864,0.13048 9.936,-0.44332 4.81285,-17.50995 1.7464,-29.46525 -3.0426,-7.1184 -15.27537,-39.91677 -18.62864,-49.88352 -3.35327,-9.96675 -10.937,-12.099 -10.937,-12.099 l -4.5752,-2.8224 -2.4169,-2.9796 z" style="mix-blend-mode:normal"/><path id="path61" fill="#593299" d="m 198.95,243.51 c -1.891,-4.8042 -2.7001,-13.045 -6.5824,-14.746 2.5029,3.654 3.6733,11.846 3.5171,14.911 z" style="mix-blend-mode:normal"/></g></g></svg>