<svg xmlns="http://www.w3.org/2000/svg" viewBox="0 -0.5 29 32" shape-rendering="crispEdges">

<path stroke="#7f7f7f" d="M9 0h3M14 0h2M6 1h3M12 1h2M15 1h1M18 1h3M3 2h3M9 2h3M15 2h3M21 2h2M1 3h2M6 3h4M15 3h1M23 3h1M0 4h1M3 4h3M8 4h1M10 4h1M15 4h1M19 4h2M23 4h1M0 5h1M2 5h3M8 5h1M10 5h1M16 5h1M18 5h1M21 5h1M23 5h1M0 6h1M3 6h2M8 6h1M11 6h1M16 6h1M18 6h1M22 6h2M0 7h1M5 7h2M8 7h1M12 7h1M16 7h2M23 7h3M0 8h1M7 8h2M13 8h1M16 8h1M24 8h1M26 8h2M1 9h1M9 9h2M13 9h1M15 9h1M1 10h1M11 10h3M16 10h1M1 11h1M13 11h2M16 11h1M26 11h2M1 12h1M15 12h2M23 12h5M2 13h1M10 13h1M20 13h7M2 14h1M18 14h9M2 15h1M18 15h9M2 16h1M18 16h9M3 17h1M18 17h8M3 18h1M18 18h8M3 19h1M18 19h8M3 20h1M18 20h8M4 21h1M7 21h1M14 21h1M18 21h7M4 22h1M18 22h7M4 23h1M9 23h1M18 23h7M4 24h3M10 24h1M18 24h7M7 25h2M11 25h1M18 25h6M9 26h2M18 26h6M11 27h2M18 27h6M13 28h2M18 28h6M15 29h2M18 29h4M17 30h3"/>
<path stroke="#ffffff" d="M9 1h3M14 1h1M6 2h3M12 2h3M18 2h3M3 3h3M10 3h5M16 3h7M1 4h2M6 4h2M9 4h1M11 4h4M16 4h3M21 4h2M1 5h1M5 5h3M9 5h1M12 5h4M17 5h1M19 5h2M22 5h1M1 6h2M5 6h3M9 6h2M13 6h3M19 6h3M3 7h2M7 7h1M9 7h3M14 7h2M18 7h5M5 8h2M9 8h4M15 8h1M17 8h7M25 8h1M7 9h2M11 9h2M16 9h7M26 9h2M9 10h2M17 10h5M26 10h2M11 11h2M17 11h2M23 11h3M13 12h2M20 12h3M15 13h5"/>
<path stroke="#bfbfbf" d="M11 5h1M12 6h1M17 6h1M1 7h2M13 7h1M1 8h4M14 8h1M2 9h5M14 9h1M23 9h3M2 10h7M14 10h2M22 10h4M2 11h9M15 11h1M19 11h4M2 12h11M17 12h3M3 13h7M13 13h2M3 14h6M14 14h1M16 14h2M3 15h2M9 15h3M16 15h2M3 16h3M9 16h4M16 16h2M4 17h1M9 17h3M16 17h2M4 18h1M7 18h1M9 18h9M4 19h1M7 19h8M16 19h2M4 20h1M7 20h4M12 20h3M16 20h2M5 21h1M8 21h2M12 21h2M16 21h2M5 22h2M8 22h1M16 22h2M5 23h4M15 23h3M7 24h3M12 24h6M9 25h2M12 25h6M11 26h7M13 27h5M15 28h3M17 29h1"/>
<path stroke="#000000" d="M28 9h1M28 10h1M28 11h1M28 12h1M27 13h1M27 14h1M27 15h1M27 16h1M26 17h1M26 18h1M26 19h1M26 20h1M25 21h1M25 22h1M25 23h1M25 24h1M5 25h2M24 25h1M7 26h2M24 26h1M9 27h2M24 27h1M11 28h2M24 28h1M13 29h2M22 29h2M15 30h2M20 30h2M17 31h3"/>
<path stroke="#007f09" d="M11 13h2M9 14h5M15 14h1M5 15h4M12 15h4M6 16h3M13 16h3M5 17h4M12 17h4M5 18h2M8 18h1M5 19h2M15 19h1M5 20h2M11 20h1M15 20h1M6 21h1M10 21h2M15 21h1M7 22h1M9 22h7M10 23h5M11 24h1"/>
</svg>