<svg xmlns="http://www.w3.org/2000/svg" version="1.1" viewBox="0 0 14 16"><g id="borders-and-backgrounds"><path fill="#000" d="M0,0 L10,0 L10,1 L1,1 L1,15 L2,15 L2,16 L0,16 Z"/><path fill="#000" d="M10,4 l4,0 l0,3 l-1,0 l0,-2 l-3,0 Z"/><path fill="#000" d="M14,16 l0,-6 l-1,0 l0,5 l-5,0 l0,1 Z"/><path fill="#bcbcc3" d="M12,14 l0,-3 l-1,0 l0,2 l-2,0 l0,1 Z"/><path fill="#878787" d="M10,0 l1,0 l0,1 l1,0 l0,1 l1,0 l0,1 l1,0 l0,1 l-1,0 l0,-1 l-1,0 l0,-1 l-1,0 l0,2 l-1,0 Z"/><path fill="#bcbcc3" d="M2,2 l8,0 l0,3 l2,0 l0,2 l-4,0 l0,5 l-2,0 l0,1 l-2,0 l0,1 l-2,0 Z"/></g><g id="lefteye"><path fill="#00891e" d="M5,3 l2,0 l0,3 l-3,0 l0,-2 l1,0 l0,1 l1,0 l0,-1 l-1,0 Z"/><path fill="#00f248" d="M5,4 l1,0 l0,1 l-1,0 Z"/><path fill="#000" d="M7,4 l1,0 l0,2 l-1,0 l0,1 l-2,0 l0,-1 l2,0 Z"/></g><g id="righteye"><path fill="#0064fb" d="M8,7 l3,0 l0,2 l-1,0 l0,-1 l-1,0 l0,1 l1,0 l0,1 l-2,0 Z"/><path fill="#00fbfe" d="M9,8 l1,0 l0,1 l-1,0 Z"/><path fill="#003293" d="M10,9 l1,0 l0,1 l-1,0 Z"/><path fill="#000" d="M11,7 l1,0 l0,2 l-1,0 Z"/><path fill="#000" d="M8,10 l2,0 l0,1 l-2,0 Z"/></g><g id="mouth"><path fill="#ff3900" d="M3,8 l1,0 l0,1 l1,0 l0,1 l1,0 l0,1 l1,0 l0,1 l-1,0 l0,-1 l-1,0 l0,-1 l-1,0 l0,-1 l-1,0 Z"/><path fill="#f73ae1" d="M3,9 l1,0 l0,1 l1,0 l0,1 l1,0 l0,1 l-3,0 Z"/><path fill="#000" d="M3,12 l3,0 l0,1 l-3,0 Z"/></g></svg>