<?xml version="1.0" encoding="UTF-8" standalone="no"?>
<!-- Created with Inkscape (http://www.inkscape.org/) -->

<svg
   width="200px"
   height="75px"
   viewBox="0 0 200 75"
   version="1.1"
   id="SVGRoot"
   sodipodi:docname="logo.svg"
   xml:space="preserve"
   inkscape:version="1.4.3 (0d15f75042, 2025-12-25)"
   xmlns:inkscape="http://www.inkscape.org/namespaces/inkscape"
   xmlns:sodipodi="http://sodipodi.sourceforge.net/DTD/sodipodi-0.dtd"
   xmlns="http://www.w3.org/2000/svg"
   xmlns:svg="http://www.w3.org/2000/svg"><sodipodi:namedview
     id="namedview447"
     pagecolor="#ffffff"
     bordercolor="#000000"
     borderopacity="0.25"
     inkscape:showpageshadow="2"
     inkscape:pageopacity="0.0"
     inkscape:pagecheckerboard="0"
     inkscape:deskcolor="#d1d1d1"
     inkscape:document-units="px"
     showgrid="false"
     inkscape:zoom="3.1251122"
     inkscape:cx="131.67527"
     inkscape:cy="-4.7998277"
     inkscape:window-width="1920"
     inkscape:window-height="1012"
     inkscape:window-x="0"
     inkscape:window-y="0"
     inkscape:window-maximized="1"
     inkscape:current-layer="layer1" /><defs
     id="defs442" /><g
     inkscape:label="Слой 1"
     inkscape:groupmode="layer"
     id="layer1"><g
       id="g1"
       style="fill:#ebdbb2;fill-opacity:1"
       transform="translate(0.29197399,-0.75)"><path
         style="fill:#ebdbb2;fill-opacity:1"
         d="m 152.58289,70.134111 c -0.7277,-1.177443 3.07141,-25.188923 4.15689,-26.272702 0.41812,-0.41747 2.59518,-1.052185 4.8379,-1.410477 3.40193,-0.543482 4.5308,-0.261692 6.81184,1.700377 4.0989,3.525729 4.55675,9.221311 1.14349,14.225046 l -2.64423,3.876355 2.08388,2.218188 C 171.2955,66.94345 170.8071,70 168.08918,70 c -0.93327,0 -3.23517,-1.587144 -5.11534,-3.526987 l -3.41849,-3.526988 -1.05577,3.776988 c -0.74436,2.662939 -1.6833,3.867593 -3.18331,4.084173 -1.17015,0.168952 -2.40018,-0.133932 -2.73338,-0.673075 z m 12.37322,-16.364987 c 1.38901,-2.474694 1.37044,-2.871148 -0.20848,-4.450068 -2.16678,-2.166776 -3.30024,-1.053016 -4.06478,3.994135 -0.48379,3.193753 -0.30747,3.761165 1.08539,3.492925 0.91466,-0.176147 2.3492,-1.542793 3.18787,-3.036992 z m 10.96059,13.067601 c -1.7111,-3.354048 -2.0492,-5.485937 -1.73944,-10.968034 0.53112,-9.39952 2.70369,-12.261275 9.61797,-12.669008 4.39208,-0.258999 5.29918,0.01616 6.59334,2 2.65419,4.068639 3.71319,11.201712 2.52636,17.01659 C 191.53332,68.985423 189.23855,71 182.90954,71 c -4.70542,0 -4.9402,-0.139778 -6.99284,-4.163275 z m 10.47631,-3.418512 C 186.72686,62.548229 187,59.660034 187,57 c 0,-2.660034 -0.27314,-5.548229 -0.60699,-6.418213 -0.84265,-2.195911 -4.10897,-1.981032 -5.35783,0.352472 -1.33421,2.493005 -1.33421,9.638477 0,12.131482 1.24886,2.333504 4.51518,2.548383 5.35783,0.352472 z m -107.852938,2.670651 -1.805955,-4.004892 -4.32048,3.540308 c -4.499141,3.686709 -7.649554,4.104769 -8.229743,1.09209 -0.31465,-1.633847 1.406272,-3.529923 7.678287,-8.459773 l 2.36218,-1.856692 -3.212612,-7.717041 C 67.645462,40.59668 67.621347,38 70.912539,38 c 1.448417,0 2.69354,1.600433 4.667948,6 1.480952,3.3 2.968687,5.999195 3.306077,5.998212 0.33739,-9.84e-4 1.847284,-1.913484 3.355321,-4.25 5.112655,-7.921428 6.269905,-9.037939 8.600888,-8.298114 C 92.029248,37.826671 93,38.762352 93,39.529391 c 0,0.767039 -2.635672,5.161867 -5.857049,9.766285 l -5.857049,8.371669 1.91731,3.737222 c 2.356823,4.593922 2.041194,7.98903 -0.780198,8.392312 -1.582217,0.226157 -2.507193,-0.657148 -3.882942,-3.708015 z m 30.919808,2.846217 c -0.36199,-0.585705 0.0366,-5.873205 0.88581,-11.75 C 111.19488,51.308286 112.38937,41.325 113.00012,35 114.36893,20.824405 116.33281,11.23862 118.26383,9.307601 119.48748,8.083948 121.84422,7.9795215 132.61397,8.671749 145.47154,9.49817 145.5,9.505522 145.5,12 v 2.5 l -11.68557,0.281178 -11.68558,0.281178 -1.02395,5.218822 c -0.56318,2.870352 -1.31549,7.337827 -1.67181,9.927722 l -0.64785,4.708899 8.37526,-0.591051 c 6.98733,-0.493103 8.59798,-0.322684 9.71926,1.028366 2.70022,3.253574 0.70934,4.362881 -9.15776,5.102647 l -9.4366,0.707491 -0.58067,8.228223 c -0.61963,8.780164 -2.36962,17.309365 -3.9715,19.356525 -1.19714,1.529898 -3.38368,1.624599 -4.27335,0.185081 z m 24.11155,-0.50651 c -0.86429,-0.864285 -1.56243,-2.551785 -1.55144,-3.75 0.0285,-3.106844 2.61771,-18.649607 3.20451,-19.236402 0.26996,-0.269961 3.37863,-0.760504 6.90815,-1.090096 5.01934,-0.468713 6.68794,-0.273178 7.65959,0.897586 2.22002,2.674962 0.39643,4.624419 -4.62957,4.949117 -3.96409,0.256093 -4.71055,0.638328 -4.98222,2.551224 -0.27244,1.918308 0.13758,2.25 2.78138,2.25 3.48371,0 4.95402,2.191541 3.0276,4.512735 C 145.31055,60.330731 143.23521,61 141.37756,61 139.04195,61 138,61.462739 138,62.5 c 0,1.128313 1.20862,1.5 4.87756,1.5 5.16143,0 7.81282,1.758503 6.7657,4.487265 -0.83964,2.188072 -13.87266,2.140476 -16.07183,-0.05869 z M 54.606989,64.418213 C 54.273145,63.548229 54,61.508652 54,59.885818 V 56.93521 l -5.340869,4.032395 c -6.322594,4.773605 -10.140548,5.264666 -11.845134,1.523509 -0.847408,-1.859858 -0.863942,-5.38555 -0.06391,-13.628933 1.125947,-11.601611 2.377261,-14.518017 5.684567,-13.248885 1.869963,0.717573 1.862516,1.849442 -0.116774,17.748794 -0.570156,4.579976 -0.492967,4.801984 1.33031,3.826195 1.064573,-0.569742 4.054238,-3.300904 6.6437,-6.069249 C 53.678927,47.498016 55,45.266233 55,43.165286 c 0,-3.405149 2.023494,-5.477237 4.442351,-4.549034 1.52287,0.58438 1.624857,1.937643 0.999867,13.267253 C 60.059429,58.822577 59.551777,64.8375 59.314102,65.25 58.528857,66.612843 55.225123,66.029045 54.606989,64.418213 Z M 6.600093,64.26676 C 5.5723309,63.238998 5.9384412,57.070474 7.4383526,50.143081 8.229447,46.489387 9.366284,40.8 9.964657,37.5 c 0.598373,-3.3 2.320129,-11.85 3.826124,-19 2.621353,-12.4453763 2.844213,-13 5.223696,-13 2.381541,0 2.473287,0.2300932 2.193041,5.5 -0.160865,3.025 -1.623365,11.182968 -3.25,18.128817 C 16.330883,36.074666 15,43.19175 15,44.944558 c 0,1.752809 -0.386617,3.944841 -0.859148,4.871183 -0.472532,0.926343 -1.144114,3.18592 -1.492405,5.021284 L 12.01519,58.17405 22.257595,57.837025 32.5,57.5 v 2.495787 c 0,2.281267 -0.472739,2.550574 -5.5,3.133197 C 16.513363,64.34431 7.1972367,64.863903 6.600093,64.26676 Z"
         id="path642" /></g></g></svg>
