<svg xmlns="http://www.w3.org/2000/svg" width="1889.764" height="1889.764" fill="#fff" viewBox="0 0 500 500"><path d="M250 0C111.929 0 0 111.929 0 250c.071 22.873 3.277 45.427 9.385 67.082 17.968 63.705 59.232 50.002 59.232-16.839V183.258c0-24.468 19.698-44.166 44.166-44.166s44.166 19.698 44.166 44.166V424.85c0 31.252 23.57 66.888 54.35 71.902 12.769 2.08 25.707 3.17 38.701 3.248 138.071 0 250-111.929 250-250-.01-23.101-3.218-45.884-9.385-67.751-17.968-63.705-59.232-50.003-59.232 16.838V316.74c0 24.468-19.698 44.166-44.166 44.166s-44.166-19.698-44.166-44.166V74.607c0-31.252-23.63-66.75-54.438-71.584C275.867 1.022 262.958.007 250 0zm0 43.75c24.468 0 44.166 19.699 44.166 44.167v324.167c0 24.468-19.698 44.167-44.166 44.167s-44.167-19.699-44.167-44.167V87.917c0-24.468 19.699-44.167 44.167-44.167z"/></svg>