<?xml version="1.0" encoding="UTF-8" standalone="no"?>
<svg
  viewBox="0 0 108.31435 105.219" 
   version="2.0"
   id="svg20250813"
   xmlns="http://www.w3.org/2000/svg">
<style>
/* <![CDATA[ */
svg{width:100vw;height:100vh;background-color:#958DFF}
/* ]]> */
</style>
<path
  d="M 52.625,0 C 23.571,0 0,23.571 0,52.625 c 0,29.054 23.571,52.594 52.625,52.594 5.5874,0 10.98,-0.88711 16.031,-2.5 v -26.25 c -4.3621,2.5362 -9.4669,4 -14.938,4 -15.988,0 -28.938,-12.465 -28.938,-27.844 0,-15.379 12.95,-27.844 28.938,-27.844 5.4706,0 10.575,1.4638 14.938,4 V 2.5 C 63.6047,0.8852 58.212,0 52.625,0 Z"
  color="#000000"
  fill="#002255"
/>
<polygon
  transform="matrix(0.33075,0,0,0.32169,9.5987,7.486)"
  points="179.96,134.85 179.96,78.103 298.46,78.103 245.46,134.85 "
  fill="#002255"
/>
<polygon
  transform="matrix(0.33075,0,0,0.32169,9.5987,7.486)"
  points="179.96,146.35 179.96,203.1 298.46,203.1 245.46,146.35 "
  fill="#ff0000"
/>
</svg>
