<svg xmlns="http://www.w3.org/2000/svg" viewBox="0 0 500 500"><path d="M1 1H0V0h1zm499 498h-1v1h1z"/><path d="m424 78 76 38v353l-85 31-192-28-73-84 36-64 4-77 35-18 20-67 59-43 67 1z" opacity=".5"/><path fill="#2b4221" d="m363 292-8 11-4-2 11-12zm14-22 3 4 34-29 4 5 10-7-6-7 6-7 10-1-3-7-13 3-6 3-4-6-19 4v9l14 9-16 18zm54-36v7l7-3-1-6z"/><path fill="#59783f" d="m389 274 20-17 13 2 8-12 7 3-9 10 4 10 2 19-6 1-1-9-8 1-1-9-19 10-7-4-7 4-7-3zm23 10-7 1 2 7h8zm-17 3v11l28 28v12l6 1v-12l5 3 6-11 4 2v-15l-7 1-2-5-11-3-6 7z"/><path fill="#c1d09b" d="m460 303-10 1-3-6 11-4zm-20 24-4 8 7 4 4-10zm4 23v5l6 2v-4zm3-41 2 16 7-2v10l-6 2 1 13h17l3-11-4-8h6l-1-14-7-2v-6l-7-1-1 5zm-13-51 1 8 3 1-1 5 5 6 9-2-9-11 2-10zm21-16-8 5 3 6 7-6zm-2 18-5 4 3 5 5-5zm10-7-6 3 3 6 5-2zm-13-59-7 2 2 8 7-1zm-84 100-7 33 4 2 3-30 3 32 2-1-2-26 11 33 3-3-10-28 17 30 4-4-21-33z"/><path fill="#fff" d="m454 227-6 3-6-5 5-6zm-60-20 1 11 16-2-1-12zm3-21 1 13 10-4 10 8-2 8 6 7 6-4 9 4 5-10-8-8 4-6-8-7-5 6-3-8-8 3-4-6zm28-13v9l12-2-1-9zm20 8 10 5 2-10-7-2zM231 314l7-45 63-28 42 41 3 39 28 27 29-10 26 26 2 27-49 38h-44l64-31 9-38-22 35-49 15 15-19 27-5 16-32-15 18-22-8 2-14-19-23-2 71-32 23-27-23 42-75-11-2-27 55v-24l23-41-13-21-6 49-9-5 4-21-8-3-23 12zm207-31v11l4 1 6-10zm-204 39-3 16 13 5 2-16z"/><path fill="#be0000" d="m433 351-2 6-17-14zm3 18 3 33 30 19-15 22-116-6-69 14 23 6 46-12 126 7 14-33-32-21zm-85-128-9 4-2 11-11-1-25-23-11 2-4-10 16 4 8 3 4 10 7 1-7-18-8-3-1-7 11-3 3 10 4 3 1-9 10 1-3 5-4 10 5 4 6-3-4-4 1-4 4-1 2 7 4-1-13-19-3-11-5-1v-6l12-3 2 6-4 3 1 11 6 6 1-6 2 1 2 14 11 11-5 6zm-64-30 5 7 8-1v-8zm-7 30 7-2-2-4h-5zm72-61-3-4-5 4 2 5zm-30 17-2-2-2 1 1 3zm-4-19-7 2 4 8 8-1zm11-2-1-5-3 1v4zm-42 23-3-8-5 1 1 4h3l4 6zm-8 10-7-1-5 3 5 3 1-3zm-5-10-1 2h2l1-1zm-11 31 2 3 2-1-1-3zm82-77 1-2-2-1-1 3zm-49 4-1-5-3 1 3 5zm-1 4-1-2-2 2 2 3zm-26 16-2-2v1zm81 73v-4l-6 2v4zm-21 12h4v-3h-4z"/><path fill="#007ebe" d="m376 255-16 7-5-12 17-15zm-24 4-6 18 7 14 5-14zm18 5-9 9 8 17 7-8zm10 25-6 7 35 42 3-17zm36 41-3 8 6 2v-9zm3-41 1 7 8-1-5-6zm-173 92-51 23 39 11 33-6-1-20zm8-51-3 43 19 7 12-37-19-13zm-28 33-43 17 16 8 42-12zm10-18-7 13 12 6 4-14zm144-154 10 28-31 12-15-36 41-30 6-3-37 29 20-6 25-24 11-2zm0 22-6-18-21 6 8 20z"/><path fill="#262626" d="m388 234 12 12-18 10-3-21zm40-117-1-11-16 45zm22 20 4-9-37 29z"/><path fill="gold" d="m358 210 15-6 1 4-14 6z"/></svg>