<?xml version="1.0" encoding="UTF-8" standalone="no"?>
<svg
   width="248.48615mm"
   height="42.606689mm"
   viewBox="0 0 248.48613 42.606681"
   version="1.1"
   id="svg948"
   inkscape:version="1.2.2 (b0a8486541, 2022-12-01)"
   sodipodi:docname="logo_hanami.svg"
   inkscape:export-filename="/tmp/yozakura_logo.png"
   inkscape:export-xdpi="300"
   inkscape:export-ydpi="300"
   xmlns:inkscape="http://www.inkscape.org/namespaces/inkscape"
   xmlns:sodipodi="http://sodipodi.sourceforge.net/DTD/sodipodi-0.dtd"
   xmlns="http://www.w3.org/2000/svg"
   xmlns:svg="http://www.w3.org/2000/svg"
   xmlns:rdf="http://www.w3.org/1999/02/22-rdf-syntax-ns#"
   xmlns:cc="http://creativecommons.org/ns#"
   xmlns:dc="http://purl.org/dc/elements/1.1/">
  <defs
     id="defs942" />
  <sodipodi:namedview
     id="base"
     pagecolor="#ffffff"
     bordercolor="#666666"
     borderopacity="1.0"
     inkscape:pageopacity="0.0"
     inkscape:pageshadow="2"
     inkscape:zoom="1"
     inkscape:cx="445.99999"
     inkscape:cy="96.999997"
     inkscape:document-units="mm"
     inkscape:current-layer="g3862"
     inkscape:document-rotation="0"
     showgrid="false"
     showguides="true"
     inkscape:guide-bbox="true"
     inkscape:window-width="1920"
     inkscape:window-height="1030"
     inkscape:window-x="0"
     inkscape:window-y="0"
     inkscape:window-maximized="1"
     inkscape:showpageshadow="2"
     inkscape:pagecheckerboard="0"
     inkscape:deskcolor="#d1d1d1">
    <sodipodi:guide
       position="-190.35328,-295.50888"
       orientation="1,0"
       id="guide4939"
       inkscape:locked="false" />
  </sodipodi:namedview>
  <metadata
     id="metadata945">
    <rdf:RDF>
      <cc:Work
         rdf:about="">
        <dc:format>image/svg+xml</dc:format>
        <dc:type
           rdf:resource="http://purl.org/dc/dcmitype/StillImage" />
      </cc:Work>
    </rdf:RDF>
  </metadata>
  <g
     inkscape:label="Layer 1"
     inkscape:groupmode="layer"
     id="layer1"
     style="display:inline"
     transform="translate(-198.35274,-68.368429)">
    <g
       id="g3862"
       transform="translate(170.32791,-77.918314)"
       style="display:inline">
      <path
         style="color:#000000;fill:#f5a9bc;fill-opacity:1;stroke-width:0.728;stroke-linecap:round;stroke-linejoin:round"
         d="m 268.08811,158.13635 -1.34385,-2.0627 c 4.6354,-2.14229 7.34952,0.66682 9.76671,4.34986 -3.93014,1.94574 -7.67608,2.99559 -10.58568,-1.13072 -0.0133,-0.0188 -0.0326,-0.0473 -0.0394,-0.0568 z"
         id="path2949" />
      <path
         style="color:#000000;fill:#f5a9bc;fill-opacity:1;stroke-width:0.728;stroke-linecap:round;stroke-linejoin:round"
         d="m 199.53486,175.01549 -2.30378,-0.86789 c 2.46965,-4.4696 6.31975,-3.81062 10.44751,-2.27142 -2.01528,3.8899 -4.41131,6.95022 -9.18852,5.35616 -0.0267,-0.009 -0.0667,-0.0228 -0.0802,-0.0274 z"
         id="path2896" />
      <path
         style="color:#000000;fill:#f5a9bc;stroke-width:0.728;stroke-linecap:round;stroke-linejoin:round;-inkscape-stroke:none;fill-opacity:1"
         d="m 244.36208,180.39734 0.90626,-2.28896 -2.37742,-0.63917 c 2.02216,-4.68905 5.91816,-4.40856 10.17633,-3.2791 -1.63557,4.09056 -3.73609,7.3838 -8.7052,6.20722 z"
         id="path2644" />
      <path
         style="color:#000000;fill:#f5a9bc;stroke-width:0.728;stroke-linecap:round;stroke-linejoin:round;fill-opacity:1"
         d="m 221.20932,163.26309 2.11604,-1.25818 -1.4914,-1.95866 c 4.46596,-2.47622 7.37863,0.12645 10.05923,3.62245 -3.79422,2.23867 -7.46931,3.56208 -10.68389,-0.40565 z"
         id="path2638" />
      <path
         style="color:#000000;fill:#f5a9bc;stroke-width:0.728;stroke-linecap:round;stroke-linejoin:round;fill-opacity:1"
         d="m 169.83945,159.43029 2.23701,-1.02785 -1.27637,-2.10512 c 4.70231,-1.99111 7.32406,0.90439 9.62078,4.66374 -4.00928,1.8258 -7.80348,2.75399 -10.58143,-1.53081 z"
         id="path2632" />
      <path
         style="color:#000000;fill:#f5a9bc;stroke-width:0.728;stroke-linecap:round;stroke-linejoin:round;fill-opacity:1"
         d="m 163.7634,186.72708 1.07926,-2.21265 -2.32134,-0.81975 c 2.37607,-4.52003 6.23905,-3.94135 10.39797,-2.4884 -1.94469,3.95297 -4.29177,7.07528 -9.15592,5.52079 z"
         id="path2626" />
      <path
         style="color:#000000;fill:#f5a9bc;stroke-width:0.728;stroke-linecap:round;stroke-linejoin:round;fill-opacity:1"
         d="m 144.95591,159.43165 -2.39081,-0.58711 c 1.9193,-4.73209 5.8205,-4.53672 10.10231,-3.5005 -1.5406,4.11127 -3.56019,7.4409 -8.51677,6.40653 -0.0169,-0.004 -0.0423,-0.009 -0.0508,-0.0106 z"
         id="path2586" />
      <path
         style="color:#000000;fill:#f5a9bc;stroke-width:0.728;stroke-linecap:round;stroke-linejoin:round;-inkscape-stroke:none;fill-opacity:1"
         d="m 121.42621,188.43427 1.12595,-2.18926 -2.30344,-0.8688 c 2.47141,-4.46862 6.32125,-3.80813 10.44841,-2.2673 -2.02809,3.91082 -4.44087,6.98265 -9.27096,5.32534 z"
         id="path2539" />
      <path
         style="color:#000000;fill:#f5a9bc;stroke-width:0.728;stroke-linecap:round;stroke-linejoin:round;-inkscape-stroke:none;fill-opacity:1"
         d="m 91.468756,162.18354 -0.928367,-2.28008 c 4.957511,-1.22452 7.089756,2.04826 8.76477,6.12281 -4.227584,1.1652 -8.104469,1.48576 -10.178975,-3.1167 -0.0096,-0.0212 -0.02344,-0.0529 -0.0283,-0.0636 z"
         id="path2447" />
      <path
         style="color:#000000;fill:#f5a9bc;fill-opacity:1;stroke-width:0.728;stroke-linecap:round;stroke-linejoin:round;-inkscape-stroke:none"
         d="m 53.723478,170.43027 -2.349936,-0.73378 c 2.208139,-4.60439 6.089808,-4.16824 10.299368,-2.8693 -1.790312,4.00482 -4.009656,7.20124 -8.884326,5.87113 -0.0207,-0.006 -0.05255,-0.0145 -0.0627,-0.0174 z"
         id="path2319" />
      <path
         style="color:#000000;fill:#f5a9bc;fill-opacity:1;stroke-width:0.728;stroke-linecap:round;stroke-linejoin:round;-inkscape-stroke:none"
         d="m 70.200436,186.79287 1.29739,-2.09223 -2.226593,-1.0502 c 2.820795,-4.2567 6.605496,-3.2905 10.596244,-1.42461 -2.334294,3.73615 -4.984964,6.60522 -9.667074,4.56701 z"
         id="path2407" />
      <path
         id="path2372"
         style="font-style:normal;font-variant:normal;font-weight:bold;font-stretch:normal;font-size:51.0072px;line-height:1.25;font-family:Montserrat;-inkscape-font-specification:'Montserrat Bold';letter-spacing:0px;word-spacing:0px;fill:#d86379;fill-opacity:1;stroke-width:1.27518"
         d="m 31.20288,149.53345 4.0566,6.73603 0.552938,-0.0253 -0.326079,-2.02726 a 0.36403639,0.36403639 0 0 1 0.0088,-0.15503 0.36403639,0.36403639 0 0 1 0.07235,-0.13746 0.36403639,0.36403639 0 0 1 0.12299,-0.0946 0.36403639,0.36403639 0 0 1 0.151412,-0.0351 c 0.165038,-0.002 0.326511,-6.8e-4 0.484725,0.005 0.158214,0.005 0.313063,0.0145 0.464571,0.0274 0.15151,0.0129 0.299493,0.0294 0.444418,0.0496 0.144925,0.0202 0.286837,0.044 0.425297,0.0713 0.13846,0.0273 0.273545,0.0578 0.40566,0.092 0.132114,0.0342 0.261168,0.0718 0.387056,0.11265 0.125889,0.0409 0.248671,0.085 0.368453,0.13229 0.119783,0.0473 0.236572,0.0978 0.350366,0.15142 0.113796,0.0536 0.224868,0.11039 0.332797,0.17001 0.107928,0.0596 0.213045,0.12214 0.315226,0.18759 0.102181,0.0654 0.201103,0.13357 0.297656,0.20464 0.09655,0.0711 0.190592,0.14522 0.281637,0.22169 0.09105,0.0765 0.179443,0.15553 0.2651,0.23719 0.08566,0.0817 0.168693,0.16555 0.24908,0.25218 0.08039,0.0866 0.157823,0.17577 0.233061,0.26717 0.07524,0.0914 0.147866,0.18516 0.218074,0.28112 0.07021,0.096 0.138038,0.19411 0.203606,0.29404 0.06557,0.0999 0.129021,0.20168 0.190169,0.30541 0.06115,0.10372 0.1203,0.20945 0.17725,0.31677 0.05695,0.10733 0.111876,0.21638 0.164848,0.32712 0.05297,0.11074 0.103747,0.22296 0.152962,0.33693 0.04922,0.11396 0.09695,0.22974 0.142627,0.34674 0.04568,0.11701 0.08941,0.23568 0.131775,0.35554 0.04236,0.11986 0.0832,0.24076 0.122473,0.36328 0.03927,0.12253 0.07678,0.24656 0.113171,0.37156 0.0364,0.125 0.07168,0.25098 0.10542,0.37827 0.03374,0.12729 0.06636,0.25559 0.09767,0.38499 0.03131,0.12939 0.06133,0.25988 0.09043,0.39119 0.0291,0.13131 0.05712,0.26384 0.08423,0.39687 0.02711,0.13304 0.0532,0.26644 0.07855,0.40101 0.05069,0.26915 0.09821,0.54127 0.143144,0.81546 a 0.36403639,0.36403639 0 0 1 0.0047,0.0687 0.36403639,0.36403639 0 0 1 -0.0078,0.0682 0.36403639,0.36403639 0 0 1 -0.02067,0.0651 0.36403639,0.36403639 0 0 1 -0.03307,0.0605 0.36403639,0.36403639 0 0 1 -0.04341,0.0532 0.36403639,0.36403639 0 0 1 -0.05219,0.0444 0.36403639,0.36403639 0 0 1 -0.05994,0.0331 0.36403639,0.36403639 0 0 1 -0.06511,0.0217 0.36403639,0.36403639 0 0 1 -0.06821,0.009 c -0.275505,0.0114 -0.549377,0.0205 -0.821139,0.0253 -0.271762,0.005 -0.541274,0.006 -0.808219,0.002 -0.133473,-0.002 -0.26636,-0.005 -0.398425,-0.009 -0.132067,-0.004 -0.263765,-0.01 -0.394292,-0.0171 -0.130526,-0.007 -0.260271,-0.0152 -0.389123,-0.0253 -0.128852,-0.0101 -0.256396,-0.0218 -0.383439,-0.0351 -0.127044,-0.0133 -0.253172,-0.0286 -0.378272,-0.0455 -0.1251,-0.0168 -0.249564,-0.0352 -0.372587,-0.0558 -0.06735,-0.0113 -0.133292,-0.0248 -0.199988,-0.0372 l 6.15363,10.21798 v 12.75168 H 53.2889 v -12.04733 c -0.04302,-0.009 -0.08581,-0.0173 -0.129191,-0.0269 -0.07654,-0.017 -0.153834,-0.035 -0.23151,-0.0543 -0.07768,-0.0192 -0.155789,-0.0395 -0.234611,-0.061 a 0.36403639,0.36403639 0 0 1 -0.0062,0 c -0.0131,-0.004 -0.03963,-0.0106 -0.06253,-0.0176 a 0.36403639,0.36403639 0 0 1 -0.08165,-0.0346 0.36403639,0.36403639 0 0 1 -0.0708,-0.0532 0.36403639,0.36403639 0 0 1 -0.05581,-0.0692 0.36403639,0.36403639 0 0 1 -0.03772,-0.0801 0.36403639,0.36403639 0 0 1 -0.01705,-0.0873 0.36403639,0.36403639 0 0 1 0.0047,-0.0889 0.36403639,0.36403639 0 0 1 0.02635,-0.0847 l 0.831991,-1.87689 -1.959054,-0.61339 a 0.36403639,0.36403639 0 0 1 -0.08113,-0.0362 0.36403639,0.36403639 0 0 1 -0.06976,-0.0553 0.36403639,0.36403639 0 0 1 -0.05426,-0.0703 0.36403639,0.36403639 0 0 1 -0.03566,-0.0816 0.36403639,0.36403639 0 0 1 -0.01499,-0.0873 0.36403639,0.36403639 0 0 1 0.0067,-0.0889 0.36403639,0.36403639 0 0 1 0.02842,-0.0842 c 0.03569,-0.0744 0.07185,-0.14761 0.10852,-0.21962 0.03667,-0.072 0.07347,-0.14275 0.111105,-0.21239 0.03763,-0.0696 0.07614,-0.13787 0.114721,-0.20516 0.03858,-0.0673 0.07728,-0.13347 0.116789,-0.19844 0.03951,-0.065 0.07946,-0.12905 0.119889,-0.19172 0.04042,-0.0627 0.08167,-0.12409 0.12299,-0.18448 0.04132,-0.0604 0.08286,-0.11962 0.125057,-0.17777 0.0422,-0.0582 0.0851,-0.11512 0.128158,-0.17105 0.04306,-0.0559 0.08632,-0.1106 0.130224,-0.16433 0.04391,-0.0537 0.08808,-0.10658 0.132809,-0.15813 0.04473,-0.0515 0.08985,-0.10201 0.135392,-0.15141 0.04554,-0.0494 0.09164,-0.0979 0.137976,-0.14521 0.04634,-0.0473 0.09293,-0.0933 0.140043,-0.13849 0.04711,-0.0452 0.09476,-0.0892 0.142627,-0.1323 0.04787,-0.0431 0.09608,-0.0855 0.144694,-0.1266 0.04861,-0.0411 0.09743,-0.0809 0.146761,-0.11989 0.04934,-0.039 0.0993,-0.0772 0.149345,-0.11421 0.05004,-0.037 0.100161,-0.0729 0.150895,-0.108 0.05073,-0.0351 0.102072,-0.0692 0.153479,-0.10232 0.05141,-0.0331 0.102967,-0.0654 0.15503,-0.0966 0.05206,-0.0312 0.104395,-0.0611 0.157096,-0.0904 0.0527,-0.0293 0.105841,-0.0579 0.159163,-0.0853 0.05332,-0.0274 0.106787,-0.0535 0.160714,-0.0791 0.05393,-0.0256 0.108267,-0.0507 0.162781,-0.0744 0.05451,-0.0238 0.109247,-0.0463 0.164331,-0.0682 0.05508,-0.0219 0.110761,-0.0429 0.166398,-0.063 0.05564,-0.0202 0.111259,-0.0395 0.167432,-0.0579 0.05617,-0.0184 0.112808,-0.036 0.169498,-0.0527 0.05669,-0.0167 0.113857,-0.0325 0.171049,-0.0475 0.05719,-0.015 0.114407,-0.0296 0.172083,-0.0429 0.05768,-0.0133 0.11549,-0.0255 0.173633,-0.0372 0.05814,-0.0117 0.11659,-0.0225 0.175183,-0.0326 0.05859,-0.0101 0.117248,-0.0194 0.176216,-0.0279 0.05897,-0.009 0.118432,-0.0167 0.177767,-0.0238 0.05934,-0.007 0.11859,-0.0135 0.178284,-0.0191 0.05969,-0.006 0.11979,-0.0102 0.179834,-0.0145 0.06004,-0.004 0.119966,-0.008 0.180351,-0.0109 0.06038,-0.003 0.121183,-0.005 0.181901,-0.007 0.06072,-0.002 0.121375,-0.003 0.182418,-0.003 0.06104,-3e-4 0.12261,7e-5 0.183968,10e-4 0.06136,9.6e-4 0.122819,0.003 0.184485,0.005 0.05325,0.002 0.106723,0.004 0.160197,0.007 l 9.666593,-16.06362 H 59.05286 l -9.538436,15.86312 -9.538436,-15.86312 z" />
      <path
         id="path2453"
         style="font-style:normal;font-variant:normal;font-weight:bold;font-stretch:normal;font-size:51.0072px;line-height:1.25;font-family:Montserrat;-inkscape-font-specification:'Montserrat Bold';letter-spacing:0px;word-spacing:0px;fill:#d86379;fill-opacity:1;stroke-width:1.27518"
         d="m 80.067598,157.38827 c -8.722215,0 -15.098304,5.86571 -15.098304,14.12885 0,4.45904 1.857068,8.22005 4.937167,10.73785 0.02165,-0.0231 0.04336,-0.0466 0.06511,-0.0692 0.04979,-0.0518 0.09953,-0.10247 0.149862,-0.15193 0.05033,-0.0495 0.10106,-0.0981 0.151928,-0.14521 0.05087,-0.0472 0.102091,-0.0931 0.153479,-0.13797 0.05139,-0.0449 0.103136,-0.0886 0.15503,-0.13126 0.05189,-0.0427 0.103676,-0.0841 0.156063,-0.12454 0.05239,-0.0404 0.105263,-0.0796 0.158129,-0.11782 0.05287,-0.0383 0.105832,-0.0755 0.159164,-0.11162 0.05333,-0.0361 0.106929,-0.0715 0.160714,-0.10542 0.05378,-0.034 0.10804,-0.0669 0.162264,-0.0987 0.05422,-0.0318 0.108648,-0.0622 0.163297,-0.092 0.05465,-0.0298 0.10927,-0.0586 0.164331,-0.0863 0.05506,-0.0277 0.110423,-0.0549 0.165881,-0.0806 0.05546,-0.0257 0.111071,-0.0502 0.166915,-0.0739 0.05585,-0.0237 0.111732,-0.0465 0.167949,-0.0682 0.05622,-0.0217 0.112924,-0.0427 0.169498,-0.0625 0.05658,-0.0198 0.113096,-0.0384 0.170016,-0.0563 0.05692,-0.0179 0.113798,-0.0346 0.171049,-0.0506 0.05725,-0.016 0.11503,-0.0313 0.172599,-0.0455 0.05757,-0.0141 0.115243,-0.0275 0.173116,-0.0398 0.05787,-0.0123 0.115985,-0.0236 0.17415,-0.0341 0.05816,-0.0105 0.116224,-0.0202 0.174666,-0.0289 0.116885,-0.0175 0.23452,-0.0314 0.352433,-0.0419 0.117915,-0.0105 0.236181,-0.0174 0.355017,-0.0212 0.118838,-0.004 0.238108,-0.004 0.357601,-0.002 0.119495,0.002 0.239029,0.007 0.359152,0.0155 0.120122,0.008 0.241013,0.019 0.361735,0.0325 0.120721,0.0136 0.241477,0.0298 0.362768,0.0486 0.121292,0.0188 0.243004,0.0403 0.364836,0.0641 0.121832,0.0237 0.244043,0.0497 0.366386,0.078 0.122343,0.0284 0.244594,0.0593 0.367419,0.092 0.122825,0.0327 0.246209,0.0676 0.369487,0.10439 0.123277,0.0368 0.246302,0.0752 0.370003,0.11575 0.123701,0.0405 0.247975,0.0831 0.37207,0.12713 0.124095,0.044 0.248128,0.0897 0.372587,0.13694 0.12446,0.0472 0.249342,0.0956 0.374138,0.14573 0.124795,0.0501 0.249552,0.10178 0.374654,0.15451 0.125101,0.0527 0.25031,0.10669 0.375687,0.16175 0.250758,0.11011 0.502269,0.22442 0.75396,0.3421 a 0.36403639,0.36403639 0 0 1 0.05323,0.031 0.36403639,0.36403639 0 0 1 0.04703,0.0393 0.36403639,0.36403639 0 0 1 0.03979,0.0465 0.36403639,0.36403639 0 0 1 0.03152,0.0522 0.36403639,0.36403639 0 0 1 0.02222,0.0574 0.36403639,0.36403639 0 0 1 0.0124,0.0599 0.36403639,0.36403639 0 0 1 0.0026,0.0615 0.36403639,0.36403639 0 0 1 -0.0083,0.061 0.36403639,0.36403639 0 0 1 -0.0186,0.0584 0.36403639,0.36403639 0 0 1 -0.02791,0.0548 c -0.147219,0.23563 -0.29592,0.4683 -0.446484,0.69711 -0.07528,0.11441 -0.150543,0.22772 -0.22686,0.34003 -0.07631,0.11232 -0.153511,0.22336 -0.230993,0.33332 -0.07748,0.10996 -0.155314,0.21873 -0.234094,0.32607 -0.07878,0.10735 -0.158534,0.21334 -0.238746,0.31781 -0.08021,0.10448 -0.161104,0.20769 -0.242879,0.30903 -0.08177,0.10134 -0.164577,0.20074 -0.248047,0.29869 -0.08347,0.0979 -0.167402,0.19406 -0.252697,0.28835 -0.05843,0.0646 -0.117914,0.1274 -0.177251,0.19017 0.711053,0.0841 1.441929,0.12764 2.190048,0.12764 8.722213,0 15.047143,-5.8662 15.047143,-14.12937 0,-1.55803 -0.225143,-3.03076 -0.648539,-4.39508 -0.02047,-9.5e-4 -0.04107,-10e-4 -0.06149,-0.003 -0.06042,-0.003 -0.120822,-0.007 -0.180868,-0.0114 -0.06005,-0.005 -0.119649,-0.0102 -0.179317,-0.016 -0.05967,-0.006 -0.119004,-0.0124 -0.178283,-0.0196 -0.05928,-0.007 -0.118368,-0.0151 -0.177251,-0.0238 -0.05888,-0.009 -0.117741,-0.0178 -0.176216,-0.0279 -0.05848,-0.0101 -0.116607,-0.021 -0.174667,-0.0326 -0.05804,-0.0115 -0.116075,-0.0236 -0.173632,-0.0367 -0.05756,-0.0131 -0.115032,-0.0271 -0.172083,-0.0419 -0.05705,-0.0147 -0.113488,-0.0306 -0.170015,-0.047 -0.05653,-0.0164 -0.112997,-0.0336 -0.168982,-0.0517 -0.05599,-0.018 -0.11149,-0.0366 -0.166915,-0.0563 -0.05543,-0.0197 -0.110517,-0.0406 -0.165365,-0.062 -0.05485,-0.0215 -0.109562,-0.044 -0.163814,-0.0672 -0.05425,-0.0232 -0.108109,-0.0469 -0.161747,-0.0718 -0.05364,-0.0249 -0.10719,-0.0508 -0.160197,-0.0775 -0.05301,-0.0267 -0.105772,-0.0547 -0.15813,-0.0832 -0.05236,-0.0285 -0.104372,-0.058 -0.156063,-0.0884 -0.05169,-0.0304 -0.10299,-0.0613 -0.153996,-0.0935 -0.05101,-0.0322 -0.101626,-0.0656 -0.151928,-0.0997 -0.0503,-0.0341 -0.100281,-0.0689 -0.149862,-0.1049 -0.04958,-0.036 -0.09895,-0.0732 -0.147795,-0.11111 -0.04884,-0.0379 -0.09712,-0.0769 -0.14521,-0.11678 -0.04809,-0.0399 -0.09583,-0.0806 -0.143144,-0.12248 -0.04731,-0.0419 -0.09404,-0.0848 -0.14056,-0.12867 -0.04652,-0.0439 -0.09278,-0.0885 -0.138493,-0.13436 -0.04571,-0.0459 -0.09103,-0.0931 -0.135909,-0.14108 -0.04488,-0.0479 -0.08929,-0.0967 -0.133325,-0.14676 -0.04403,-0.05 -0.08757,-0.10086 -0.130741,-0.15296 -0.04317,-0.0521 -0.08587,-0.10546 -0.128158,-0.15968 -0.04229,-0.0542 -0.08419,-0.10951 -0.125574,-0.16588 -0.04139,-0.0564 -0.08252,-0.11407 -0.12299,-0.1726 -0.04047,-0.0585 -0.08035,-0.11807 -0.119889,-0.1788 -0.03954,-0.0607 -0.07872,-0.12257 -0.117305,-0.18552 -0.03858,-0.0629 -0.07659,-0.12705 -0.114205,-0.19224 -0.03761,-0.0652 -0.07448,-0.1315 -0.111105,-0.19895 -0.03662,-0.0674 -0.07291,-0.13593 -0.10852,-0.20567 -0.03561,-0.0697 -0.07083,-0.14034 -0.10542,-0.21239 -0.03459,-0.072 -0.06877,-0.14524 -0.10232,-0.21963 -0.01162,-0.0257 -0.02842,-0.0636 -0.02894,-0.0646 a 0.36403639,0.36403639 0 0 1 -0.02636,-0.0853 0.36403639,0.36403639 0 0 1 -0.0052,-0.0894 0.36403639,0.36403639 0 0 1 0.01705,-0.0879 0.36403639,0.36403639 0 0 1 0.03824,-0.0806 0.36403639,0.36403639 0 0 1 0.05633,-0.0693 0.36403639,0.36403639 0 0 1 0.07183,-0.0532 0.36403639,0.36403639 0 0 1 0.08217,-0.0346 l 1.976623,-0.55242 -0.313675,-0.77101 c -2.657852,-2.38825 -6.341164,-3.78427 -10.595219,-3.78427 z m 0,6.5288 c 3.978554,0 6.988204,2.8564 6.988204,7.60005 0,4.74367 -3.00965,7.60006 -6.988204,7.60006 -3.978553,0 -7.038847,-2.85639 -7.038847,-7.60006 0,-4.74365 3.060294,-7.60005 7.038847,-7.60005 z" />
      <path
         id="path2547"
         style="font-style:normal;font-variant:normal;font-weight:bold;font-stretch:normal;font-size:51.0072px;line-height:1.25;font-family:Montserrat;-inkscape-font-specification:'Montserrat Bold';letter-spacing:0px;word-spacing:0px;fill:#d86379;fill-opacity:1;stroke-width:1.27518"
         d="m 98.532104,157.79651 v 6.12056 h 13.618806 l -13.975891,16.52664 v 4.79454 h 21.738721 a 0.36403639,0.36403639 0 0 1 0.016,-0.0393 c 0.04,-0.0722 0.0802,-0.14314 0.12093,-0.21291 0.0408,-0.0698 0.0819,-0.13833 0.1235,-0.20567 0.0416,-0.0673 0.0837,-0.1335 0.12609,-0.19844 0.0424,-0.0649 0.0855,-0.12864 0.12868,-0.1912 0.0432,-0.0626 0.0867,-0.12375 0.13074,-0.18397 0.044,-0.0602 0.0881,-0.11936 0.13281,-0.17725 0.0448,-0.0579 0.0899,-0.11442 0.13539,-0.17002 0.0455,-0.0556 0.0918,-0.10997 0.13798,-0.16329 0.0462,-0.0533 0.0926,-0.10602 0.13952,-0.1571 0.0469,-0.0511 0.0945,-0.101 0.14211,-0.14986 0.0476,-0.0489 0.0953,-0.0965 0.14366,-0.14315 0.0483,-0.0467 0.0973,-0.0924 0.14625,-0.13694 0.049,-0.0445 0.0982,-0.0879 0.14779,-0.13022 0.0496,-0.0424 0.0996,-0.0838 0.14986,-0.12403 0.0503,-0.0402 0.10103,-0.0791 0.15193,-0.1173 0.0509,-0.0382 0.10197,-0.0755 0.15348,-0.11162 0.0515,-0.0361 0.10345,-0.0708 0.15555,-0.10491 0.0521,-0.0341 0.10442,-0.0672 0.15709,-0.0992 0.0527,-0.032 0.10542,-0.0635 0.15865,-0.0935 0.0154,-0.009 0.031,-0.0168 0.0465,-0.0253 v -3.18585 H 108.2235 l 13.97589,-16.52613 v -4.79454 z" />
      <path
         id="path2594"
         style="font-style:normal;font-variant:normal;font-weight:bold;font-stretch:normal;font-size:51.0072px;line-height:1.25;font-family:Montserrat;-inkscape-font-specification:'Montserrat Bold';letter-spacing:0px;word-spacing:0px;fill:#d86379;fill-opacity:1;stroke-width:1.27518"
         d="m 142.69892,157.71228 c -1.18938,-0.21658 -2.48132,-0.32401 -3.87108,-0.32401 -4.38662,0 -8.82448,1.17325 -11.83391,3.31556 l 2.85668,5.55987 c 1.98926,-1.58122 4.99858,-2.55023 7.90597,-2.55023 4.2846,0 6.32468,1.98892 6.32468,5.40638 h -6.32468 c -8.36516,0 -11.78274,3.36676 -11.78274,8.21242 0,1.64324 0.45931,3.14545 1.32653,4.40749 0.0228,0.004 0.0454,0.008 0.0682,0.0119 0.0625,0.0114 0.12536,0.0232 0.1881,0.0357 0.0627,0.0124 0.12569,0.0254 0.18862,0.0388 0.0629,0.0134 0.12602,0.0275 0.18913,0.0418 0.0631,0.0144 0.12637,0.0292 0.18966,0.0445 0.0633,0.0153 0.12619,0.0309 0.18965,0.047 0.0635,0.0161 0.12706,0.0326 0.19068,0.0496 0.0636,0.017 0.12743,0.0344 0.19121,0.0522 0.0638,0.0178 0.12779,0.0362 0.19172,0.0548 0.0639,0.0186 0.12764,0.0376 0.19172,0.0568 0.0641,0.0193 0.12854,0.0389 0.19275,0.0589 0.12842,0.04 0.25709,0.0815 0.38602,0.12402 0.12894,0.0426 0.25818,0.0859 0.38758,0.13074 0.12939,0.0449 0.25881,0.0911 0.3886,0.13798 0.1298,0.0469 0.26001,0.0945 0.39016,0.14314 a 0.36403639,0.36403639 0 0 1 0.0331,0.0145 0.36403639,0.36403639 0 0 1 0.032,0.0176 0.36403639,0.36403639 0 0 1 0.0295,0.0207 0.36403639,0.36403639 0 0 1 0.0279,0.0238 0.36403639,0.36403639 0 0 1 0.0248,0.0258 0.36403639,0.36403639 0 0 1 0.0227,0.0289 0.36403639,0.36403639 0 0 1 0.0191,0.0305 0.36403639,0.36403639 0 0 1 0.0165,0.0326 0.36403639,0.36403639 0 0 1 0.0129,0.0336 0.36403639,0.36403639 0 0 1 0.009,0.0351 0.36403639,0.36403639 0 0 1 0.006,0.0357 0.36403639,0.36403639 0 0 1 0.003,0.0362 0.36403639,0.36403639 0 0 1 -0.002,0.0362 0.36403639,0.36403639 0 0 1 -0.005,0.0362 0.36403639,0.36403639 0 0 1 -0.008,0.0351 0.36403639,0.36403639 0 0 1 -0.0119,0.0346 0.36403639,0.36403639 0 0 1 -0.015,0.0331 c -0.064,0.12332 -0.12843,0.24562 -0.19327,0.36742 -0.0648,0.12179 -0.13049,0.24274 -0.19637,0.36276 -0.0659,0.12003 -0.13188,0.23908 -0.19896,0.35709 -0.006,0.0113 -0.0132,0.0223 -0.0196,0.0336 1.57269,0.7956 3.52913,1.24798 5.81515,1.24798 4.02956,0 6.88567,-1.32625 8.36487,-3.8256 v 3.41736 h 7.44709 v -15.65899 c 0,-3.62131 -0.9195,-6.40051 -2.64842,-8.3845 -0.0473,0.0345 -0.0948,0.0687 -0.14314,0.1018 -0.0486,0.0333 -0.0976,0.0654 -0.14728,0.0971 -0.0497,0.0318 -0.10016,0.0633 -0.1509,0.0935 -0.0507,0.0303 -0.10167,0.0596 -0.15347,0.0884 -0.0518,0.0287 -0.10422,0.0565 -0.1571,0.0837 -0.0529,0.0272 -0.10623,0.0535 -0.1602,0.0791 -0.054,0.0256 -0.10875,0.0504 -0.16381,0.0744 -0.0551,0.024 -0.11075,0.0474 -0.16692,0.0698 -0.0562,0.0223 -0.11274,0.0434 -0.17001,0.0641 -0.0573,0.0206 -0.11524,0.0405 -0.17364,0.0594 -0.0584,0.0189 -0.1172,0.0371 -0.17673,0.0543 -0.0595,0.0172 -0.11968,0.0337 -0.18035,0.0491 -0.0607,0.0154 -0.12215,0.0298 -0.18397,0.0434 -0.0618,0.0136 -0.12409,0.0264 -0.18707,0.0382 -0.063,0.0118 -0.12654,0.0226 -0.19068,0.0326 -0.0641,0.01 -0.12847,0.0193 -0.19379,0.0274 -0.0653,0.008 -0.13142,0.015 -0.19792,0.0212 -0.0665,0.006 -0.13384,0.0113 -0.20154,0.0155 -0.0677,0.004 -0.13574,0.008 -0.20464,0.01 -0.0689,0.002 -0.13866,0.003 -0.20877,0.004 -0.0701,2.7e-4 -0.14054,-3.2e-4 -0.21187,-0.002 -0.0713,-0.002 -0.14345,-0.004 -0.21601,-0.008 -0.0726,-0.004 -0.14582,-0.009 -0.21962,-0.0145 -0.0738,-0.006 -0.14819,-0.0127 -0.22325,-0.0207 -0.075,-0.008 -0.15055,-0.0173 -0.22686,-0.0274 -0.0763,-0.0101 -0.15341,-0.0213 -0.23099,-0.0336 -0.0776,-0.0123 -0.15576,-0.0258 -0.23461,-0.0403 -0.0789,-0.0145 -0.15809,-0.0298 -0.23823,-0.0465 a 0.36403639,0.36403639 0 0 1 -0.0103,-0.002 c -0.004,-10e-4 -0.0301,-0.008 -0.0331,-0.008 a 0.36403639,0.36403639 0 0 1 -0.0863,-0.0274 0.36403639,0.36403639 0 0 1 -0.0765,-0.0476 0.36403639,0.36403639 0 0 1 -0.063,-0.0651 0.36403639,0.36403639 0 0 1 -0.0444,-0.0786 0.36403639,0.36403639 0 0 1 -0.0238,-0.0873 0.36403639,0.36403639 0 0 1 -0.002,-0.0904 0.36403639,0.36403639 0 0 1 0.0207,-0.0879 l 0.71468,-1.92598 -1.99367,-0.4899 a 0.36403639,0.36403639 0 0 1 -0.0832,-0.032 0.36403639,0.36403639 0 0 1 -0.0729,-0.0506 0.36403639,0.36403639 0 0 1 -0.0584,-0.0672 0.36403639,0.36403639 0 0 1 -0.0403,-0.0791 0.36403639,0.36403639 0 0 1 -0.0202,-0.0868 0.36403639,0.36403639 0 0 1 0.002,-0.0889 0.36403639,0.36403639 0 0 1 0.0232,-0.0858 c 0.031,-0.0765 0.0624,-0.15168 0.0946,-0.22582 0.0321,-0.0742 0.0649,-0.14728 0.0982,-0.21911 0.0333,-0.0718 0.0669,-0.14233 0.10129,-0.21187 0.0343,-0.0695 0.0695,-0.13839 0.1049,-0.20568 0.0236,-0.0448 0.0473,-0.0885 0.0713,-0.13229 z m -4.07521,16.04915 h 5.45755 v 2.80551 c -0.91813,2.49935 -3.21342,3.72381 -5.86579,3.72381 -2.8054,0 -4.48862,-1.32628 -4.48862,-3.31556 0,-1.83626 1.17336,-3.21376 4.89686,-3.21376 z" />
      <path
         id="path2661"
         style="font-style:normal;font-variant:normal;font-weight:bold;font-stretch:normal;font-size:51.0072px;line-height:1.25;font-family:Montserrat;-inkscape-font-specification:'Montserrat Bold';letter-spacing:0px;word-spacing:0px;fill:#d86379;fill-opacity:1;stroke-width:1.27518"
         d="m 159.23072,147.39095 v 37.8473 h 4.85345 l 0.25167,-0.51573 -1.93528,-0.68523 a 0.36403639,0.36403639 0 0 1 -0.0796,-0.0398 0.36403639,0.36403639 0 0 1 -0.0677,-0.0579 0.36403639,0.36403639 0 0 1 -0.0512,-0.0724 0.36403639,0.36403639 0 0 1 -0.0326,-0.0827 0.36403639,0.36403639 0 0 1 -0.0119,-0.0879 0.36403639,0.36403639 0 0 1 0.0103,-0.0884 0.36403639,0.36403639 0 0 1 0.031,-0.0832 c 0.0384,-0.073 0.0775,-0.14488 0.11679,-0.21549 0.0393,-0.0706 0.0792,-0.14005 0.11937,-0.20826 0.0402,-0.0682 0.0804,-0.13519 0.12144,-0.20102 0.041,-0.0658 0.0827,-0.13031 0.12454,-0.19379 0.0419,-0.0635 0.0839,-0.12592 0.12661,-0.18707 0.0427,-0.0611 0.0862,-0.12099 0.1297,-0.17983 0.0435,-0.0588 0.0875,-0.11656 0.13178,-0.17312 0.0443,-0.0566 0.0887,-0.11209 0.13384,-0.1664 0.0451,-0.0543 0.0906,-0.10708 0.13643,-0.15916 0.0459,-0.0521 0.0924,-0.10308 0.13901,-0.15296 0.0466,-0.0499 0.0932,-0.0991 0.14056,-0.14676 0.0473,-0.0477 0.0951,-0.094 0.14314,-0.13953 0.0481,-0.0455 0.0965,-0.0899 0.14521,-0.13332 0.0487,-0.0434 0.0978,-0.0858 0.14728,-0.12713 0.0494,-0.0413 0.0992,-0.0817 0.14934,-0.12092 0.0501,-0.0393 0.10067,-0.0775 0.15142,-0.11472 0.0507,-0.0372 0.10158,-0.0734 0.15296,-0.10852 0.0514,-0.0352 0.10304,-0.0697 0.15503,-0.10284 0.052,-0.0332 0.1045,-0.0654 0.15709,-0.0966 0.0526,-0.0312 0.10547,-0.0612 0.15865,-0.0904 0.0532,-0.0293 0.10645,-0.0574 0.1602,-0.0848 0.0537,-0.0273 0.10796,-0.0536 0.16226,-0.0791 0.0543,-0.0254 0.10898,-0.0503 0.16382,-0.0739 0.0548,-0.0236 0.10949,-0.046 0.16484,-0.0677 0.0554,-0.0217 0.11106,-0.0426 0.16692,-0.0625 0.0559,-0.0199 0.11212,-0.0387 0.16846,-0.0568 0.0564,-0.0181 0.11269,-0.0353 0.1695,-0.0517 0.0568,-0.0164 0.11378,-0.0319 0.17105,-0.0465 0.0573,-0.0146 0.11489,-0.0285 0.1726,-0.0413 0.0577,-0.0129 0.11551,-0.025 0.17363,-0.0362 0.0581,-0.0112 0.11665,-0.0215 0.17519,-0.031 0.0585,-0.01 0.11729,-0.0185 0.17621,-0.0264 0.0589,-0.008 0.11801,-0.0148 0.17725,-0.0212 0.002,-2.4e-4 0.004,-2.7e-4 0.007,-5.1e-4 v -1.57768 l 3.82561,-3.77445 8.67079,10.76265 h 9.64075 L 176.87926,169.4263 188.3044,157.79651 h -9.48727 l -0.11783,0.11163 c 0.0641,0.0733 0.12771,0.14681 0.19069,0.2222 0.0825,0.0988 0.16416,0.19963 0.24495,0.30179 0.0808,0.10217 0.1611,0.20581 0.24029,0.3111 0.0792,0.10528 0.1574,0.21225 0.23513,0.32039 0.0777,0.10814 0.15459,0.21741 0.23099,0.32815 0.0764,0.11073 0.15217,0.22281 0.22738,0.33589 0.0752,0.11308 0.15013,0.22746 0.22427,0.34262 0.1483,0.23032 0.2944,0.46415 0.43925,0.70125 a 0.36403639,0.36403639 0 0 1 0.03,0.0615 0.36403639,0.36403639 0 0 1 0.0181,0.0661 0.36403639,0.36403639 0 0 1 0.006,0.0682 0.36403639,0.36403639 0 0 1 -0.008,0.0682 0.36403639,0.36403639 0 0 1 -0.0202,0.0651 0.36403639,0.36403639 0 0 1 -0.032,0.0605 0.36403639,0.36403639 0 0 1 -0.0424,0.0537 0.36403639,0.36403639 0 0 1 -0.0522,0.0444 0.36403639,0.36403639 0 0 1 -0.0594,0.0336 c -0.25286,0.11515 -0.50517,0.22725 -0.75706,0.33487 -0.12595,0.0538 -0.25158,0.10664 -0.37724,0.15812 -0.12566,0.0515 -0.25139,0.1015 -0.37672,0.15038 -0.12533,0.0489 -0.2502,0.0967 -0.37517,0.14263 -0.12497,0.046 -0.25008,0.0905 -0.37466,0.13333 -0.12458,0.0428 -0.24895,0.0837 -0.3731,0.12299 -0.12415,0.0393 -0.24786,0.0771 -0.37155,0.11265 -0.1237,0.0356 -0.24733,0.0693 -0.37052,0.10077 -0.1232,0.0315 -0.2463,0.0607 -0.36897,0.0879 -0.12267,0.0272 -0.2448,0.0519 -0.36691,0.0744 -0.1221,0.0225 -0.24384,0.0429 -0.36535,0.0605 -0.12151,0.0176 -0.24292,0.0326 -0.3638,0.045 -0.12088,0.0124 -0.24152,0.0221 -0.36174,0.0289 -0.12022,0.007 -0.24014,0.0113 -0.35966,0.0124 -0.11953,10e-4 -0.23829,-7e-4 -0.35709,-0.006 -0.11879,-0.005 -0.23721,-0.0136 -0.35502,-0.0253 -0.1178,-0.0117 -0.2352,-0.0268 -0.35191,-0.0455 -0.10874,-0.0174 -0.21683,-0.0384 -0.32453,-0.062 l -6.4332,6.09472 v -21.42298 z" />
      <path
         id="path2902"
         style="font-style:normal;font-variant:normal;font-weight:bold;font-stretch:normal;font-size:51.0072px;line-height:1.25;font-family:Montserrat;-inkscape-font-specification:'Montserrat Bold';letter-spacing:0px;word-spacing:0px;fill:#d86379;fill-opacity:1;stroke-width:1.27518"
         d="m 192.23233,157.79651 v 15.50603 c 0,8.46719 4.84562,12.34395 11.73158,12.34395 3.36648,0 6.42706,-1.2753 8.51834,-3.67264 v 3.2644 h 7.5489 v -27.44174 h -7.95714 v 13.56765 c 0,5.04971 -2.65216,7.39645 -6.32468,7.39645 -1.34746,0 -2.47767,-0.30032 -3.36,-0.92708 -0.0457,0.0119 -0.0912,0.0238 -0.13746,0.0346 -0.0591,0.0138 -0.11879,0.0268 -0.1788,0.0388 -0.06,0.012 -0.12047,0.0229 -0.18138,0.0331 -0.0609,0.0102 -0.12214,0.0196 -0.18397,0.0279 -0.0618,0.008 -0.12432,0.0153 -0.18707,0.0217 -0.0627,0.006 -0.12597,0.0121 -0.18965,0.0165 -0.0637,0.004 -0.12762,0.008 -0.19224,0.0103 -0.0646,0.002 -0.12978,0.004 -0.19534,0.004 -0.0656,4.8e-4 -0.13194,0 -0.19843,-0.002 -0.0665,-0.002 -0.13306,-0.004 -0.20051,-0.008 -0.0674,-0.004 -0.13572,-0.008 -0.20412,-0.0139 -0.0684,-0.006 -0.13734,-0.0123 -0.20671,-0.0202 -0.0694,-0.008 -0.13895,-0.0164 -0.20929,-0.0264 -0.0703,-0.01 -0.14108,-0.021 -0.21239,-0.0331 -0.0713,-0.0121 -0.1432,-0.0255 -0.21549,-0.0398 -0.0723,-0.0143 -0.14532,-0.03 -0.21859,-0.0465 -0.0733,-0.0166 -0.14692,-0.0339 -0.22117,-0.0527 -0.0743,-0.0188 -0.14903,-0.0388 -0.22428,-0.06 -0.0752,-0.0211 -0.15061,-0.0432 -0.22686,-0.0667 -0.0763,-0.0234 -0.15322,-0.0481 -0.23048,-0.0739 a 0.36403639,0.36403639 0 0 1 -0.002,0 c -0.0292,-0.01 -0.0692,-0.0255 -0.0801,-0.0294 a 0.36403639,0.36403639 0 0 1 -0.0801,-0.0388 0.36403639,0.36403639 0 0 1 -0.0682,-0.0568 0.36403639,0.36403639 0 0 1 -0.0522,-0.0718 0.36403639,0.36403639 0 0 1 -0.0336,-0.0822 0.36403639,0.36403639 0 0 1 -0.0124,-0.0884 0.36403639,0.36403639 0 0 1 0.009,-0.0884 0.36403639,0.36403639 0 0 1 0.03,-0.0832 l 0.93947,-1.82831 -1.92184,-0.72244 a 0.36403639,0.36403639 0 0 1 -0.0791,-0.0413 0.36403639,0.36403639 0 0 1 -0.0667,-0.0594 0.36403639,0.36403639 0 0 1 -0.0506,-0.0734 0.36403639,0.36403639 0 0 1 -0.031,-0.0837 0.36403639,0.36403639 0 0 1 -0.009,-0.0889 0.36403639,0.36403639 0 0 1 0.0119,-0.0884 0.36403639,0.36403639 0 0 1 0.0336,-0.0827 c 0.0399,-0.0722 0.0802,-0.14312 0.12092,-0.21291 0.0408,-0.0698 0.0819,-0.13831 0.1235,-0.20567 0.0416,-0.0674 0.0837,-0.13348 0.1261,-0.19844 0.0424,-0.065 0.085,-0.12913 0.12815,-0.19172 0.0432,-0.0626 0.0868,-0.12373 0.13074,-0.18396 0.044,-0.0602 0.0886,-0.11934 0.13333,-0.17725 0.0447,-0.0579 0.0899,-0.11492 0.13539,-0.17054 0.0455,-0.0556 0.0912,-0.10995 0.13746,-0.16329 0.0462,-0.0533 0.0926,-0.10548 0.13953,-0.15658 0.0469,-0.0511 0.0945,-0.10098 0.14211,-0.14986 0.0476,-0.0489 0.0953,-0.097 0.14366,-0.14366 0.0483,-0.0467 0.0973,-0.0919 0.14624,-0.13643 0.049,-0.0445 0.0982,-0.0884 0.1478,-0.13074 0.0497,-0.0424 0.0996,-0.0838 0.14986,-0.12403 0.0503,-0.0403 0.10102,-0.0791 0.15193,-0.1173 0.0509,-0.0382 0.10196,-0.0755 0.15348,-0.11162 0.0515,-0.0361 0.10343,-0.0713 0.15554,-0.10542 0.0521,-0.0341 0.10442,-0.0671 0.1571,-0.0992 0.0527,-0.0321 0.10592,-0.0629 0.15916,-0.093 0.0532,-0.0301 0.10693,-0.0592 0.16072,-0.0873 0.0538,-0.0281 0.10743,-0.0555 0.16174,-0.0816 0.0543,-0.0262 0.10899,-0.0517 0.16382,-0.076 0.0361,-0.016 0.0727,-0.0308 0.10903,-0.046 v -13.01161 z" />
      <path
         id="path2695"
         style="font-style:normal;font-variant:normal;font-weight:bold;font-stretch:normal;font-size:51.0072px;line-height:1.25;font-family:Montserrat;-inkscape-font-specification:'Montserrat Bold';letter-spacing:0px;word-spacing:0px;fill:#d86379;fill-opacity:1;stroke-width:1.27518"
         d="m 244.46325,157.38827 c -4.2336,0 -7.49784,1.37735 -9.43612,4.02973 v -3.62149 h -7.60005 v 1.37356 c 0.0344,0.0146 0.0687,0.0292 0.10283,0.0444 0.0542,0.0241 0.10815,0.0487 0.16175,0.0744 0.0536,0.0257 0.10665,0.0524 0.15968,0.0796 0.053,0.0272 0.10565,0.0551 0.15813,0.0837 0.0525,0.0286 0.10464,0.0579 0.15658,0.0879 0.0519,0.03 0.10361,0.0602 0.15503,0.0915 0.10284,0.0626 0.2051,0.1281 0.30593,0.19586 0.10082,0.0677 0.20028,0.13767 0.2992,0.21032 0.0989,0.0726 0.19691,0.14803 0.29404,0.22531 0.0971,0.0773 0.19343,0.1566 0.28887,0.23823 0.0954,0.0816 0.19036,0.16543 0.28422,0.25115 0.0939,0.0857 0.18667,0.17351 0.27905,0.26303 0.0924,0.0895 0.18441,0.18082 0.27544,0.27388 0.091,0.0931 0.18101,0.18789 0.27078,0.28422 0.0898,0.0963 0.17906,0.1942 0.26769,0.29353 0.0886,0.0993 0.17699,0.20025 0.26458,0.3023 0.0876,0.10206 0.1743,0.20504 0.26097,0.30955 0.0867,0.1045 0.17305,0.21008 0.2589,0.31677 0.0858,0.10669 0.17118,0.21489 0.25631,0.3235 0.0851,0.1086 0.17024,0.2179 0.25477,0.32814 a 0.36403639,0.36403639 0 0 1 0.0305,0.047 0.36403639,0.36403639 0 0 1 0.0227,0.0506 0.36403639,0.36403639 0 0 1 0.015,0.0543 0.36403639,0.36403639 0 0 1 0.007,0.0553 0.36403639,0.36403639 0 0 1 -0.002,0.0558 0.36403639,0.36403639 0 0 1 -0.0109,0.0553 0.36403639,0.36403639 0 0 1 -0.0186,0.0522 0.36403639,0.36403639 0 0 1 -0.0269,0.0491 0.36403639,0.36403639 0 0 1 -0.0341,0.0445 0.36403639,0.36403639 0 0 1 -0.0403,0.0387 0.36403639,0.36403639 0 0 1 -0.046,0.032 c -0.11965,0.0706 -0.23904,0.14046 -0.35864,0.20929 -0.11959,0.0688 -0.23909,0.13682 -0.35863,0.20361 -0.11954,0.0668 -0.23915,0.13244 -0.35864,0.19689 -0.11948,0.0644 -0.2392,0.12783 -0.35863,0.18965 -0.11943,0.0618 -0.23874,0.12197 -0.35812,0.18087 -0.11937,0.0589 -0.2388,0.1164 -0.35812,0.17208 -0.11931,0.0557 -0.23834,0.10956 -0.3576,0.16175 -0.11925,0.0522 -0.2384,0.1025 -0.3576,0.15089 -0.11919,0.0484 -0.23847,0.0952 -0.3576,0.13953 -0.11913,0.0443 -0.23801,0.0862 -0.35708,0.12609 -0.11907,0.0399 -0.2386,0.0779 -0.3576,0.11317 -0.11901,0.0353 -0.23763,0.0679 -0.35657,0.0982 -0.11877,0.0303 -0.23735,0.0582 -0.35605,0.0832 v 19.23087 h 7.95714 v -12.9558 c 0,-5.25373 2.90752,-7.65121 7.29412,-7.65121 0.61209,0 1.12181,0.0513 1.78491,0.10232 z" />
      <path
         id="path2828"
         style="font-style:normal;font-variant:normal;font-weight:bold;font-stretch:normal;font-size:51.0072px;line-height:1.25;font-family:Montserrat;-inkscape-font-specification:'Montserrat Bold';letter-spacing:0px;word-spacing:0px;fill:#d86379;fill-opacity:1;stroke-width:1.27518"
         d="m 260.12276,157.38827 c -4.38662,0 -8.82448,1.17325 -11.83391,3.31556 l 2.85668,5.55987 c 1.98929,-1.58122 4.99859,-2.55023 7.90597,-2.55023 4.28461,0 6.32468,1.98893 6.32468,5.40638 h -6.32468 c -1.99858,0 -3.71405,0.1928 -5.16867,0.55139 -2.65007,0.6533 -4.43179,1.85896 -5.47202,3.46129 0.0296,-9.9e-4 0.0592,-0.002 0.0889,-0.003 0.0613,-10e-4 0.12279,-0.002 0.18449,-0.003 0.0617,-2.4e-4 0.12347,6.3e-4 0.18552,0.002 0.062,9.2e-4 0.12417,0.002 0.18655,0.004 0.0624,0.002 0.12487,0.005 0.18758,0.008 0.0627,0.003 0.1256,0.007 0.18862,0.0114 0.063,0.004 0.12632,0.009 0.18966,0.014 0.0633,0.005 0.12705,0.0113 0.19068,0.0176 0.0636,0.006 0.12728,0.013 0.1912,0.0202 l -5.1e-4,-5.2e-4 c 0.0639,0.007 0.12803,0.0152 0.19223,0.0232 0.0642,0.008 0.1288,0.0169 0.19327,0.0258 0.0645,0.009 0.12906,0.0181 0.19379,0.0279 0.0647,0.01 0.12932,0.0203 0.1943,0.031 0.12996,0.0213 0.26082,0.0444 0.39171,0.0687 0.13089,0.0244 0.26204,0.0498 0.39378,0.077 0.13173,0.0272 0.26386,0.0561 0.39635,0.0858 0.1325,0.0297 0.26526,0.0606 0.39843,0.0925 0.13317,0.032 0.26673,0.0648 0.40049,0.0987 0.13377,0.0339 0.26777,0.0688 0.40204,0.10438 a 0.36403639,0.36403639 0 0 1 0.0393,0.0129 0.36403639,0.36403639 0 0 1 0.0372,0.0171 0.36403639,0.36403639 0 0 1 0.0351,0.0212 0.36403639,0.36403639 0 0 1 0.0325,0.0248 0.36403639,0.36403639 0 0 1 0.03,0.0284 0.36403639,0.36403639 0 0 1 0.0258,0.032 0.36403639,0.36403639 0 0 1 0.0227,0.0346 0.36403639,0.36403639 0 0 1 0.0181,0.0367 0.36403639,0.36403639 0 0 1 0.0145,0.0388 0.36403639,0.36403639 0 0 1 0.009,0.0398 0.36403639,0.36403639 0 0 1 0.005,0.0408 0.36403639,0.36403639 0 0 1 5.1e-4,0.0408 0.36403639,0.36403639 0 0 1 -0.004,0.0413 0.36403639,0.36403639 0 0 1 -0.009,0.0398 0.36403639,0.36403639 0 0 1 -0.0129,0.0393 c -0.0516,0.129 -0.10397,0.25742 -0.15658,0.38499 -0.0526,0.12758 -0.10587,0.25391 -0.15968,0.37983 -0.0538,0.12592 -0.1081,0.25113 -0.16329,0.37517 -0.0552,0.12403 -0.1112,0.24705 -0.16795,0.36897 -0.0567,0.12192 -0.11412,0.24267 -0.1726,0.36225 -0.0585,0.11957 -0.11789,0.23802 -0.17828,0.35502 -0.0302,0.0585 -0.0608,0.11685 -0.0915,0.17466 -0.0307,0.0578 -0.0618,0.11499 -0.093,0.17208 -0.0312,0.0571 -0.0628,0.11419 -0.0946,0.17054 -0.0318,0.0564 -0.0637,0.11185 -0.0961,0.16743 -0.0324,0.0556 -0.0652,0.11111 -0.0982,0.16588 -0.033,0.0548 -0.0661,0.10884 -0.0997,0.16278 -0.0336,0.0539 -0.0676,0.10764 -0.1018,0.16071 -0.0343,0.0531 -0.069,0.10595 -0.10387,0.15813 -0.0349,0.0522 -0.0698,0.10376 -0.10542,0.15503 -0.0356,0.0513 -0.0717,0.10213 -0.108,0.15245 -0.0363,0.0503 -0.073,0.1 -0.11007,0.14934 -0.0371,0.0494 -0.0743,0.0984 -0.11214,0.14676 -0.0378,0.0483 -0.0761,0.0958 -0.11472,0.14315 -0.0386,0.0473 -0.0774,0.0943 -0.11679,0.14056 -0.0394,0.0462 -0.0792,0.0918 -0.11937,0.13694 -0.0402,0.0452 -0.0809,0.0898 -0.12196,0.13384 -0.0411,0.044 -0.0826,0.0874 -0.12454,0.13023 -0.0419,0.0429 -0.0843,0.0854 -0.12712,0.12712 -0.0428,0.0417 -0.086,0.0825 -0.12971,0.12299 -0.0437,0.0405 -0.0876,0.0806 -0.13229,0.11989 -0.0446,0.0393 -0.0898,0.0779 -0.1354,0.11576 -0.0456,0.0379 -0.0919,0.0751 -0.13849,0.11162 -0.0466,0.0365 -0.094,0.0719 -0.14159,0.10697 -0.0476,0.035 -0.0955,0.0698 -0.14418,0.10335 -0.0486,0.0336 -0.0976,0.0661 -0.14728,0.0982 -0.0496,0.0321 -0.0997,0.0635 -0.15038,0.0941 -0.0507,0.0306 -0.10229,0.0603 -0.15399,0.0894 -0.0517,0.029 -0.10384,0.0573 -0.15658,0.0848 -0.0527,0.0275 -0.10589,0.0542 -0.15968,0.0801 -0.0538,0.0259 -0.10793,0.0512 -0.16278,0.0755 -0.0549,0.0242 -0.11048,0.0477 -0.1664,0.0703 -0.0559,0.0226 -0.11251,0.0442 -0.1695,0.0651 -0.057,0.0209 -0.11452,0.0408 -0.1726,0.0599 -0.0581,0.0192 -0.11653,0.0374 -0.1757,0.0548 -0.002,5.9e-4 -0.004,9.5e-4 -0.006,0.002 1.01746,2.11735 3.03219,3.72351 5.85856,4.45554 1.09473,0.28353 2.31105,0.43666 3.63854,0.43666 4.02954,0 6.88565,-1.32625 8.36486,-3.8256 v 3.41736 h 7.44709 V 169.5801 c 0,-2.90754 -0.59341,-5.27176 -1.72186,-7.11791 -0.0214,0.002 -0.0427,0.005 -0.0641,0.007 -0.0597,0.006 -0.11922,0.0103 -0.1788,0.0145 -0.0596,0.004 -0.11935,0.008 -0.1788,0.0103 -0.0594,0.003 -0.11844,0.004 -0.17777,0.006 -0.0593,0.001 -0.11908,0.002 -0.17828,0.002 -0.0592,-3.3e-4 -0.11823,-0.002 -0.17725,-0.004 -0.059,-0.002 -0.1179,-0.005 -0.17673,-0.008 -0.0588,-0.004 -0.11759,-0.009 -0.17622,-0.014 -0.0586,-0.005 -0.11677,-0.0115 -0.17518,-0.0186 -0.0584,-0.007 -0.117,-0.0149 -0.17519,-0.0238 -0.0582,-0.009 -0.1162,-0.0188 -0.17414,-0.0295 -0.058,-0.0107 -0.11595,-0.0221 -0.17364,-0.0346 -0.0577,-0.0125 -0.11518,-0.026 -0.1726,-0.0403 -0.0574,-0.0143 -0.11443,-0.0298 -0.17156,-0.046 -0.0571,-0.0162 -0.11421,-0.0336 -0.17105,-0.0517 -0.0568,-0.0181 -0.11348,-0.0368 -0.17002,-0.0568 -0.0565,-0.02 -0.11277,-0.0411 -0.16898,-0.063 -0.0562,-0.022 -0.11259,-0.0453 -0.16846,-0.0693 -0.0559,-0.024 -0.11139,-0.0489 -0.16692,-0.0749 -0.0555,-0.026 -0.11123,-0.0531 -0.1664,-0.0811 -0.0552,-0.028 -0.11006,-0.0567 -0.16484,-0.0868 -0.0548,-0.0301 -0.10941,-0.0614 -0.16382,-0.0935 -0.0544,-0.0322 -0.10825,-0.0655 -0.16226,-0.0997 -0.054,-0.0343 -0.10815,-0.0695 -0.16175,-0.10594 -0.0536,-0.0364 -0.10702,-0.0741 -0.1602,-0.11265 -0.0532,-0.0386 -0.10591,-0.0781 -0.15864,-0.11886 -0.0527,-0.0408 -0.10533,-0.0826 -0.15762,-0.12557 -0.0523,-0.043 -0.10424,-0.0875 -0.15606,-0.13281 -0.0518,-0.0453 -0.10369,-0.0915 -0.15503,-0.13901 -0.0513,-0.0475 -0.10211,-0.0964 -0.15296,-0.14624 -0.0508,-0.0498 -0.10158,-0.10079 -0.15193,-0.15296 -0.0503,-0.0522 -0.10055,-0.10567 -0.15038,-0.1602 -0.0498,-0.0545 -0.0995,-0.11 -0.14883,-0.16692 -0.0493,-0.0569 -0.098,-0.11482 -0.14676,-0.17415 -0.0488,-0.0593 -0.0975,-0.12013 -0.14573,-0.1819 -0.0482,-0.0618 -0.096,-0.1249 -0.14366,-0.18913 -0.0476,-0.0642 -0.0951,-0.12965 -0.14211,-0.19637 -0.0174,-0.0247 -0.0412,-0.0598 -0.0372,-0.0548 a 0.36403639,0.36403639 0 0 1 -0.0424,-0.0786 0.36403639,0.36403639 0 0 1 -0.0222,-0.0868 0.36403639,0.36403639 0 0 1 -5.2e-4,-0.0894 0.36403639,0.36403639 0 0 1 0.0217,-0.0868 0.36403639,0.36403639 0 0 1 0.0419,-0.0791 0.36403639,0.36403639 0 0 1 0.0599,-0.0667 0.36403639,0.36403639 0 0 1 0.0744,-0.0496 l 0.93017,-0.46457 c -1.83765,-0.70974 -4.02591,-1.0573 -6.52983,-1.0573 z m -0.20412,16.37316 h 5.45754 v 2.80551 c -0.91813,2.49935 -3.21342,3.72381 -5.86579,3.72381 -2.8054,0 -4.48861,-1.32628 -4.48861,-3.31556 0,-1.83626 1.17334,-3.21376 4.89686,-3.21376 z" />
      <path
         style="color:#000000;fill:#f5a9bc;fill-opacity:1;stroke-width:0.728;stroke-linecap:round;stroke-linejoin:round;-inkscape-stroke:none"
         d="m 36.236165,156.59047 -0.389983,-2.43075 c 5.105961,-0.0744 6.444801,3.59507 7.157297,7.94248 -4.368329,0.18076 -8.207533,-0.37776 -9.204285,-5.28853 -0.0076,-0.0375 -0.01863,-0.0938 -0.02231,-0.11272 z"
         id="path2260" />
    </g>
  </g>
</svg>
