<svg xmlns="http://www.w3.org/2000/svg" width="1200" height="199" version="1.2" viewBox="0 0 554 92"><style>.s0{opacity:.5}.s0,.s1{fill:#fff}</style><path fill-rule="evenodd" d="m528.52 5.97c10.36-4.49 15.53-6.74 18.72-5.73 2.76 0.88 4.93 3.04 5.81 5.81 1.01 3.19-1.24 8.36-5.73 18.71l-6.41 14.75c-0.91 2.1-1.37 3.15-1.54 4.23q-0.24 1.46 0 2.92c0.17 1.09 0.63 2.13 1.54 4.23l6.41 14.75c4.49 10.35 6.74 15.53 5.73 18.71-0.88 2.77-3.05 4.93-5.81 5.81-3.19 1.01-8.36-1.23-18.72-5.73l-14.74-6.4c-2.1-0.92-3.15-1.37-4.24-1.55q-1.45-0.24-2.91 0c-1.09 0.18-2.14 0.63-4.23 1.55l-14.75 6.4c-10.35 4.5-15.53 6.74-18.72 5.73-2.76-0.88-4.93-3.04-5.8-5.81-1.02-3.18 1.23-8.36 5.73-18.71l6.4-14.75c0.91-2.1 1.37-3.14 1.55-4.23q0.24-1.46 0-2.92c-0.18-1.08-0.64-2.13-1.55-4.23l-6.4-14.75c-4.5-10.35-6.75-15.52-5.73-18.71 0.87-2.77 3.04-4.93 5.8-5.81 3.19-1.01 8.37 1.24 18.72 5.73l14.75 6.41c2.09 0.91 3.14 1.36 4.23 1.54q1.46 0.24 2.91 0c1.09-0.18 2.14-0.63 4.24-1.54zm-23.09 12.03c-8.55 0-12.83 0-16.1 1.66-2.87 1.46-5.21 3.8-6.67 6.67-1.67 3.27-1.67 7.55-1.67 16.1v7.13c0 8.55 0 12.83 1.67 16.09 1.46 2.88 3.8 5.22 6.67 6.68 3.27 1.66 7.55 1.66 16.1 1.66h7.13c8.55 0 12.83 0 16.09-1.66 2.88-1.46 5.21-3.8 6.68-6.68 1.66-3.26 1.66-7.54 1.66-16.09v-7.13c0-8.55 0-12.83-1.66-16.1-1.47-2.87-3.8-5.21-6.68-6.67-3.26-1.66-7.54-1.66-16.09-1.66z" class="s0"/><path d="m5 90.16c-2.76 0-5-2.24-5-5v-80.16c0-2.76 2.24-5 5-5h12.54c2.76 0 5 2.24 5 5v67.8h37.56c2.76 0 5 2.24 5 5v7.36c0 2.76-2.24 5-5 5z" class="s1"/><path d="m115.97 91.56q-12.6 0-21.98-4.06-9.24-4.06-14.42-12.04-5.04-7.98-5.04-19.6v-50.86c0-2.76 2.24-5 5-5h12.54c2.76 0 5 2.24 5 5v48.76q0 9.38 4.9 14 4.9 4.62 14 4.62 9.1 0 14-4.62 4.9-4.62 4.9-14v-48.76c0-2.76 2.24-5 5-5h12.54c2.76 0 5 2.24 5 5v50.86q0 11.62-5.18 19.6-5.04 7.98-14.42 12.04-9.24 4.06-21.84 4.06z" class="s1"/><path d="m177.33 90.16c-2.76 0-5-2.24-5-5v-80.16c0-2.76 2.24-5 5-5h34.06q13.72 0 23.1 4.62 9.38 4.48 14.28 14.56 4.9 9.94 4.9 26.46 0 23.24-10.78 33.88-10.64 10.64-31.5 10.64zm17.54-17.36h13.44q7.28 0 12.18-2.1 5.04-2.24 7.56-8.12 2.66-5.88 2.66-16.94 0-11.2-2.38-17.22-2.24-6.16-7.28-8.54-4.9-2.52-12.74-2.52h-13.44z" class="s1"/><path d="m307.3 91.56q-12.6 0-21.98-4.06-9.24-4.06-14.42-12.04-5.04-7.98-5.04-19.6v-50.86c0-2.76 2.24-5 5-5h12.54c2.77 0 5 2.24 5 5v48.76q0 9.38 4.9 14 4.9 4.62 14 4.62 9.1 0 14-4.62 4.9-4.62 4.9-14v-48.76c0-2.76 2.24-5 5-5h12.54c2.76 0 5 2.24 5 5v50.86q0 11.62-5.18 19.6-5.04 7.98-14.42 12.04-9.24 4.06-21.84 4.06z" class="s1"/><path d="m398.75 90.16c-2.07 0-3.93-1.28-4.67-3.22l-30.62-80.16c-1.25-3.27 1.17-6.78 4.67-6.78h12.73c2.12 0 4 1.33 4.71 3.32l21.78 61.08 21.91-61.09c0.71-1.98 2.59-3.31 4.7-3.31h12.88c3.51 0 5.92 3.51 4.67 6.78l-30.62 80.16c-0.74 1.94-2.59 3.22-4.67 3.22z" class="s1"/><path d="m553.8 45.57c0 25.02-20.29 45.31-45.31 45.31-25.03 0-45.32-20.29-45.32-45.31 0-25.03 20.29-45.32 45.32-45.32 25.02 0 45.31 20.29 45.31 45.32zm-20 0c0-13.98-11.33-25.32-25.31-25.32-13.99 0-25.32 11.34-25.32 25.32 0 13.98 11.33 25.31 25.32 25.31 13.98 0 25.31-11.33 25.31-25.31z" class="s1"/></svg>