<svg xmlns="http://www.w3.org/2000/svg" xmlns:xlink="http://www.w3.org/1999/xlink" width="100%" height="100%" version="1.1" viewBox="0 0 32 32" xml:space="preserve" style="fill-rule:evenodd;clip-rule:evenodd;stroke-linejoin:round;stroke-miterlimit:2"><metadata><rdf:RDF xmlns:cc="http://web.resource.org/cc/" xmlns:dc="http://purl.org/dc/elements/1.1/" xmlns:rdf="http://www.w3.org/1999/02/22-rdf-syntax-ns#"><rdf:Description><dc:title>Mutant Standard emoji 2024.06</dc:title></rdf:Description><cc:work><cc:license rdf:resource="http://creativecommons.org/licenses/by-nc-sa/4.0/"/><cc:attributionName>Caius Nocturne</cc:attributionName><cc:attributionURL>http://mutant.tech/</cc:attributionURL></cc:work></rdf:RDF></metadata><rect id="nonbinary_flag" width="32" height="32" x="0" y="0" style="fill:none"/><clipPath id="_clip1"><rect width="32" height="32" x="0" y="0"/></clipPath><g clip-path="url(#_clip1)"><g id="outline"><path d="M32,7c-0,-0.796 -0.316,-1.559 -0.879,-2.121c-0.562,-0.563 -1.325,-0.879 -2.121,-0.879l-26,0c-0.796,0 -1.559,0.316 -2.121,0.879c-0.563,0.562 -0.879,1.325 -0.879,2.121l-0,18c0,0.796 0.316,1.559 0.879,2.121c0.562,0.563 1.325,0.879 2.121,0.879l26,0c0.796,0 1.559,-0.316 2.121,-0.879c0.563,-0.562 0.879,-1.325 0.879,-2.121l-0,-18Z"/></g><g id="emoji"><path d="M30,7c0,-0.552 -0.448,-1 -1,-1c-4.355,0 -21.645,0 -26,0c-0.552,0 -1,0.448 -1,1c0,3.414 0,14.586 0,18c-0,0.552 0.448,1 1,1c4.355,0 21.645,0 26,0c0.552,-0 1,-0.448 1,-1c0,-3.414 0,-14.586 0,-18Z"/><clipPath id="_clip2"><path d="M30,7c0,-0.552 -0.448,-1 -1,-1c-4.355,0 -21.645,0 -26,0c-0.552,0 -1,0.448 -1,1c0,3.414 0,14.586 0,18c-0,0.552 0.448,1 1,1c4.355,0 21.645,0 26,0c0.552,-0 1,-0.448 1,-1c0,-3.414 0,-14.586 0,-18Z"/></clipPath><g clip-path="url(#_clip2)"><rect width="30" height="7" x="1" y="20" style="fill:#343434"/><rect width="30" height="6" x="1" y="15" style="fill:#ae60e5"/><rect width="30" height="6" x="1" y="10" style="fill:#fff"/><rect width="30" height="6" x="1" y="5" style="fill:#f0e909"/></g></g></g></svg>