<?xml version="1.0" encoding="UTF-8" standalone="no"?>
<!DOCTYPE svg PUBLIC "-//W3C//DTD SVG 1.1//EN" "http://www.w3.org/Graphics/SVG/1.1/DTD/svg11.dtd">
<svg width="100%" height="100%" viewBox="0 0 2000 2000" version="1.1" xmlns="http://www.w3.org/2000/svg" xmlns:xlink="http://www.w3.org/1999/xlink" xml:space="preserve" xmlns:serif="http://www.serif.com/" style="fill-rule:evenodd;clip-rule:evenodd;stroke-linejoin:round;stroke-miterlimit:2;">
    <rect id="ORANGE" x="0" y="0" width="2000" height="2000" style="fill:rgb(254,111,0);"/>
    <g transform="matrix(1.1729,-0.217997,0.217997,1.1729,254.438,1499.61)">
        <path d="M240.02,-396.531L240.02,-198.542L438.009,-198.542L438.009,-396.531L240.02,-396.531ZM41.478,-595.073L636.551,-595.073L636.551,0L41.478,0L41.478,-595.073Z" style="fill:white;fill-rule:nonzero;"/>
    </g>
    <g transform="matrix(1.1729,-0.217997,0.217997,1.1729,1080.03,1346.16)">
        <path d="M240.02,-396.531L240.02,-198.542L438.009,-198.542L438.009,-396.531L240.02,-396.531ZM41.478,-595.073L636.551,-595.073L636.551,0L41.478,0L41.478,-595.073Z" style="fill:white;fill-rule:nonzero;"/>
    </g>
    <g transform="matrix(1.00753,-0.187261,0.155268,0.835401,-26.3624,432.093)">
        <rect x="384.175" y="769.853" width="998.465" height="212.788" style="fill:white;"/>
    </g>
    <g transform="matrix(1.19804,0,0,1.19804,-86.2723,-40.266)">
        <path d="M249.19,126.513L249.19,374.827L314.921,374.827L314.921,467.336L156.682,467.336L156.682,126.513L249.19,126.513Z" style="fill:white;fill-rule:nonzero;"/>
        <rect x="331.962" y="126.513" width="92.509" height="340.822" style="fill:white;"/>
        <path d="M443.946,126.513L542.298,126.513L589.039,297.898L589.039,126.513L681.548,126.513L681.548,467.336L586.118,467.336L536.455,291.569L536.455,467.336L443.946,467.336L443.946,126.513Z" style="fill:white;fill-rule:nonzero;"/>
        <path d="M701.024,126.513L793.533,126.513L793.533,262.355L837.84,126.513L936.191,126.513L873.382,288.647L938.139,467.336L839.787,467.336L793.533,326.625L793.533,467.336L701.024,467.336L701.024,126.513Z" style="fill:white;fill-rule:nonzero;"/>
        <path d="M944.955,223.404C944.955,207.824 947.552,193.785 952.745,181.288C957.939,168.791 965.323,157.999 974.899,148.91C984.474,139.821 995.916,132.843 1009.23,127.974C1022.53,123.105 1037.46,120.67 1054.02,120.67C1065.38,120.67 1077.39,121.807 1090.05,124.079C1102.71,126.351 1113.74,129.272 1123.16,132.843L1123.16,229.247C1101.73,215.289 1082.1,208.311 1064.24,208.311C1056.78,208.311 1050.85,209.69 1046.47,212.449C1042.09,215.208 1039.9,218.86 1039.9,223.404C1039.9,229.247 1043.63,234.927 1051.1,240.445L1103.19,279.883C1130.13,300.333 1143.61,328.734 1143.61,365.089C1143.61,381.318 1140.93,396.087 1135.57,409.396C1130.22,422.704 1122.59,434.065 1112.69,443.478C1102.79,452.891 1090.86,460.195 1076.9,465.388C1062.94,470.582 1047.53,473.178 1030.65,473.178C1016.69,473.178 1002.17,471.474 987.071,468.066C971.978,464.658 958.263,460.032 945.929,454.19L945.929,355.351C958.263,364.44 971.491,371.743 985.61,377.261C999.73,382.779 1012.15,385.538 1022.86,385.538C1030.97,385.538 1037.3,383.915 1041.85,380.669C1046.39,377.423 1048.66,372.879 1048.66,367.036C1048.66,357.948 1044.12,350.158 1035.03,343.666L990.236,310.07C960.049,287.673 944.955,258.785 944.955,223.404Z" style="fill:white;fill-rule:nonzero;"/>
    </g>
</svg>
