<svg xmlns="http://www.w3.org/2000/svg" xmlns:xlink="http://www.w3.org/1999/xlink" width="100%" height="100%" version="1.1" viewBox="0 0 785 785" xml:space="preserve" style="fill-rule:evenodd;clip-rule:evenodd;stroke-linejoin:round;stroke-miterlimit:2"><g transform="matrix(1,0,0,1,-778,-540)"><rect width="785" height="785" x="778" y="540" style="fill:#10bd00"/></g><g transform="matrix(1.55882,0,0,2.375,-76.7059,-75.375)"><rect width="272" height="272" x="165" y="61" style="fill:#10bd00"/></g><g><path d="M437,61L437,333L165,333L165,61L437,61ZM402.003,83.97L199.997,83.97L199.997,310.03L402.003,310.03L402.003,83.97Z" transform="matrix(1.55882,0,0,2.375,-76.7059,-75.375)"/></g><g transform="matrix(0.583508,0,0,0.583508,216.864,146.265)"><rect width="272" height="272" x="165" y="61" style="fill:#10bd00"/></g><g><path d="M437,61L437,333L165,333L165,61L437,61ZM311.461,186.539L290.539,186.539L290.539,207.461L311.461,207.461L311.461,186.539Z" transform="matrix(0.583508,0,0,0.583508,216.864,146.265)"/></g><g transform="matrix(0.858744,0,0,0.858744,134.018,317.179)"><rect width="272" height="272" x="165" y="61" style="fill:#10bd00"/></g><g><path d="M437,61L437,333L165,333L165,61L437,61ZM351.698,146.302L250.302,146.302L250.302,247.698L351.698,247.698L351.698,146.302Z" transform="matrix(0.858744,0,0,0.858744,134.018,317.179)"/></g></svg>