<?xml version="1.0" encoding="UTF-8" standalone="no"?>
<!DOCTYPE svg PUBLIC "-//W3C//DTD SVG 1.1//EN" "http://www.w3.org/Graphics/SVG/1.1/DTD/svg11.dtd">
<svg width="100%" height="100%" viewBox="0 0 368 368" version="1.1" xmlns="http://www.w3.org/2000/svg" xmlns:xlink="http://www.w3.org/1999/xlink" xml:space="preserve" xmlns:serif="http://www.serif.com/" style="fill-rule:evenodd;clip-rule:evenodd;stroke-linejoin:round;stroke-miterlimit:2;">
    <g>
        <g transform="matrix(0.393264,0,0,0.393264,-400.406,-191.181)">
            <rect x="1018.16" y="486.138" width="934.987" height="934.987" style="fill:url(#_Linear1);"/>
        </g>
        <g transform="matrix(2.40805e-17,0.393264,-0.393264,2.40805e-17,524.801,-385.274)">
            <path d="M1447.17,540.829L1773.33,1193.14L1121.02,1193.14L1447.17,540.829Z" style="fill:url(#_Linear2);"/>
        </g>
        <g transform="matrix(0.393264,0,0,0.393264,-408.054,-196.351)">
            <path d="M1314.23,791.685L1394.35,791.685L1394.35,871.81L1314.23,871.81L1314.23,791.685ZM1274.28,901.718L1394.35,901.718L1394.35,1061.75L1434.31,1061.75L1434.31,1141.87L1274.28,1141.87L1274.28,1061.75L1314.23,1061.75L1314.23,981.844L1274.28,981.844L1274.28,901.718Z" style="fill-rule:nonzero;"/>
        </g>
    </g>
    <defs>
        <linearGradient id="_Linear1" x1="0" y1="0" x2="1" y2="0" gradientUnits="userSpaceOnUse" gradientTransform="matrix(5.72514e-14,934.987,-934.987,5.72514e-14,1485.65,486.138)"><stop offset="0" style="stop-color:black;stop-opacity:1"/><stop offset="0.64" style="stop-color:rgb(17,13,0);stop-opacity:1"/><stop offset="1" style="stop-color:rgb(108,87,0);stop-opacity:1"/></linearGradient>
        <linearGradient id="_Linear2" x1="0" y1="0" x2="1" y2="0" gradientUnits="userSpaceOnUse" gradientTransform="matrix(484.467,0,0,484.467,1252.15,930.872)"><stop offset="0" style="stop-color:rgb(255,204,0);stop-opacity:1"/><stop offset="1" style="stop-color:rgb(153,122,0);stop-opacity:1"/></linearGradient>
    </defs>
</svg>
