<svg xmlns="http://www.w3.org/2000/svg" xmlns:xlink="http://www.w3.org/1999/xlink" width="100%" height="100%" version="1.1" viewBox="0 0 368 368" xml:space="preserve" style="fill-rule:evenodd;clip-rule:evenodd;stroke-linejoin:round;stroke-miterlimit:2"><g><g transform="matrix(0.393264,0,0,0.393264,-400.406,-191.181)"><rect width="934.987" height="934.987" x="1018.16" y="486.138" style="fill:url(#_Linear1)"/></g><g><path d="M1447.17,540.829L1773.33,1193.14L1121.02,1193.14L1447.17,540.829Z" style="fill:url(#_Linear2)" transform="matrix(2.40805e-17,0.393264,-0.393264,2.40805e-17,524.801,-385.274)"/></g><g><path d="M1314.23,791.685L1394.35,791.685L1394.35,871.81L1314.23,871.81L1314.23,791.685ZM1274.28,901.718L1394.35,901.718L1394.35,1061.75L1434.31,1061.75L1434.31,1141.87L1274.28,1141.87L1274.28,1061.75L1314.23,1061.75L1314.23,981.844L1274.28,981.844L1274.28,901.718Z" style="fill-rule:nonzero" transform="matrix(0.393264,0,0,0.393264,-408.054,-196.351)"/></g></g><defs><linearGradient id="_Linear1" x1="0" x2="1" y1="0" y2="0" gradientTransform="matrix(5.72514e-14,934.987,-934.987,5.72514e-14,1485.65,486.138)" gradientUnits="userSpaceOnUse"><stop offset="0" style="stop-color:black;stop-opacity:1"/><stop offset=".64" style="stop-color:#110d00;stop-opacity:1"/><stop offset="1" style="stop-color:#6c5700;stop-opacity:1"/></linearGradient><linearGradient id="_Linear2" x1="0" x2="1" y1="0" y2="0" gradientTransform="matrix(484.467,0,0,484.467,1252.15,930.872)" gradientUnits="userSpaceOnUse"><stop offset="0" style="stop-color:#fc0;stop-opacity:1"/><stop offset="1" style="stop-color:#997a00;stop-opacity:1"/></linearGradient></defs></svg>