<svg xmlns="http://www.w3.org/2000/svg" xmlns:xlink="http://www.w3.org/1999/xlink" width="100%" height="100%" version="1.1" viewBox="0 0 785 785" xml:space="preserve" style="fill-rule:evenodd;clip-rule:evenodd;stroke-linejoin:round;stroke-miterlimit:2"><g transform="matrix(1,0,0,1,-778,-540)"><rect width="785" height="785" x="778" y="540" style="fill:#fe1100"/></g><g><g><path d="M540.589,199.385L683.953,269L471.835,371.999L347.579,311.663L256.392,311.663L132.136,371.999L-79.981,269L43,209.283L43,168L251,168L251,191.885L332.589,191.885L332.589,168L540.589,168L540.589,199.385ZM371.198,283.975L471.835,332.842L603.311,269L501.522,219.573L102.449,219.573L0.659,269L132.136,332.842L232.773,283.975L371.198,283.975Z" transform="matrix(0.956731,0,0,1.9703,103.581,-139.48)"/></g><g><path d="M313,354.565L313,380.435L283.435,380.435L283.435,410L257.565,410L257.565,380.435L228,380.435L228,354.565L257.565,354.565L257.565,325L283.435,325L283.435,354.565L313,354.565Z" transform="matrix(1.57647,0,0,1.57647,-195.935,-188.823)"/></g><g><path d="M313,354.565L313,380.435L283.435,380.435L283.435,410L257.565,410L257.565,380.435L228,380.435L228,354.565L257.565,354.565L257.565,325L283.435,325L283.435,354.565L313,354.565Z" transform="matrix(1.57647,0,0,1.57647,-195.935,-188.823)"/></g><g><path d="M313,354.565L313,380.435L283.435,380.435L283.435,410L257.565,410L257.565,380.435L228,380.435L228,354.565L257.565,354.565L257.565,325L283.435,325L283.435,354.565L313,354.565Z" transform="matrix(1.57647,0,0,1.57647,124.065,-188.823)"/></g><g><path d="M366,347L366,383L330,383L330,347L366,347ZM419.55,347L419.55,383L383.55,383L383.55,347L419.55,347Z" transform="matrix(1.11111,0,0,1.11111,-23.9167,-40.0254)"/></g></g></svg>