<?xml version="1.0" encoding="UTF-8" standalone="no"?>
<!DOCTYPE svg PUBLIC "-//W3C//DTD SVG 1.1//EN" "http://www.w3.org/Graphics/SVG/1.1/DTD/svg11.dtd">
<svg width="100%" height="100%" viewBox="0 0 785 785" version="1.1" xmlns="http://www.w3.org/2000/svg" xmlns:xlink="http://www.w3.org/1999/xlink" xml:space="preserve" xmlns:serif="http://www.serif.com/" style="fill-rule:evenodd;clip-rule:evenodd;stroke-linejoin:round;stroke-miterlimit:2;">
    <g transform="matrix(1,0,0,1,-778,-540)">
        <rect x="778" y="540" width="785" height="785" style="fill:rgb(247,54,201);"/>
    </g>
    <g transform="matrix(1.51923,0,0,1.51923,-72.3846,-585.885)">
        <rect x="98" y="436" width="416" height="416" style="fill:rgb(247,54,201);"/>
        <path d="M514,436L514,852L98,852L98,436L514,436ZM478.091,471.909L133.909,471.909L133.909,816.091L478.091,816.091L478.091,471.909Z"/>
    </g>
    <g transform="matrix(1.17472,0,0,1.17472,-70.9275,-72.3959)">
        <g transform="matrix(0.420673,0,0,0.420673,169.274,26.0865)">
            <rect x="98" y="436" width="416" height="416" style="fill:rgb(247,54,201);"/>
            <path d="M514,436L514,852L98,852L98,436L514,436ZM403.605,546.395L208.395,546.395L208.395,741.605L403.605,741.605L403.605,546.395Z"/>
        </g>
        <g transform="matrix(1.12195,0,0,1.23529,-74.4756,11.9559)">
            <rect x="418" y="209.5" width="164" height="42.5" style="fill:rgb(247,54,201);"/>
            <rect x="418" y="209.5" width="164" height="42.5"/>
        </g>
        <g transform="matrix(1.12195,0,0,1.23529,-74.4756,-49.2941)">
            <rect x="418" y="209.5" width="164" height="42.5" style="fill:rgb(247,54,201);"/>
            <rect x="418" y="209.5" width="164" height="42.5"/>
        </g>
        <g transform="matrix(1.12195,0,0,1.23529,-74.4756,73.2059)">
            <rect x="418" y="209.5" width="164" height="42.5" style="fill:rgb(247,54,201);"/>
            <rect x="418" y="209.5" width="164" height="42.5"/>
        </g>
        <g transform="matrix(2.2439,0,0,1.23529,-727.451,138.706)">
            <rect x="418" y="209.5" width="164" height="42.5" style="fill:rgb(247,54,201);"/>
            <rect x="418" y="209.5" width="164" height="42.5"/>
        </g>
        <g transform="matrix(2.2439,0,0,1.23529,-727.451,203.706)">
            <rect x="418" y="209.5" width="164" height="42.5" style="fill:rgb(247,54,201);"/>
            <rect x="418" y="209.5" width="164" height="42.5"/>
        </g>
        <g transform="matrix(2.2439,0,0,1.23529,-727.451,270.706)">
            <rect x="418" y="209.5" width="164" height="42.5" style="fill:rgb(247,54,201);"/>
            <rect x="418" y="209.5" width="164" height="42.5"/>
        </g>
    </g>
</svg>
