
<svg xmlns="http://www.w3.org/2000/svg" version="1.1" xmlns:xlink="http://www.w3.org/1999/xlink" preserveAspectRatio="none" x="0px" y="0px" width="411px" height="120px" viewBox="0 0 411 120">
<defs>
<g id="pxla_0_Layer0_0_FILL">
<path fill="#FFFFFF" stroke="none" d="
M 79 82.9
L 41.75 82.9 41.75 120 79 120 79 82.9
M 37.4 82.9
L 0.1 82.9 0.1 120 37.4 120 37.4 82.9
M 37.3 41.45
L 0 41.45 0 78.6 37.3 78.6 37.3 41.45
M 28.9 49.65
L 28.9 62 12.25 62 12.25 70.3 8.3 70.3 8.3 49.65 28.9 49.65
M 24.75 57.9
L 24.75 53.85 12.45 53.85 12.45 57.9 24.75 57.9
M 78.8 41.45
L 41.5 41.45 41.5 78.6 78.8 78.6 78.8 41.45
M 62.15 49.65
L 62.15 70.3 58.15 70.3 58.15 49.65 62.15 49.65
M 120.25 82.9
L 82.95 82.9 82.95 120 120.25 120 120.25 82.9
M 120.25 41.45
L 82.95 41.45 82.95 78.6 120.25 78.6 120.25 41.45
M 111.9 49.65
L 111.9 53.75 107.9 53.75 107.9 49.65 111.9 49.65
M 103.8 53.85
L 107.8 53.85 107.8 57.9 103.8 57.9 103.8 53.85
M 103.8 62.15
L 107.8 62.15 107.8 66.1 103.8 66.1 103.8 62.15
M 107.9 70.3
L 107.9 66.3 111.9 66.3 111.9 70.3 107.9 70.3
M 103.65 57.95
L 103.65 62 99.55 62 99.55 57.95 103.65 57.95
M 99.5 53.85
L 99.5 57.9 95.45 57.9 95.45 53.85 99.5 53.85
M 91.35 49.65
L 95.4 49.65 95.4 53.75 91.35 53.75 91.35 49.65
M 91.35 70.3
L 91.35 66.3 95.4 66.3 95.4 70.3 91.35 70.3
M 99.5 62.15
L 99.5 66.1 95.45 66.1 95.45 62.15 99.5 62.15
M 161.65 41.45
L 124.35 41.45 124.35 78.6 161.65 78.6 161.65 41.45
M 153.3 66.3
L 153.3 70.3 132.75 70.3 132.75 49.65 153.3 49.65 153.3 53.75 136.85 53.75 136.85 57.95 149.2 57.95 149.2 62 136.85 62 136.85 66.3 153.3 66.3
M 165.9 78.6
L 203.2 78.6 203.2 41.45 165.9 41.45 165.9 78.6
M 174.15 49.65
L 178.25 49.65 178.25 66.3 194.85 66.3 194.85 70.3 174.15 70.3 174.15 49.65
M 244.75 78.6
L 244.75 41.45 207.45 41.45 207.45 78.6 244.75 78.6
M 236.4 70.3
L 232.3 70.3 232.3 66.1 219.8 66.1 219.8 70.3 215.8 70.3 215.8 49.65 236.4 49.65 236.4 70.3
M 232.25 62
L 232.25 53.85 219.95 53.85 219.95 62 232.25 62
M 248.85 78.6
L 286.15 78.6 286.15 41.45 248.85 41.45 248.85 78.6
M 265.45 53.75
L 257.25 53.75 257.25 49.65 277.8 49.65 277.8 53.75 269.6 53.75 269.6 70.3 265.45 70.3 265.45 53.75
M 369.05 78.6
L 369.05 41.45 331.7 41.45 331.7 78.6 369.05 78.6
M 360.7 70.3
L 340.05 70.3 340.05 49.65 360.7 49.65 360.7 70.3
M 344.3 66.1
L 356.5 66.1 356.5 53.85 344.3 53.85 344.3 66.1
M 327.75 78.6
L 327.75 41.45 290.45 41.45 290.45 78.6 327.75 78.6
M 311 49.65
L 311 70.3 307 70.3 307 49.65 311 49.65
M 327.55 37.1
L 327.55 0 290.25 0 290.25 37.1 327.55 37.1
M 369.05 37.1
L 369.05 0 331.7 0 331.7 37.1 369.05 37.1
M 410.55 78.6
L 410.55 41.45 373.25 41.45 373.25 78.6 410.55 78.6
M 381.55 49.65
L 402.2 49.65 402.2 70.3 398.15 70.3 398.15 53.75 385.6 53.75 385.6 70.3 381.55 70.3 381.55 49.65
M 410.55 37.1
L 410.55 0 373.25 0 373.25 37.1 410.55 37.1 Z"/>

<path fill="#000000" stroke="none" d="
M 28.9 62
L 28.9 49.65 8.3 49.65 8.3 70.3 12.25 70.3 12.25 62 28.9 62
M 24.75 53.85
L 24.75 57.9 12.45 57.9 12.45 53.85 24.75 53.85
M 62.15 70.3
L 62.15 49.65 58.15 49.65 58.15 70.3 62.15 70.3
M 99.5 66.1
L 99.5 62.15 95.45 62.15 95.45 66.1 99.5 66.1
M 91.35 66.3
L 91.35 70.3 95.4 70.3 95.4 66.3 91.35 66.3
M 95.4 49.65
L 91.35 49.65 91.35 53.75 95.4 53.75 95.4 49.65
M 99.5 57.9
L 99.5 53.85 95.45 53.85 95.45 57.9 99.5 57.9
M 103.65 62
L 103.65 57.95 99.55 57.95 99.55 62 103.65 62
M 107.9 66.3
L 107.9 70.3 111.9 70.3 111.9 66.3 107.9 66.3
M 107.8 62.15
L 103.8 62.15 103.8 66.1 107.8 66.1 107.8 62.15
M 107.8 53.85
L 103.8 53.85 103.8 57.9 107.8 57.9 107.8 53.85
M 111.9 53.75
L 111.9 49.65 107.9 49.65 107.9 53.75 111.9 53.75
M 153.3 70.3
L 153.3 66.3 136.85 66.3 136.85 62 149.2 62 149.2 57.95 136.85 57.95 136.85 53.75 153.3 53.75 153.3 49.65 132.75 49.65 132.75 70.3 153.3 70.3
M 178.25 49.65
L 174.15 49.65 174.15 70.3 194.85 70.3 194.85 66.3 178.25 66.3 178.25 49.65
M 232.3 70.3
L 236.4 70.3 236.4 49.65 215.8 49.65 215.8 70.3 219.8 70.3 219.8 66.1 232.3 66.1 232.3 70.3
M 232.25 53.85
L 232.25 62 219.95 62 219.95 53.85 232.25 53.85
M 257.25 53.75
L 265.45 53.75 265.45 70.3 269.6 70.3 269.6 53.75 277.8 53.75 277.8 49.65 257.25 49.65 257.25 53.75
M 340.05 70.3
L 360.7 70.3 360.7 49.65 340.05 49.65 340.05 70.3
M 356.5 66.1
L 344.3 66.1 344.3 53.85 356.5 53.85 356.5 66.1
M 311 70.3
L 311 49.65 307 49.65 307 70.3 311 70.3
M 402.2 49.65
L 381.55 49.65 381.55 70.3 385.6 70.3 385.6 53.75 398.15 53.75 398.15 70.3 402.2 70.3 402.2 49.65 Z"/>
</g>
</defs>

<g transform="matrix( 1, 0, 0, 1, 0,0) ">
<g transform="matrix( 1, 0, 0, 1, 0,0) ">
<use xlink:href="#pxla_0_Layer0_0_FILL"/>
</g>
</g>
</svg>
