<svg xmlns="http://www.w3.org/2000/svg" xmlns:svg="http://www.w3.org/2000/svg" id="svg1" width="35" height="35" version="1.1" viewBox="0 0 35 35"><metadata id="metadata1"/><g id="logo" style="clip-rule:evenodd;fill-rule:evenodd;stroke-width:6.37369;stroke-linejoin:round;stroke-miterlimit:2" transform="matrix(0.15689497,0,0,0.15689497,-7.6030859,-278.71771)"><path d="M 256,32 C 379.63,32 480,132.37 480,256 480,379.63 379.63,480 256,480 132.37,480 32,379.63 32,256 32,132.37 132.37,32 256,32 Z m 0,37.66 C 153.15,69.66 69.66,153.15 69.66,256 69.66,358.85 153.15,442.35 256,442.35 358.85,442.35 442.35,358.85 442.35,256 442.35,153.15 358.85,69.66 256,69.66 Z" style="clip-rule:evenodd;fill:#f02040;fill-rule:evenodd;stroke-width:6.37369;stroke-linejoin:round;stroke-miterlimit:2" id="circle" transform="matrix(0.49794646,0,0,0.49794646,32.525434,1760.5262)"/><path d="m 192,288 h -32 v 32 h 32 z m 64,-96 h -64 v 96 h 96 v -32 h -64 v -32 h 32 z" style="clip-rule:evenodd;fill:#f02040;fill-rule:evenodd;stroke-width:6.37369;stroke-linejoin:round;stroke-miterlimit:2" id="dud" transform="matrix(0.99588895,0,0,0.99588895,-63.080735,1633.0532)"/></g></svg>